<svg xmlns="http://www.w3.org/2000/svg" xmlns:xlink="http://www.w3.org/1999/xlink" width="512" zoomAndPan="magnify" viewBox="0 0 384 383.999986" height="512" preserveAspectRatio="xMidYMid meet" version="1.0"><defs><g/></defs><g fill="#ffffff" fill-opacity="1"><g transform="translate(142.001948, 218.506624)"><g><path d="M 13.347656 -41.644531 C 10.5 -34.046875 5.898438 -26.597656 1 -21.796875 C 1.699219 -20.949219 2.699219 -19.046875 3.101562 -18.148438 C 4.800781 -19.996094 6.550781 -22.046875 8.148438 -24.347656 L 8.148438 3.699219 L 11.699219 3.699219 L 11.699219 -29.898438 C 13.648438 -33.296875 15.398438 -36.894531 16.847656 -40.597656 Z M 22.449219 -20.546875 C 21.097656 -14.648438 18.75 -8.699219 15.597656 -4.898438 C 16.5 -4.398438 18.097656 -3.449219 18.796875 -2.851562 C 21.847656 -7 24.496094 -13.296875 26.097656 -19.847656 Z M 43.59375 -28.796875 C 43.195312 -26.246094 42.746094 -23.597656 42.445312 -21.796875 L 45.546875 -21.199219 C 46.195312 -23.847656 47.09375 -28.148438 47.746094 -31.796875 L 45.195312 -32.398438 L 44.59375 -32.246094 L 24.347656 -32.246094 C 25.347656 -34.996094 26.246094 -37.894531 26.996094 -40.796875 L 23.347656 -41.597656 C 21.699219 -34.296875 18.796875 -27.148438 15.148438 -22.546875 C 15.949219 -21.996094 17.5 -20.746094 18.097656 -20.199219 C 19.898438 -22.546875 21.546875 -25.496094 22.949219 -28.796875 L 30.546875 -28.796875 L 30.546875 -0.699219 C 30.546875 -0.0507812 30.347656 0.148438 29.695312 0.148438 C 29.046875 0.148438 26.898438 0.199219 24.546875 0.101562 C 25.046875 1.148438 25.648438 2.800781 25.847656 3.851562 C 28.996094 3.851562 31.097656 3.75 32.445312 3.101562 C 33.746094 2.5 34.195312 1.398438 34.195312 -0.699219 L 34.195312 -28.796875 Z M 37.847656 -19.847656 C 40.496094 -14.597656 42.996094 -7.597656 43.796875 -3.050781 L 47.34375 -4.25 C 46.496094 -8.800781 43.945312 -15.648438 41.097656 -20.949219 Z M 37.847656 -19.847656 "/></g></g></g><g fill="#ffffff" fill-opacity="1"><g transform="translate(191.994212, 218.506624)"><g><path d="M 17.5 -28.148438 C 16.75 -21.746094 15.25 -16.347656 13.199219 -11.898438 C 11.347656 -13.398438 9.398438 -14.796875 7.449219 -16.046875 C 8.5 -19.597656 9.550781 -23.796875 10.449219 -28.148438 Z M 19.097656 -31.746094 L 18.398438 -31.597656 L 11.148438 -31.597656 C 11.847656 -34.996094 12.398438 -38.445312 12.847656 -41.546875 L 9.199219 -41.796875 C 8.847656 -38.644531 8.25 -35.097656 7.550781 -31.597656 L 2.300781 -31.597656 L 2.300781 -28.148438 L 6.898438 -28.148438 C 5.800781 -23.097656 4.597656 -18.199219 3.398438 -14.597656 C 6 -12.847656 8.847656 -10.75 11.449219 -8.550781 C 8.800781 -4.25 5.398438 -1.101562 1.5 0.851562 C 2.351562 1.5 3.351562 2.851562 3.851562 3.800781 C 7.949219 1.5 11.449219 -1.75 14.25 -6.148438 C 16.347656 -4.199219 18.148438 -2.300781 19.398438 -0.699219 L 21.898438 -3.75 C 20.546875 -5.5 18.5 -7.5 16.097656 -9.550781 C 18.796875 -15.097656 20.546875 -22.199219 21.347656 -31.195312 Z M 47.796875 -20.746094 L 36.796875 -20.746094 L 36.796875 -25.546875 C 40.296875 -28.597656 43.84375 -32.796875 46.296875 -36.496094 L 43.746094 -38.347656 L 42.894531 -38.144531 L 23.699219 -38.144531 L 23.699219 -34.695312 L 40.347656 -34.695312 C 38.296875 -31.796875 35.597656 -28.546875 33.046875 -26.449219 L 33.046875 -20.746094 L 21.496094 -20.746094 L 21.496094 -17.199219 L 33.046875 -17.199219 L 33.046875 -0.601562 C 33.046875 0.101562 32.746094 0.351562 31.945312 0.351562 C 31.195312 0.398438 28.445312 0.398438 25.496094 0.300781 C 26.046875 1.351562 26.648438 2.800781 26.898438 3.851562 C 30.746094 3.898438 33.148438 3.800781 34.695312 3.25 C 36.246094 2.648438 36.796875 1.601562 36.796875 -0.601562 L 36.796875 -17.199219 L 47.796875 -17.199219 Z M 47.796875 -20.746094 "/></g></g></g></svg>