<svg xmlns="http://www.w3.org/2000/svg" xmlns:xlink="http://www.w3.org/1999/xlink" width="512" zoomAndPan="magnify" viewBox="0 0 384 383.999986" height="512" preserveAspectRatio="xMidYMid meet" version="1.0"><defs><g/></defs><g fill="#ffffff" fill-opacity="1"><g transform="translate(113.33203, 218.506624)"><g><path d="M 16.59375 -17.59375 C 19.226562 -17.394531 21.351562 -16.519531 22.96875 -14.96875 C 24.59375 -13.425781 25.40625 -11.503906 25.40625 -9.203125 C 25.40625 -7.429688 24.96875 -5.828125 24.09375 -4.390625 C 23.226562 -2.960938 22.035156 -1.835938 20.515625 -1.015625 C 19.003906 -0.203125 17.316406 0.203125 15.453125 0.203125 C 14.347656 0.203125 13.144531 0.148438 11.84375 0.046875 C 11.382812 0.015625 10.835938 -0.015625 10.203125 -0.046875 C 9.566406 -0.078125 8.863281 -0.09375 8.09375 -0.09375 L 4.703125 -0.046875 C 4.097656 -0.015625 3.25 0 2.15625 0 C 2.082031 0 2.046875 -0.0976562 2.046875 -0.296875 C 2.046875 -0.492188 2.082031 -0.59375 2.15625 -0.59375 C 3.382812 -0.59375 4.296875 -0.6875 4.890625 -0.875 C 5.492188 -1.0625 5.910156 -1.382812 6.140625 -1.84375 C 6.378906 -2.3125 6.5 -3.046875 6.5 -4.046875 L 6.5 -27.203125 C 6.5 -28.203125 6.390625 -28.929688 6.171875 -29.390625 C 5.953125 -29.859375 5.550781 -30.1875 4.96875 -30.375 C 4.382812 -30.5625 3.476562 -30.65625 2.25 -30.65625 C 2.144531 -30.65625 2.09375 -30.753906 2.09375 -30.953125 C 2.09375 -31.148438 2.144531 -31.25 2.25 -31.25 L 4.703125 -31.203125 C 6.097656 -31.128906 7.226562 -31.09375 8.09375 -31.09375 C 8.695312 -31.09375 9.253906 -31.109375 9.765625 -31.140625 C 10.285156 -31.179688 10.726562 -31.21875 11.09375 -31.25 C 12.132812 -31.351562 13.101562 -31.40625 14 -31.40625 C 16.800781 -31.40625 18.898438 -30.796875 20.296875 -29.578125 C 21.703125 -28.359375 22.40625 -26.765625 22.40625 -24.796875 C 22.40625 -23.203125 21.882812 -21.78125 20.84375 -20.53125 C 19.8125 -19.28125 18.394531 -18.300781 16.59375 -17.59375 Z M 12.953125 -30.65625 C 12.085938 -30.65625 11.4375 -30.578125 11 -30.421875 C 10.5625 -30.273438 10.242188 -29.957031 10.046875 -29.46875 C 9.847656 -28.988281 9.75 -28.195312 9.75 -27.09375 L 9.75 -17.59375 L 12 -17.546875 C 14.4375 -17.546875 16.238281 -18.171875 17.40625 -19.421875 C 18.570312 -20.671875 19.15625 -22.332031 19.15625 -24.40625 C 19.15625 -26.269531 18.644531 -27.773438 17.625 -28.921875 C 16.601562 -30.078125 15.046875 -30.65625 12.953125 -30.65625 Z M 14.703125 -0.703125 C 17.128906 -0.703125 18.9375 -1.328125 20.125 -2.578125 C 21.3125 -3.828125 21.90625 -5.617188 21.90625 -7.953125 C 21.90625 -10.484375 21.160156 -12.53125 19.671875 -14.09375 C 18.191406 -15.664062 16.148438 -16.46875 13.546875 -16.5 C 12.484375 -16.53125 11.21875 -16.5 9.75 -16.40625 L 9.75 -4.046875 C 9.75 -3.179688 9.875 -2.515625 10.125 -2.046875 C 10.375 -1.578125 10.859375 -1.234375 11.578125 -1.015625 C 12.296875 -0.804688 13.335938 -0.703125 14.703125 -0.703125 Z M 14.703125 -0.703125 "/></g></g></g><g fill="#ffffff" fill-opacity="1"><g transform="translate(141.227711, 218.506624)"><g><path d="M 11.546875 0.65625 C 9.617188 0.65625 7.910156 0.179688 6.421875 -0.765625 C 4.941406 -1.722656 3.800781 -3.007812 3 -4.625 C 2.195312 -6.238281 1.796875 -8 1.796875 -9.90625 C 1.796875 -12.070312 2.320312 -13.910156 3.375 -15.421875 C 4.425781 -16.941406 5.773438 -18.078125 7.421875 -18.828125 C 9.078125 -19.578125 10.753906 -19.953125 12.453125 -19.953125 C 14.421875 -19.953125 16.132812 -19.46875 17.59375 -18.5 C 19.0625 -17.53125 20.1875 -16.253906 20.96875 -14.671875 C 21.757812 -13.085938 22.15625 -11.414062 22.15625 -9.65625 C 22.15625 -7.582031 21.671875 -5.769531 20.703125 -4.21875 C 19.734375 -2.675781 18.441406 -1.476562 16.828125 -0.625 C 15.210938 0.226562 13.453125 0.65625 11.546875 0.65625 Z M 13 -0.296875 C 14.832031 -0.296875 16.25 -0.945312 17.25 -2.25 C 18.25 -3.550781 18.75 -5.550781 18.75 -8.25 C 18.75 -10.3125 18.40625 -12.160156 17.71875 -13.796875 C 17.039062 -15.429688 16.097656 -16.707031 14.890625 -17.625 C 13.691406 -18.539062 12.328125 -19 10.796875 -19 C 8.992188 -19 7.601562 -18.347656 6.625 -17.046875 C 5.644531 -15.742188 5.15625 -13.878906 5.15625 -11.453125 C 5.15625 -9.421875 5.488281 -7.550781 6.15625 -5.84375 C 6.820312 -4.144531 7.753906 -2.796875 8.953125 -1.796875 C 10.148438 -0.796875 11.5 -0.296875 13 -0.296875 Z M 13 -0.296875 "/></g></g></g><g fill="#ffffff" fill-opacity="1"><g transform="translate(165.174002, 218.506624)"><g><path d="M 24.75 -0.59375 C 24.851562 -0.59375 24.90625 -0.492188 24.90625 -0.296875 C 24.90625 -0.0976562 24.851562 0 24.75 0 C 23.976562 0 23.378906 -0.015625 22.953125 -0.046875 L 20.25 -0.09375 L 17.5 -0.046875 C 17.0625 -0.015625 16.460938 0 15.703125 0 C 15.597656 0 15.546875 -0.0976562 15.546875 -0.296875 C 15.546875 -0.492188 15.597656 -0.59375 15.703125 -0.59375 C 16.597656 -0.59375 17.257812 -0.6875 17.6875 -0.875 C 18.125 -1.0625 18.414062 -1.382812 18.5625 -1.84375 C 18.71875 -2.3125 18.796875 -3.046875 18.796875 -4.046875 L 18.796875 -12.15625 C 18.796875 -14.113281 18.421875 -15.5625 17.671875 -16.5 C 16.921875 -17.4375 15.765625 -17.90625 14.203125 -17.90625 C 13.171875 -17.90625 12.128906 -17.628906 11.078125 -17.078125 C 10.023438 -16.523438 9.066406 -15.765625 8.203125 -14.796875 L 8.203125 -4.046875 C 8.203125 -3.046875 8.273438 -2.3125 8.421875 -1.84375 C 8.578125 -1.382812 8.867188 -1.0625 9.296875 -0.875 C 9.734375 -0.6875 10.398438 -0.59375 11.296875 -0.59375 C 11.398438 -0.59375 11.453125 -0.492188 11.453125 -0.296875 C 11.453125 -0.0976562 11.398438 0 11.296875 0 C 10.535156 0 9.9375 -0.015625 9.5 -0.046875 L 6.796875 -0.09375 L 4.046875 -0.046875 C 3.617188 -0.015625 3.019531 0 2.25 0 C 2.144531 0 2.09375 -0.0976562 2.09375 -0.296875 C 2.09375 -0.492188 2.144531 -0.59375 2.25 -0.59375 C 3.144531 -0.59375 3.8125 -0.6875 4.25 -0.875 C 4.6875 -1.0625 4.976562 -1.382812 5.125 -1.84375 C 5.269531 -2.3125 5.34375 -3.046875 5.34375 -4.046875 L 5.34375 -13.953125 C 5.34375 -15.085938 5.207031 -15.90625 4.9375 -16.40625 C 4.675781 -16.90625 4.226562 -17.15625 3.59375 -17.15625 C 3.0625 -17.15625 2.164062 -16.90625 0.90625 -16.40625 L 0.796875 -16.40625 C 0.660156 -16.40625 0.566406 -16.476562 0.515625 -16.625 C 0.472656 -16.769531 0.519531 -16.878906 0.65625 -16.953125 L 6.453125 -19.703125 L 6.75 -19.75 C 7.050781 -19.75 7.367188 -19.363281 7.703125 -18.59375 C 8.035156 -17.832031 8.203125 -16.851562 8.203125 -15.65625 C 9.460938 -17.113281 10.71875 -18.191406 11.96875 -18.890625 C 13.21875 -19.597656 14.507812 -19.953125 15.84375 -19.953125 C 17.71875 -19.953125 19.15625 -19.429688 20.15625 -18.390625 C 21.15625 -17.359375 21.65625 -15.84375 21.65625 -13.84375 L 21.65625 -4.046875 C 21.65625 -3.046875 21.726562 -2.3125 21.875 -1.84375 C 22.019531 -1.382812 22.3125 -1.0625 22.75 -0.875 C 23.1875 -0.6875 23.851562 -0.59375 24.75 -0.59375 Z M 24.75 -0.59375 "/></g></g></g><g fill="#ffffff" fill-opacity="1"><g transform="translate(191.020001, 218.506624)"><g><path d="M 6.40625 -25.59375 C 5.695312 -25.59375 5.148438 -25.773438 4.765625 -26.140625 C 4.390625 -26.515625 4.203125 -27.035156 4.203125 -27.703125 C 4.203125 -28.367188 4.390625 -28.882812 4.765625 -29.25 C 5.148438 -29.613281 5.695312 -29.796875 6.40625 -29.796875 C 7.070312 -29.796875 7.585938 -29.613281 7.953125 -29.25 C 8.316406 -28.882812 8.5 -28.367188 8.5 -27.703125 C 8.5 -27.035156 8.316406 -26.515625 7.953125 -26.140625 C 7.585938 -25.773438 7.070312 -25.59375 6.40625 -25.59375 Z M 8.34375 -19.34375 C 8.34375 -19.113281 8.328125 -18.445312 8.296875 -17.34375 C 8.265625 -16.25 8.25 -14.953125 8.25 -13.453125 L 8.25 2.40625 C 8.25 4.664062 8.023438 6.519531 7.578125 7.96875 C 7.128906 9.425781 6.40625 10.632812 5.40625 11.59375 C 4.40625 12.5625 3.003906 13.394531 1.203125 14.09375 C 1.128906 14.132812 1.050781 14.0625 0.96875 13.875 C 0.882812 13.6875 0.878906 13.578125 0.953125 13.546875 C 2.585938 12.847656 3.738281 11.734375 4.40625 10.203125 C 5.070312 8.671875 5.40625 6.453125 5.40625 3.546875 L 5.40625 -13.40625 C 5.40625 -14.601562 5.285156 -15.46875 5.046875 -16 C 4.816406 -16.53125 4.414062 -16.796875 3.84375 -16.796875 C 3.25 -16.796875 2.484375 -16.5625 1.546875 -16.09375 L 1.5 -16.09375 C 1.332031 -16.09375 1.210938 -16.175781 1.140625 -16.34375 C 1.078125 -16.507812 1.113281 -16.628906 1.25 -16.703125 L 7.75 -19.703125 L 7.90625 -19.75 C 8.03125 -19.75 8.132812 -19.707031 8.21875 -19.625 C 8.300781 -19.539062 8.34375 -19.445312 8.34375 -19.34375 Z M 8.34375 -19.34375 "/></g></g></g><g fill="#ffffff" fill-opacity="1"><g transform="translate(203.868007, 218.506624)"><g><path d="M 11.546875 0.65625 C 9.617188 0.65625 7.910156 0.179688 6.421875 -0.765625 C 4.941406 -1.722656 3.800781 -3.007812 3 -4.625 C 2.195312 -6.238281 1.796875 -8 1.796875 -9.90625 C 1.796875 -12.070312 2.320312 -13.910156 3.375 -15.421875 C 4.425781 -16.941406 5.773438 -18.078125 7.421875 -18.828125 C 9.078125 -19.578125 10.753906 -19.953125 12.453125 -19.953125 C 14.421875 -19.953125 16.132812 -19.46875 17.59375 -18.5 C 19.0625 -17.53125 20.1875 -16.253906 20.96875 -14.671875 C 21.757812 -13.085938 22.15625 -11.414062 22.15625 -9.65625 C 22.15625 -7.582031 21.671875 -5.769531 20.703125 -4.21875 C 19.734375 -2.675781 18.441406 -1.476562 16.828125 -0.625 C 15.210938 0.226562 13.453125 0.65625 11.546875 0.65625 Z M 13 -0.296875 C 14.832031 -0.296875 16.25 -0.945312 17.25 -2.25 C 18.25 -3.550781 18.75 -5.550781 18.75 -8.25 C 18.75 -10.3125 18.40625 -12.160156 17.71875 -13.796875 C 17.039062 -15.429688 16.097656 -16.707031 14.890625 -17.625 C 13.691406 -18.539062 12.328125 -19 10.796875 -19 C 8.992188 -19 7.601562 -18.347656 6.625 -17.046875 C 5.644531 -15.742188 5.15625 -13.878906 5.15625 -11.453125 C 5.15625 -9.421875 5.488281 -7.550781 6.15625 -5.84375 C 6.820312 -4.144531 7.753906 -2.796875 8.953125 -1.796875 C 10.148438 -0.796875 11.5 -0.296875 13 -0.296875 Z M 13 -0.296875 "/></g></g></g><g fill="#ffffff" fill-opacity="1"><g transform="translate(227.814298, 218.506624)"><g><path d="M 24.34375 -2.84375 C 24.476562 -2.84375 24.570312 -2.769531 24.625 -2.625 C 24.675781 -2.476562 24.632812 -2.367188 24.5 -2.296875 L 18.65625 0.453125 L 18.453125 0.5 C 18.117188 0.5 17.800781 0.117188 17.5 -0.640625 C 17.195312 -1.410156 17.046875 -2.414062 17.046875 -3.65625 L 17.046875 -3.84375 C 15.742188 -2.382812 14.441406 -1.3125 13.140625 -0.625 C 11.847656 0.0625 10.5 0.40625 9.09375 0.40625 C 7.425781 0.40625 6.125 -0.117188 5.1875 -1.171875 C 4.257812 -2.222656 3.796875 -3.75 3.796875 -5.75 L 3.796875 -13.40625 C 3.796875 -14.695312 3.675781 -15.632812 3.4375 -16.21875 C 3.207031 -16.800781 2.828125 -17.09375 2.296875 -17.09375 C 1.828125 -17.09375 1.257812 -16.925781 0.59375 -16.59375 L 0.546875 -16.59375 C 0.410156 -16.59375 0.3125 -16.6875 0.25 -16.875 C 0.1875 -17.0625 0.21875 -17.171875 0.34375 -17.203125 L 5.90625 -19.703125 L 6.09375 -19.75 C 6.195312 -19.75 6.304688 -19.707031 6.421875 -19.625 C 6.535156 -19.539062 6.59375 -19.445312 6.59375 -19.34375 L 6.59375 -7.40625 C 6.59375 -3.53125 7.992188 -1.59375 10.796875 -1.59375 C 11.867188 -1.59375 12.953125 -1.867188 14.046875 -2.421875 C 15.148438 -2.972656 16.148438 -3.734375 17.046875 -4.703125 L 17.046875 -13.40625 C 17.046875 -14.738281 16.9375 -15.6875 16.71875 -16.25 C 16.507812 -16.8125 16.117188 -17.09375 15.546875 -17.09375 C 15.078125 -17.09375 14.507812 -16.925781 13.84375 -16.59375 L 13.796875 -16.59375 C 13.660156 -16.59375 13.566406 -16.6875 13.515625 -16.875 C 13.472656 -17.0625 13.519531 -17.171875 13.65625 -17.203125 L 19.203125 -19.703125 L 19.34375 -19.75 C 19.445312 -19.75 19.554688 -19.707031 19.671875 -19.625 C 19.785156 -19.539062 19.84375 -19.445312 19.84375 -19.34375 L 19.84375 -5.34375 C 19.84375 -4.21875 19.976562 -3.40625 20.25 -2.90625 C 20.519531 -2.40625 20.96875 -2.15625 21.59375 -2.15625 C 22.164062 -2.15625 23.050781 -2.382812 24.25 -2.84375 Z M 24.34375 -2.84375 "/></g></g></g><g fill="#ffffff" fill-opacity="1"><g transform="translate(252.460487, 218.506624)"><g><path d="M 13.75 -19.75 C 14.476562 -19.75 15.175781 -19.546875 15.84375 -19.140625 C 16.507812 -18.742188 16.84375 -18.265625 16.84375 -17.703125 C 16.84375 -17.265625 16.703125 -16.894531 16.421875 -16.59375 C 16.140625 -16.300781 15.734375 -16.15625 15.203125 -16.15625 C 14.898438 -16.15625 14.640625 -16.210938 14.421875 -16.328125 C 14.203125 -16.441406 13.945312 -16.613281 13.65625 -16.84375 C 13.351562 -17.113281 13.066406 -17.316406 12.796875 -17.453125 C 12.535156 -17.585938 12.21875 -17.65625 11.84375 -17.65625 C 11.414062 -17.65625 10.957031 -17.46875 10.46875 -17.09375 C 9.988281 -16.726562 9.234375 -15.945312 8.203125 -14.75 L 8.203125 -4.046875 C 8.203125 -3.046875 8.328125 -2.3125 8.578125 -1.84375 C 8.828125 -1.382812 9.285156 -1.0625 9.953125 -0.875 C 10.617188 -0.6875 11.648438 -0.59375 13.046875 -0.59375 C 13.179688 -0.59375 13.25 -0.492188 13.25 -0.296875 C 13.25 -0.0976562 13.179688 0 13.046875 0 C 11.984375 0 11.132812 -0.015625 10.5 -0.046875 L 6.796875 -0.09375 L 4.046875 -0.046875 C 3.617188 -0.015625 3.019531 0 2.25 0 C 2.144531 0 2.09375 -0.0976562 2.09375 -0.296875 C 2.09375 -0.492188 2.144531 -0.59375 2.25 -0.59375 C 3.144531 -0.59375 3.8125 -0.6875 4.25 -0.875 C 4.6875 -1.0625 4.976562 -1.382812 5.125 -1.84375 C 5.269531 -2.3125 5.34375 -3.046875 5.34375 -4.046875 L 5.34375 -13.953125 C 5.34375 -15.085938 5.207031 -15.90625 4.9375 -16.40625 C 4.675781 -16.90625 4.226562 -17.15625 3.59375 -17.15625 C 3.0625 -17.15625 2.164062 -16.90625 0.90625 -16.40625 L 0.796875 -16.40625 C 0.660156 -16.40625 0.566406 -16.476562 0.515625 -16.625 C 0.472656 -16.769531 0.519531 -16.878906 0.65625 -16.953125 L 6.453125 -19.703125 L 6.75 -19.75 C 7.050781 -19.75 7.367188 -19.363281 7.703125 -18.59375 C 8.035156 -17.832031 8.203125 -16.851562 8.203125 -15.65625 L 8.203125 -15.59375 C 9.566406 -17.195312 10.648438 -18.289062 11.453125 -18.875 C 12.253906 -19.457031 13.019531 -19.75 13.75 -19.75 Z M 13.75 -19.75 "/></g></g></g></svg>