<svg xmlns="http://www.w3.org/2000/svg" xmlns:xlink="http://www.w3.org/1999/xlink" width="512" zoomAndPan="magnify" viewBox="0 0 384 383.999986" height="512" preserveAspectRatio="xMidYMid meet" version="1.0"><defs><g/></defs><g fill="#ffffff" fill-opacity="1"><g transform="translate(92.332032, 218.506639)"><g><path d="M 25 -35.703125 L 25 -31.703125 L 9.34375 -31.703125 L 9.34375 0 L 4.84375 0 L 4.84375 -35.703125 Z M 25 -35.703125 "/></g></g></g><g fill="#ffffff" fill-opacity="1"><g transform="translate(116.028235, 218.506639)"><g><path d="M 17.75 -15.75 L 17.75 -12.15625 L 14.09375 -12.15625 C 9.0625 -12.15625 6.546875 -10.617188 6.546875 -7.546875 C 6.546875 -5.910156 7.226562 -4.757812 8.59375 -4.09375 C 9.96875 -3.425781 11.65625 -3.09375 13.65625 -3.09375 C 15.488281 -3.09375 17.117188 -3.3125 18.546875 -3.75 C 19.984375 -4.1875 21.25 -4.671875 22.34375 -5.203125 L 22.34375 -1.34375 C 21.3125 -0.78125 20.078125 -0.332031 18.640625 0 C 17.210938 0.332031 15.46875 0.5 13.40625 0.5 C 9.570312 0.5 6.738281 -0.238281 4.90625 -1.71875 C 3.070312 -3.207031 2.15625 -5.066406 2.15625 -7.296875 C 2.15625 -8.628906 2.425781 -9.71875 2.96875 -10.5625 C 3.519531 -11.414062 4.242188 -12.101562 5.140625 -12.625 C 6.046875 -13.144531 7.03125 -13.550781 8.09375 -13.84375 L 8.09375 -14.09375 C 6.59375 -14.5625 5.382812 -15.285156 4.46875 -16.265625 C 3.550781 -17.253906 3.09375 -18.566406 3.09375 -20.203125 C 3.09375 -22.460938 4.050781 -24.207031 5.96875 -25.4375 C 7.882812 -26.675781 10.363281 -27.296875 13.40625 -27.296875 C 15.332031 -27.296875 16.988281 -27.128906 18.375 -26.796875 C 19.757812 -26.460938 21.117188 -26 22.453125 -25.40625 L 20.796875 -21.90625 C 19.703125 -22.40625 18.578125 -22.820312 17.421875 -23.15625 C 16.273438 -23.488281 14.914062 -23.65625 13.34375 -23.65625 C 9.3125 -23.65625 7.296875 -22.382812 7.296875 -19.84375 C 7.296875 -18.382812 7.988281 -17.335938 9.375 -16.703125 C 10.757812 -16.066406 12.617188 -15.75 14.953125 -15.75 Z M 17.75 -15.75 "/></g></g></g><g fill="#ffffff" fill-opacity="1"><g transform="translate(140.1745, 218.506639)"><g><path d="M 8.453125 -26.796875 L 8.453125 -7.90625 C 8.453125 -6.300781 8.757812 -5.097656 9.375 -4.296875 C 9.988281 -3.492188 10.960938 -3.09375 12.296875 -3.09375 C 13.035156 -3.09375 13.796875 -3.148438 14.578125 -3.265625 C 15.359375 -3.390625 15.96875 -3.519531 16.40625 -3.65625 L 16.40625 -0.296875 C 15.9375 -0.0664062 15.25 0.117188 14.34375 0.265625 C 13.445312 0.421875 12.566406 0.5 11.703125 0.5 C 10.234375 0.5 8.921875 0.257812 7.765625 -0.21875 C 6.617188 -0.707031 5.71875 -1.554688 5.0625 -2.765625 C 4.414062 -3.984375 4.09375 -5.675781 4.09375 -7.84375 L 4.09375 -26.796875 Z M 8.453125 -26.796875 "/></g></g></g><g fill="#ffffff" fill-opacity="1"><g transform="translate(157.47182, 218.506639)"><g><path d="M 13.75 0.5 C 10.476562 0.5 7.828125 -0.65625 5.796875 -2.96875 C 3.765625 -5.289062 2.75 -8.734375 2.75 -13.296875 C 2.75 -17.828125 3.75 -21.289062 5.75 -23.6875 C 7.75 -26.09375 10.550781 -27.296875 14.15625 -27.296875 C 16.113281 -27.296875 17.75 -26.945312 19.0625 -26.25 C 20.382812 -25.550781 21.476562 -24.535156 22.34375 -23.203125 L 22.65625 -23.203125 C 22.820312 -23.765625 23.035156 -24.378906 23.296875 -25.046875 C 23.566406 -25.710938 23.882812 -26.296875 24.25 -26.796875 L 27.703125 -26.796875 C 27.429688 -26.066406 27.203125 -25.097656 27.015625 -23.890625 C 26.835938 -22.691406 26.695312 -21.425781 26.59375 -20.09375 C 26.5 -18.757812 26.453125 -17.492188 26.453125 -16.296875 L 26.453125 -5.90625 C 26.453125 -4.863281 26.648438 -4.132812 27.046875 -3.71875 C 27.453125 -3.300781 27.9375 -3.09375 28.5 -3.09375 C 28.769531 -3.09375 29.050781 -3.125 29.34375 -3.1875 C 29.644531 -3.257812 29.863281 -3.3125 30 -3.34375 L 30 -0.15625 C 29.726562 0.0078125 29.328125 0.160156 28.796875 0.296875 C 28.265625 0.429688 27.734375 0.5 27.203125 0.5 C 25.960938 0.5 24.953125 0.203125 24.171875 -0.390625 C 23.390625 -0.992188 22.816406 -2.0625 22.453125 -3.59375 L 22.09375 -3.59375 C 21.332031 -2.46875 20.304688 -1.503906 19.015625 -0.703125 C 17.734375 0.0976562 15.976562 0.5 13.75 0.5 Z M 14.5 -3.15625 C 17.226562 -3.15625 19.175781 -3.945312 20.34375 -5.53125 C 21.507812 -7.113281 22.09375 -9.617188 22.09375 -13.046875 L 22.09375 -13.34375 C 22.09375 -16.675781 21.550781 -19.21875 20.46875 -20.96875 C 19.382812 -22.71875 17.378906 -23.59375 14.453125 -23.59375 C 12.015625 -23.59375 10.210938 -22.707031 9.046875 -20.9375 C 7.878906 -19.175781 7.296875 -16.613281 7.296875 -13.25 C 7.296875 -9.882812 7.867188 -7.359375 9.015625 -5.671875 C 10.171875 -3.992188 12 -3.15625 14.5 -3.15625 Z M 13.609375 -30.296875 L 13.609375 -31 C 13.898438 -31.800781 14.195312 -32.75 14.5 -33.84375 C 14.800781 -34.945312 15.066406 -36.066406 15.296875 -37.203125 C 15.535156 -38.335938 15.722656 -39.351562 15.859375 -40.25 L 20.546875 -40.25 L 20.546875 -39.703125 C 20.347656 -38.960938 20.023438 -38.035156 19.578125 -36.921875 C 19.128906 -35.804688 18.613281 -34.65625 18.03125 -33.46875 C 17.445312 -32.289062 16.851562 -31.234375 16.25 -30.296875 Z M 13.609375 -30.296875 "/></g></g></g><g fill="#ffffff" fill-opacity="1"><g transform="translate(188.217057, 218.506639)"><g/></g></g><g fill="#ffffff" fill-opacity="1"><g transform="translate(199.915241, 218.506639)"><g><path d="M 27.5 -12.296875 C 27.5 -9.898438 27.03125 -7.734375 26.09375 -5.796875 C 25.164062 -3.867188 23.773438 -2.335938 21.921875 -1.203125 C 20.078125 -0.0664062 17.785156 0.5 15.046875 0.5 C 11.347656 0.5 8.375 -0.628906 6.125 -2.890625 C 3.875 -5.160156 2.75 -8.460938 2.75 -12.796875 C 2.75 -16.128906 3.335938 -18.828125 4.515625 -20.890625 C 5.703125 -22.960938 7.382812 -24.460938 9.5625 -25.390625 C 11.75 -26.328125 14.328125 -26.796875 17.296875 -26.796875 L 29.65625 -26.796875 L 29.65625 -23.15625 L 23.15625 -23.15625 C 24.445312 -21.914062 25.492188 -20.394531 26.296875 -18.59375 C 27.097656 -16.800781 27.5 -14.703125 27.5 -12.296875 Z M 7.296875 -12.796875 C 7.296875 -9.960938 7.910156 -7.644531 9.140625 -5.84375 C 10.378906 -4.050781 12.382812 -3.15625 15.15625 -3.15625 C 17.914062 -3.15625 19.910156 -4.003906 21.140625 -5.703125 C 22.378906 -7.398438 23 -9.566406 23 -12.203125 C 23 -14.335938 22.640625 -16.335938 21.921875 -18.203125 C 21.203125 -20.066406 20.175781 -21.71875 18.84375 -23.15625 L 17.296875 -23.15625 C 13.960938 -23.15625 11.460938 -22.367188 9.796875 -20.796875 C 8.128906 -19.234375 7.296875 -16.566406 7.296875 -12.796875 Z M 7.296875 -12.796875 "/></g></g></g><g fill="#ffffff" fill-opacity="1"><g transform="translate(230.760464, 218.506639)"><g><path d="M 27.546875 -13.453125 C 27.546875 -9.015625 26.421875 -5.578125 24.171875 -3.140625 C 21.921875 -0.710938 18.878906 0.5 15.046875 0.5 C 12.679688 0.5 10.570312 -0.0390625 8.71875 -1.125 C 6.875 -2.207031 5.414062 -3.789062 4.34375 -5.875 C 3.28125 -7.957031 2.75 -10.484375 2.75 -13.453125 C 2.75 -17.878906 3.859375 -21.289062 6.078125 -23.6875 C 8.296875 -26.09375 11.335938 -27.296875 15.203125 -27.296875 C 17.597656 -27.296875 19.726562 -26.753906 21.59375 -25.671875 C 23.46875 -24.585938 24.925781 -23.019531 25.96875 -20.96875 C 27.019531 -18.925781 27.546875 -16.421875 27.546875 -13.453125 Z M 7.296875 -13.453125 C 7.296875 -10.285156 7.921875 -7.773438 9.171875 -5.921875 C 10.421875 -4.078125 12.414062 -3.15625 15.15625 -3.15625 C 17.851562 -3.15625 19.832031 -4.078125 21.09375 -5.921875 C 22.363281 -7.773438 23 -10.285156 23 -13.453125 C 23 -16.617188 22.363281 -19.097656 21.09375 -20.890625 C 19.832031 -22.691406 17.832031 -23.59375 15.09375 -23.59375 C 12.363281 -23.59375 10.378906 -22.691406 9.140625 -20.890625 C 7.910156 -19.097656 7.296875 -16.617188 7.296875 -13.453125 Z M 7.296875 -13.453125 "/></g></g></g><g fill="#ffffff" fill-opacity="1"><g transform="translate(261.005777, 218.506639)"><g><path d="M 15.34375 0.5 C 12.382812 0.5 10.078125 -0.0546875 8.421875 -1.171875 C 6.773438 -2.285156 5.617188 -3.800781 4.953125 -5.71875 C 4.285156 -7.632812 3.953125 -9.78125 3.953125 -12.15625 L 3.953125 -26.796875 L 8.34375 -26.796875 L 8.34375 -12.296875 C 8.34375 -9.429688 8.925781 -7.179688 10.09375 -5.546875 C 11.257812 -3.910156 13.128906 -3.09375 15.703125 -3.09375 C 18.367188 -3.09375 20.332031 -4.039062 21.59375 -5.9375 C 22.863281 -7.84375 23.5 -10.796875 23.5 -14.796875 C 23.5 -17.128906 23.363281 -19.210938 23.09375 -21.046875 C 22.832031 -22.878906 22.453125 -24.796875 21.953125 -26.796875 L 26.34375 -26.796875 C 26.882812 -24.828125 27.285156 -22.914062 27.546875 -21.0625 C 27.816406 -19.21875 27.953125 -17.0625 27.953125 -14.59375 C 27.953125 -9.425781 26.890625 -5.617188 24.765625 -3.171875 C 22.648438 -0.722656 19.507812 0.5 15.34375 0.5 Z M 15.34375 0.5 "/></g></g></g></svg>