<svg xmlns="http://www.w3.org/2000/svg" xmlns:xlink="http://www.w3.org/1999/xlink" width="512" zoomAndPan="magnify" viewBox="0 0 384 383.999986" height="512" preserveAspectRatio="xMidYMid meet" version="1.0"><defs><g/></defs><g fill="#ffffff" fill-opacity="1"><g transform="translate(77.009766, 203.850041)"><g><path d="M 7.5 -26.949219 C 7.5 -31.347656 10.800781 -34.445312 15.199219 -34.445312 C 19.597656 -34.445312 22.898438 -31.347656 22.898438 -26.949219 C 22.898438 -22.546875 19.597656 -19.449219 15.199219 -19.449219 C 10.800781 -19.449219 7.5 -22.546875 7.5 -26.949219 Z M 26.898438 -26.949219 C 26.898438 -33.445312 21.898438 -37.996094 15.199219 -37.996094 C 8.5 -37.996094 3.5 -33.445312 3.5 -26.949219 C 3.5 -20.449219 8.5 -15.898438 15.199219 -15.898438 C 21.898438 -15.898438 26.898438 -20.449219 26.898438 -26.949219 Z M 13.648438 -11.5 L 9.550781 -11.5 L 9.550781 2.699219 L 39.445312 2.699219 L 39.445312 -0.648438 L 13.648438 -0.648438 Z M 37.445312 -27.496094 L 37.445312 -41.144531 L 33.347656 -41.144531 L 33.347656 -8.148438 L 37.445312 -8.148438 L 37.445312 -24.097656 L 44.09375 -24.097656 L 44.09375 -27.496094 Z M 37.445312 -27.496094 "/></g></g></g><g fill="#ffffff" fill-opacity="1"><g transform="translate(123.00264, 203.850041)"><g><path d="M 35.445312 -13.597656 L 39.597656 -13.597656 L 39.597656 -41.144531 L 35.445312 -41.144531 L 35.445312 -35.847656 L 22.847656 -35.847656 L 22.847656 -32.648438 L 35.445312 -32.648438 L 35.445312 -27.945312 L 22.847656 -27.945312 L 22.847656 -24.746094 L 35.445312 -24.746094 Z M 28.296875 -21.699219 C 22.296875 -20.449219 16.949219 -20.097656 9.398438 -20.097656 L 9.398438 -38.445312 L 5.347656 -38.445312 L 5.347656 -16.699219 L 8.75 -16.699219 C 16.796875 -16.699219 22.398438 -17.046875 28.796875 -18.347656 Z M 24.796875 0.449219 C 18.046875 0.449219 13.949219 -1.5 13.949219 -4.75 C 13.949219 -8.050781 18.046875 -10 24.796875 -10 C 31.546875 -10 35.644531 -8.050781 35.644531 -4.75 C 35.644531 -1.5 31.546875 0.449219 24.796875 0.449219 Z M 24.796875 -13.199219 C 15.597656 -13.199219 9.847656 -10.148438 9.847656 -4.75 C 9.847656 0.601562 15.597656 3.699219 24.796875 3.699219 C 33.996094 3.699219 39.746094 0.601562 39.746094 -4.75 C 39.746094 -10.148438 33.996094 -13.199219 24.796875 -13.199219 Z M 24.796875 -13.199219 "/></g></g></g><g fill="#ffffff" fill-opacity="1"><g transform="translate(168.995514, 203.850041)"><g><path d="M 15.796875 -9.699219 C 11.75 -9.699219 8.800781 -12.597656 8.800781 -16.597656 C 8.800781 -20.648438 11.75 -23.546875 15.796875 -23.546875 C 19.898438 -23.546875 22.847656 -20.648438 22.847656 -16.597656 C 22.847656 -12.597656 19.898438 -9.699219 15.796875 -9.699219 Z M 15.796875 -26.949219 C 9.5 -26.949219 4.949219 -22.648438 4.949219 -16.597656 C 4.949219 -10.5 9.5 -6.300781 15.796875 -6.300781 C 22.199219 -6.300781 26.746094 -10.5 26.746094 -16.597656 C 26.746094 -22.648438 22.199219 -26.949219 15.796875 -26.949219 Z M 17.796875 -40.597656 L 13.699219 -40.597656 L 13.699219 -33.945312 L 2.398438 -33.945312 L 2.398438 -30.648438 L 28.847656 -30.648438 L 28.847656 -33.945312 L 17.796875 -33.945312 Z M 44.546875 -22.699219 L 37.195312 -22.699219 L 37.195312 -41.097656 L 33.097656 -41.097656 L 33.097656 3.699219 L 37.195312 3.699219 L 37.195312 -19.25 L 44.546875 -19.25 Z M 44.546875 -22.699219 "/></g></g></g><g fill="#ffffff" fill-opacity="1"><g transform="translate(214.988388, 203.850041)"><g><path d="M 15.949219 -36.894531 L 12 -36.894531 L 12 -28.347656 C 12 -20.648438 8.300781 -12.597656 2.148438 -9 L 4.699219 -5.898438 C 9.148438 -8.648438 12.398438 -13.75 14 -19.699219 C 15.597656 -14.25 18.597656 -9.5 22.847656 -6.898438 L 25.199219 -10.097656 C 19.296875 -13.699219 15.949219 -21.296875 15.949219 -28.496094 Z M 27.746094 -25.046875 L 20.347656 -25.046875 L 20.347656 -21.648438 L 27.746094 -21.648438 L 27.746094 1.5 L 31.597656 1.5 L 31.597656 -40.144531 L 27.746094 -40.144531 Z M 36.847656 -41.144531 L 36.847656 3.699219 L 40.746094 3.699219 L 40.746094 -41.144531 Z M 36.847656 -41.144531 "/></g></g></g><g fill="#ffffff" fill-opacity="1"><g transform="translate(260.981262, 203.850041)"><g><path d="M 16.699219 -16 C 18.546875 -15.546875 20.699219 -15.296875 22.898438 -15.296875 C 25.148438 -15.296875 27.296875 -15.546875 29.195312 -16 L 29.195312 -5.449219 L 16.699219 -5.449219 Z M 22.898438 -35.097656 C 30.097656 -35.097656 35.296875 -31.796875 35.296875 -26.796875 C 35.296875 -21.796875 30.097656 -18.5 22.898438 -18.5 C 15.699219 -18.5 10.550781 -21.796875 10.550781 -26.796875 C 10.550781 -31.796875 15.699219 -35.097656 22.898438 -35.097656 Z M 33.296875 -5.449219 L 33.296875 -17.597656 C 36.996094 -19.546875 39.195312 -22.746094 39.195312 -26.796875 C 39.195312 -33.796875 32.445312 -38.296875 22.898438 -38.296875 C 13.398438 -38.296875 6.597656 -33.796875 6.597656 -26.796875 C 6.597656 -22.746094 8.847656 -19.5 12.597656 -17.546875 L 12.597656 -5.449219 L 2.601562 -5.449219 L 2.601562 -2.050781 L 43.34375 -2.050781 L 43.34375 -5.449219 Z M 33.296875 -5.449219 "/></g></g></g></svg>