<svg xmlns="http://www.w3.org/2000/svg" xmlns:xlink="http://www.w3.org/1999/xlink" width="512" zoomAndPan="magnify" viewBox="0 0 384 383.999986" height="512" preserveAspectRatio="xMidYMid meet" version="1.0"><defs><g/></defs><g fill="#ffffff" fill-opacity="1"><g transform="translate(63.134767, 218.506624)"><g><path d="M 12.453125 0.59375 C 10.679688 0.59375 9.0625 0.160156 7.59375 -0.703125 C 6.132812 -1.566406 4.976562 -2.941406 4.125 -4.828125 C 3.269531 -6.710938 2.84375 -9.15625 2.84375 -12.15625 C 2.84375 -15.71875 3.550781 -18.695312 4.96875 -21.09375 C 6.382812 -23.5 8.257812 -25.300781 10.59375 -26.5 C 12.925781 -27.695312 15.460938 -28.296875 18.203125 -28.296875 C 21.597656 -28.296875 24.34375 -27.644531 26.4375 -26.34375 C 28.539062 -25.050781 30.082031 -23.320312 31.0625 -21.15625 C 32.050781 -18.988281 32.546875 -16.601562 32.546875 -14 C 32.546875 -11.863281 32.3125 -9.960938 31.84375 -8.296875 C 31.382812 -6.628906 30.820312 -5.0625 30.15625 -3.59375 L 43.5 -3.59375 L 43.5 -27.703125 L 47.796875 -27.703125 L 47.796875 0 L 25.75 0 L 25.546875 -3.15625 C 26.316406 -4.320312 26.941406 -5.757812 27.421875 -7.46875 C 27.910156 -9.1875 28.15625 -11.179688 28.15625 -13.453125 C 28.15625 -17.015625 27.238281 -19.757812 25.40625 -21.6875 C 23.570312 -23.625 21.101562 -24.59375 18 -24.59375 C 14.9375 -24.59375 12.445312 -23.648438 10.53125 -21.765625 C 8.613281 -19.890625 7.4375 -17.46875 7 -14.5 C 7.863281 -15.0625 8.8125 -15.519531 9.84375 -15.875 C 10.882812 -16.226562 11.953125 -16.40625 13.046875 -16.40625 C 15.453125 -16.40625 17.394531 -15.671875 18.875 -14.203125 C 20.351562 -12.734375 21.09375 -10.75 21.09375 -8.25 C 21.09375 -5.476562 20.316406 -3.3125 18.765625 -1.75 C 17.222656 -0.1875 15.117188 0.59375 12.453125 0.59375 Z M 12.34375 -12.90625 C 11.34375 -12.90625 10.375 -12.695312 9.4375 -12.28125 C 8.507812 -11.863281 7.644531 -11.300781 6.84375 -10.59375 C 6.976562 -7.726562 7.59375 -5.710938 8.6875 -4.546875 C 9.789062 -3.378906 11.113281 -2.796875 12.65625 -2.796875 C 13.945312 -2.796875 14.992188 -3.21875 15.796875 -4.0625 C 16.597656 -4.914062 17 -6.144531 17 -7.75 C 17 -9.382812 16.566406 -10.648438 15.703125 -11.546875 C 14.835938 -12.453125 13.71875 -12.90625 12.34375 -12.90625 Z M 12.34375 -12.90625 "/></g></g></g><g fill="#ffffff" fill-opacity="1"><g transform="translate(115.326688, 218.506624)"><g><path d="M 12.453125 0.59375 C 10.679688 0.59375 9.0625 0.160156 7.59375 -0.703125 C 6.132812 -1.566406 4.976562 -2.941406 4.125 -4.828125 C 3.269531 -6.710938 2.84375 -9.15625 2.84375 -12.15625 C 2.84375 -15.445312 3.566406 -18.300781 5.015625 -20.71875 C 6.472656 -23.132812 8.515625 -25 11.140625 -26.3125 C 13.773438 -27.632812 16.863281 -28.296875 20.40625 -28.296875 C 22.695312 -28.296875 24.832031 -28.035156 26.8125 -27.515625 C 28.800781 -27.003906 30.726562 -26.179688 32.59375 -25.046875 C 35.632812 -27.210938 39.203125 -28.296875 43.296875 -28.296875 C 45.429688 -28.296875 47.347656 -28.03125 49.046875 -27.5 C 50.742188 -26.96875 52.34375 -26.164062 53.84375 -25.09375 C 54.78125 -25.632812 55.804688 -26.09375 56.921875 -26.46875 C 58.035156 -26.851562 59.367188 -27.15625 60.921875 -27.375 C 62.472656 -27.59375 64.382812 -27.703125 66.65625 -27.703125 L 81.546875 -27.703125 L 81.546875 -24.09375 L 73.046875 -24.09375 L 73.046875 0 L 68.75 0 L 68.75 -24.09375 L 65.5 -24.09375 C 63.726562 -24.09375 62.148438 -24 60.765625 -23.8125 C 59.390625 -23.632812 58.050781 -23.226562 56.75 -22.59375 C 58.382812 -20.96875 59.664062 -19.035156 60.59375 -16.796875 C 61.53125 -14.566406 62 -12.117188 62 -9.453125 C 62 -6.117188 61.273438 -3.609375 59.828125 -1.921875 C 58.378906 -0.242188 56.382812 0.59375 53.84375 0.59375 C 51.945312 0.59375 50.390625 0.160156 49.171875 -0.703125 C 47.953125 -1.566406 47.050781 -2.738281 46.46875 -4.21875 C 45.882812 -5.707031 45.59375 -7.398438 45.59375 -9.296875 C 45.59375 -11.828125 45.992188 -14.203125 46.796875 -16.421875 C 47.597656 -18.640625 48.929688 -20.734375 50.796875 -22.703125 C 49.597656 -23.398438 48.375 -23.898438 47.125 -24.203125 C 45.875 -24.503906 44.632812 -24.65625 43.40625 -24.65625 C 41.90625 -24.65625 40.503906 -24.507812 39.203125 -24.21875 C 37.898438 -23.9375 36.632812 -23.429688 35.40625 -22.703125 C 37.238281 -21.003906 38.671875 -19.046875 39.703125 -16.828125 C 40.734375 -14.609375 41.25 -12.148438 41.25 -9.453125 C 41.25 -6.117188 40.523438 -3.609375 39.078125 -1.921875 C 37.628906 -0.242188 35.65625 0.59375 33.15625 0.59375 C 31.21875 0.59375 29.640625 0.160156 28.421875 -0.703125 C 27.203125 -1.566406 26.300781 -2.738281 25.71875 -4.21875 C 25.132812 -5.707031 24.84375 -7.398438 24.84375 -9.296875 C 24.84375 -11.929688 25.242188 -14.378906 26.046875 -16.640625 C 26.847656 -18.910156 28.050781 -20.863281 29.65625 -22.5 C 28.21875 -23.269531 26.679688 -23.8125 25.046875 -24.125 C 23.410156 -24.4375 21.695312 -24.59375 19.90625 -24.59375 C 16.238281 -24.59375 13.300781 -23.648438 11.09375 -21.765625 C 8.894531 -19.890625 7.53125 -17.46875 7 -14.5 C 7.863281 -15.101562 8.8125 -15.570312 9.84375 -15.90625 C 10.882812 -16.238281 11.953125 -16.40625 13.046875 -16.40625 C 15.453125 -16.40625 17.394531 -15.671875 18.875 -14.203125 C 20.351562 -12.734375 21.09375 -10.75 21.09375 -8.25 C 21.09375 -5.476562 20.316406 -3.3125 18.765625 -1.75 C 17.222656 -0.1875 15.117188 0.59375 12.453125 0.59375 Z M 49.796875 -9.453125 C 49.796875 -7.148438 50.144531 -5.460938 50.84375 -4.390625 C 51.550781 -3.328125 52.503906 -2.796875 53.703125 -2.796875 C 54.765625 -2.796875 55.585938 -3.113281 56.171875 -3.75 C 56.753906 -4.382812 57.160156 -5.179688 57.390625 -6.140625 C 57.628906 -7.109375 57.75 -8.09375 57.75 -9.09375 C 57.75 -11.53125 57.335938 -13.738281 56.515625 -15.71875 C 55.703125 -17.707031 54.710938 -19.300781 53.546875 -20.5 C 52.316406 -19.300781 51.382812 -17.707031 50.75 -15.71875 C 50.113281 -13.738281 49.796875 -11.648438 49.796875 -9.453125 Z M 29.046875 -9.453125 C 29.046875 -7.148438 29.394531 -5.460938 30.09375 -4.390625 C 30.800781 -3.328125 31.769531 -2.796875 33 -2.796875 C 34.03125 -2.796875 34.835938 -3.113281 35.421875 -3.75 C 36.003906 -4.382812 36.410156 -5.179688 36.640625 -6.140625 C 36.878906 -7.109375 37 -8.09375 37 -9.09375 C 37 -11.394531 36.613281 -13.488281 35.84375 -15.375 C 35.082031 -17.257812 33.96875 -18.914062 32.5 -20.34375 C 31.226562 -18.914062 30.332031 -17.222656 29.8125 -15.265625 C 29.300781 -13.316406 29.046875 -11.378906 29.046875 -9.453125 Z M 12.34375 -12.90625 C 11.3125 -12.90625 10.335938 -12.695312 9.421875 -12.28125 C 8.503906 -11.863281 7.628906 -11.300781 6.796875 -10.59375 C 6.960938 -7.726562 7.585938 -5.710938 8.671875 -4.546875 C 9.753906 -3.378906 11.082031 -2.796875 12.65625 -2.796875 C 14.019531 -2.796875 15.082031 -3.21875 15.84375 -4.0625 C 16.613281 -4.914062 17 -6.144531 17 -7.75 C 17 -9.382812 16.566406 -10.648438 15.703125 -11.546875 C 14.835938 -12.453125 13.71875 -12.90625 12.34375 -12.90625 Z M 12.34375 -12.90625 "/></g></g></g><g fill="#ffffff" fill-opacity="1"><g transform="translate(195.464163, 218.506624)"><g><path d="M 13.046875 0.59375 C 11.015625 0.59375 9.207031 0.28125 7.625 -0.34375 C 6.039062 -0.976562 4.78125 -1.910156 3.84375 -3.140625 C 2.914062 -4.378906 2.453125 -5.863281 2.453125 -7.59375 C 2.453125 -9.332031 2.890625 -10.847656 3.765625 -12.140625 C 4.648438 -13.441406 6.0625 -14.445312 8 -15.15625 L 8 -27.703125 L 34.15625 -27.703125 L 34.15625 -24.09375 L 24.796875 -24.09375 L 24.796875 -16.40625 L 25.59375 -16.40625 C 28.195312 -16.40625 30.296875 -16.210938 31.890625 -15.828125 C 33.492188 -15.441406 34.863281 -14.816406 36 -13.953125 C 36.863281 -13.285156 37.546875 -12.410156 38.046875 -11.328125 C 38.546875 -10.242188 38.796875 -9 38.796875 -7.59375 C 38.796875 -5.0625 38.035156 -3.09375 36.515625 -1.6875 C 35.003906 -0.289062 32.863281 0.40625 30.09375 0.40625 C 29.332031 0.40625 28.5 0.351562 27.59375 0.25 C 26.695312 0.144531 25.863281 -0.0195312 25.09375 -0.25 L 26.046875 -3.59375 C 27.148438 -3.257812 28.367188 -3.09375 29.703125 -3.09375 C 32.898438 -3.09375 34.5 -4.660156 34.5 -7.796875 C 34.5 -9.328125 34.070312 -10.453125 33.21875 -11.171875 C 32.375 -11.890625 31.289062 -12.359375 29.96875 -12.578125 C 28.65625 -12.796875 27.316406 -12.90625 25.953125 -12.90625 L 24.796875 -12.90625 L 24.796875 -11.296875 C 24.796875 -9.035156 24.601562 -7.269531 24.21875 -6 C 23.84375 -4.726562 23.300781 -3.675781 22.59375 -2.84375 C 21.5625 -1.582031 20.238281 -0.691406 18.625 -0.171875 C 17.007812 0.335938 15.148438 0.59375 13.046875 0.59375 Z M 11.953125 -24.09375 L 11.953125 -16.09375 C 13.347656 -16.300781 14.894531 -16.40625 16.59375 -16.40625 L 20.546875 -16.40625 L 20.546875 -24.09375 Z M 6.75 -7.65625 C 6.75 -6.082031 7.378906 -4.910156 8.640625 -4.140625 C 9.910156 -3.378906 11.515625 -3 13.453125 -3 C 14.878906 -3 16.125 -3.210938 17.1875 -3.640625 C 18.257812 -4.078125 19.085938 -4.851562 19.671875 -5.96875 C 20.253906 -7.09375 20.546875 -8.65625 20.546875 -10.65625 L 20.546875 -12.90625 L 16.25 -12.90625 C 14.550781 -12.90625 13.109375 -12.800781 11.921875 -12.59375 C 10.742188 -12.394531 9.738281 -12.0625 8.90625 -11.59375 C 7.46875 -10.757812 6.75 -9.445312 6.75 -7.65625 Z M 21.59375 -33.90625 C 20.632812 -33.90625 19.835938 -34.210938 19.203125 -34.828125 C 18.566406 -35.441406 18.25 -36.25 18.25 -37.25 C 18.25 -38.21875 18.566406 -39.015625 19.203125 -39.640625 C 19.835938 -40.273438 20.632812 -40.59375 21.59375 -40.59375 C 22.5625 -40.59375 23.363281 -40.273438 24 -39.640625 C 24.632812 -39.015625 24.953125 -38.21875 24.953125 -37.25 C 24.953125 -36.25 24.625 -35.441406 23.96875 -34.828125 C 23.320312 -34.210938 22.53125 -33.90625 21.59375 -33.90625 Z M 21.59375 -33.90625 "/></g></g></g><g fill="#ffffff" fill-opacity="1"><g transform="translate(236.707775, 218.506624)"><g><path d="M 13.046875 0.59375 C 11.015625 0.59375 9.207031 0.28125 7.625 -0.34375 C 6.039062 -0.976562 4.78125 -1.910156 3.84375 -3.140625 C 2.914062 -4.378906 2.453125 -5.863281 2.453125 -7.59375 C 2.453125 -9.332031 2.890625 -10.847656 3.765625 -12.140625 C 4.648438 -13.441406 6.0625 -14.445312 8 -15.15625 L 8 -27.703125 L 34.15625 -27.703125 L 34.15625 -24.09375 L 24.796875 -24.09375 L 24.796875 -16.40625 L 25.59375 -16.40625 C 28.195312 -16.40625 30.296875 -16.210938 31.890625 -15.828125 C 33.492188 -15.441406 34.863281 -14.816406 36 -13.953125 C 36.863281 -13.285156 37.546875 -12.410156 38.046875 -11.328125 C 38.546875 -10.242188 38.796875 -9 38.796875 -7.59375 C 38.796875 -5.0625 38.035156 -3.09375 36.515625 -1.6875 C 35.003906 -0.289062 32.863281 0.40625 30.09375 0.40625 C 29.332031 0.40625 28.5 0.351562 27.59375 0.25 C 26.695312 0.144531 25.863281 -0.0195312 25.09375 -0.25 L 26.046875 -3.59375 C 27.148438 -3.257812 28.367188 -3.09375 29.703125 -3.09375 C 32.898438 -3.09375 34.5 -4.660156 34.5 -7.796875 C 34.5 -9.328125 34.070312 -10.453125 33.21875 -11.171875 C 32.375 -11.890625 31.289062 -12.359375 29.96875 -12.578125 C 28.65625 -12.796875 27.316406 -12.90625 25.953125 -12.90625 L 24.796875 -12.90625 L 24.796875 -11.296875 C 24.796875 -9.035156 24.601562 -7.269531 24.21875 -6 C 23.84375 -4.726562 23.300781 -3.675781 22.59375 -2.84375 C 21.5625 -1.582031 20.238281 -0.691406 18.625 -0.171875 C 17.007812 0.335938 15.148438 0.59375 13.046875 0.59375 Z M 11.953125 -24.09375 L 11.953125 -16.09375 C 13.347656 -16.300781 14.894531 -16.40625 16.59375 -16.40625 L 20.546875 -16.40625 L 20.546875 -24.09375 Z M 6.75 -7.65625 C 6.75 -6.082031 7.378906 -4.910156 8.640625 -4.140625 C 9.910156 -3.378906 11.515625 -3 13.453125 -3 C 14.878906 -3 16.125 -3.210938 17.1875 -3.640625 C 18.257812 -4.078125 19.085938 -4.851562 19.671875 -5.96875 C 20.253906 -7.09375 20.546875 -8.65625 20.546875 -10.65625 L 20.546875 -12.90625 L 16.25 -12.90625 C 14.550781 -12.90625 13.109375 -12.800781 11.921875 -12.59375 C 10.742188 -12.394531 9.738281 -12.0625 8.90625 -11.59375 C 7.46875 -10.757812 6.75 -9.445312 6.75 -7.65625 Z M 6.75 -7.65625 "/></g></g></g><g fill="#ffffff" fill-opacity="1"><g transform="translate(277.951386, 218.506624)"><g><path d="M 29 -28.296875 C 31.46875 -28.296875 33.507812 -27.65625 35.125 -26.375 C 36.738281 -25.09375 37.925781 -23.304688 38.6875 -21.015625 C 39.457031 -18.734375 39.84375 -16.09375 39.84375 -13.09375 C 39.84375 -10.757812 39.59375 -8.757812 39.09375 -7.09375 C 38.59375 -5.425781 37.796875 -4.0625 36.703125 -3 C 35.535156 -1.863281 34.109375 -1.078125 32.421875 -0.640625 C 30.742188 -0.210938 28.46875 0 25.59375 0 L 4.40625 0 L 4.40625 -27.703125 L 8.703125 -27.703125 L 8.703125 -3.59375 L 20 -3.59375 L 20 -17.75 C 20 -19.78125 20.179688 -21.410156 20.546875 -22.640625 C 20.910156 -23.878906 21.476562 -24.914062 22.25 -25.75 C 23.019531 -26.582031 23.9375 -27.210938 25 -27.640625 C 26.0625 -28.078125 27.394531 -28.296875 29 -28.296875 Z M 28.90625 -24.703125 C 28.332031 -24.703125 27.78125 -24.609375 27.25 -24.421875 C 26.71875 -24.242188 26.269531 -23.953125 25.90625 -23.546875 C 25.363281 -22.953125 24.957031 -22.210938 24.6875 -21.328125 C 24.425781 -20.441406 24.296875 -18.96875 24.296875 -16.90625 L 24.296875 -3.59375 L 26.65625 -3.59375 C 28.882812 -3.59375 30.640625 -3.910156 31.921875 -4.546875 C 33.203125 -5.179688 34.109375 -6.210938 34.640625 -7.640625 C 35.179688 -9.078125 35.453125 -10.976562 35.453125 -13.34375 C 35.453125 -15.445312 35.222656 -17.359375 34.765625 -19.078125 C 34.316406 -20.796875 33.609375 -22.160156 32.640625 -23.171875 C 31.679688 -24.191406 30.4375 -24.703125 28.90625 -24.703125 Z M 21.5 -33.90625 C 20.539062 -33.90625 19.742188 -34.210938 19.109375 -34.828125 C 18.472656 -35.441406 18.15625 -36.25 18.15625 -37.25 C 18.15625 -38.21875 18.472656 -39.015625 19.109375 -39.640625 C 19.742188 -40.273438 20.539062 -40.59375 21.5 -40.59375 C 22.46875 -40.59375 23.269531 -40.273438 23.90625 -39.640625 C 24.539062 -39.015625 24.859375 -38.21875 24.859375 -37.25 C 24.859375 -36.25 24.53125 -35.441406 23.875 -34.828125 C 23.226562 -34.210938 22.4375 -33.90625 21.5 -33.90625 Z M 21.5 -33.90625 "/></g></g></g></svg>