<svg xmlns="http://www.w3.org/2000/svg" xmlns:xlink="http://www.w3.org/1999/xlink" width="512" zoomAndPan="magnify" viewBox="0 0 384 383.999986" height="512" preserveAspectRatio="xMidYMid meet" version="1.0"><defs><g/></defs><g fill="#ffffff" fill-opacity="1"><g transform="translate(64.359377, 218.506639)"><g><path d="M 35.203125 -31.25 C 35.296875 -31.25 35.34375 -31.148438 35.34375 -30.953125 C 35.34375 -30.753906 35.296875 -30.65625 35.203125 -30.65625 C 33.796875 -30.65625 32.773438 -30.269531 32.140625 -29.5 C 31.515625 -28.726562 31.203125 -27.476562 31.203125 -25.75 L 31.203125 0.59375 C 31.203125 0.664062 31.117188 0.71875 30.953125 0.75 C 30.785156 0.78125 30.664062 0.765625 30.59375 0.703125 L 7.59375 -27.15625 L 7.15625 -27.65625 L 7.15625 -5.453125 C 7.15625 -3.710938 7.460938 -2.46875 8.078125 -1.71875 C 8.691406 -0.96875 9.679688 -0.59375 11.046875 -0.59375 C 11.148438 -0.59375 11.203125 -0.492188 11.203125 -0.296875 C 11.203125 -0.0976562 11.148438 0 11.046875 0 C 10.210938 0 9.582031 -0.015625 9.15625 -0.046875 L 6.65625 -0.09375 L 4.09375 -0.046875 C 3.632812 -0.015625 2.953125 0 2.046875 0 C 1.984375 0 1.953125 -0.0976562 1.953125 -0.296875 C 1.953125 -0.492188 1.984375 -0.59375 2.046875 -0.59375 C 3.484375 -0.59375 4.5 -0.96875 5.09375 -1.71875 C 5.695312 -2.46875 6 -3.710938 6 -5.453125 L 6 -28.84375 C 4.695312 -30.050781 3.378906 -30.65625 2.046875 -30.65625 C 1.953125 -30.65625 1.90625 -30.753906 1.90625 -30.953125 C 1.90625 -31.148438 1.953125 -31.25 2.046875 -31.25 L 3.90625 -31.203125 C 4.300781 -31.171875 4.847656 -31.15625 5.546875 -31.15625 C 6.285156 -31.15625 6.882812 -31.171875 7.34375 -31.203125 C 7.8125 -31.234375 8.179688 -31.25 8.453125 -31.25 C 8.710938 -31.25 8.898438 -31.191406 9.015625 -31.078125 C 9.140625 -30.960938 9.332031 -30.703125 9.59375 -30.296875 C 10 -29.703125 10.398438 -29.15625 10.796875 -28.65625 L 30.046875 -5 L 30.046875 -25.75 C 30.046875 -27.476562 29.753906 -28.726562 29.171875 -29.5 C 28.585938 -30.269531 27.613281 -30.65625 26.25 -30.65625 C 26.1875 -30.65625 26.15625 -30.753906 26.15625 -30.953125 C 26.15625 -31.148438 26.1875 -31.25 26.25 -31.25 L 28.203125 -31.203125 C 29.203125 -31.128906 30.019531 -31.09375 30.65625 -31.09375 C 31.25 -31.09375 32.082031 -31.128906 33.15625 -31.203125 Z M 35.203125 -31.25 "/></g></g></g><g fill="#ffffff" fill-opacity="1"><g transform="translate(100.703749, 218.506639)"><g><path d="M 20.75 -2.703125 C 20.882812 -2.703125 20.96875 -2.625 21 -2.46875 C 21.03125 -2.320312 20.976562 -2.21875 20.84375 -2.15625 L 15.703125 0.296875 C 15.566406 0.367188 15.429688 0.40625 15.296875 0.40625 C 14.867188 0.40625 14.488281 0.113281 14.15625 -0.46875 C 13.820312 -1.050781 13.601562 -1.84375 13.5 -2.84375 L 10.90625 -1.15625 C 10.070312 -0.613281 9.335938 -0.226562 8.703125 0 C 8.066406 0.226562 7.398438 0.34375 6.703125 0.34375 C 5.460938 0.34375 4.5 0.0195312 3.8125 -0.625 C 3.132812 -1.269531 2.796875 -2.09375 2.796875 -3.09375 C 2.796875 -4.09375 3.195312 -4.957031 4 -5.6875 C 4.800781 -6.425781 6.117188 -7.128906 7.953125 -7.796875 L 13.453125 -9.84375 L 13.453125 -13.25 C 13.453125 -16.976562 12.398438 -18.84375 10.296875 -18.84375 C 9.160156 -18.84375 8.300781 -18.46875 7.71875 -17.71875 C 7.132812 -16.96875 6.742188 -16.113281 6.546875 -15.15625 C 6.453125 -14.550781 6.269531 -14.054688 6 -13.671875 C 5.726562 -13.285156 5.28125 -13.09375 4.65625 -13.09375 C 4.113281 -13.09375 3.703125 -13.242188 3.421875 -13.546875 C 3.140625 -13.847656 3 -14.195312 3 -14.59375 C 3 -15.394531 3.515625 -16.195312 4.546875 -17 C 5.578125 -17.800781 6.8125 -18.46875 8.25 -19 C 9.6875 -19.53125 10.96875 -19.796875 12.09375 -19.796875 C 13.46875 -19.796875 14.503906 -19.363281 15.203125 -18.5 C 15.898438 -17.632812 16.25 -16.382812 16.25 -14.75 L 16.25 -5.40625 C 16.25 -4.238281 16.398438 -3.382812 16.703125 -2.84375 C 17.003906 -2.3125 17.503906 -2.046875 18.203125 -2.046875 C 18.835938 -2.046875 19.65625 -2.265625 20.65625 -2.703125 Z M 13.453125 -3.546875 L 13.453125 -9.15625 L 8.796875 -7.34375 C 7.867188 -6.976562 7.195312 -6.550781 6.78125 -6.0625 C 6.363281 -5.582031 6.15625 -5.007812 6.15625 -4.34375 C 6.15625 -3.550781 6.410156 -2.878906 6.921875 -2.328125 C 7.441406 -1.773438 8.117188 -1.5 8.953125 -1.5 C 9.617188 -1.5 10.414062 -1.765625 11.34375 -2.296875 Z M 13.453125 -3.546875 "/></g></g></g><g fill="#ffffff" fill-opacity="1"><g transform="translate(121.650509, 218.506639)"><g><path d="M 37.09375 -0.59375 C 37.226562 -0.59375 37.296875 -0.492188 37.296875 -0.296875 C 37.296875 -0.0976562 37.226562 0 37.09375 0 C 36.332031 0 35.71875 -0.015625 35.25 -0.046875 L 32.546875 -0.09375 L 29.84375 -0.046875 C 29.382812 -0.015625 28.769531 0 28 0 C 27.894531 0 27.84375 -0.0976562 27.84375 -0.296875 C 27.84375 -0.492188 27.894531 -0.59375 28 -0.59375 C 28.894531 -0.59375 29.5625 -0.6875 30 -0.875 C 30.4375 -1.0625 30.738281 -1.394531 30.90625 -1.875 C 31.070312 -2.351562 31.15625 -3.078125 31.15625 -4.046875 L 31.15625 -12 C 31.15625 -13.96875 30.800781 -15.425781 30.09375 -16.375 C 29.394531 -17.320312 28.3125 -17.796875 26.84375 -17.796875 C 25.84375 -17.796875 24.832031 -17.519531 23.8125 -16.96875 C 22.800781 -16.425781 21.863281 -15.65625 21 -14.65625 C 21.03125 -14.488281 21.046875 -14.21875 21.046875 -13.84375 L 21.046875 -4.046875 C 21.046875 -3.046875 21.128906 -2.3125 21.296875 -1.84375 C 21.460938 -1.382812 21.757812 -1.0625 22.1875 -0.875 C 22.625 -0.6875 23.296875 -0.59375 24.203125 -0.59375 C 24.296875 -0.59375 24.34375 -0.492188 24.34375 -0.296875 C 24.34375 -0.0976562 24.296875 0 24.203125 0 C 23.429688 0 22.8125 -0.015625 22.34375 -0.046875 L 19.65625 -0.09375 L 16.90625 -0.046875 C 16.46875 -0.015625 15.863281 0 15.09375 0 C 15 0 14.953125 -0.0976562 14.953125 -0.296875 C 14.953125 -0.492188 15 -0.59375 15.09375 -0.59375 C 16 -0.59375 16.664062 -0.6875 17.09375 -0.875 C 17.53125 -1.0625 17.820312 -1.382812 17.96875 -1.84375 C 18.125 -2.3125 18.203125 -3.046875 18.203125 -4.046875 L 18.203125 -12 C 18.203125 -13.96875 17.847656 -15.425781 17.140625 -16.375 C 16.441406 -17.320312 15.378906 -17.796875 13.953125 -17.796875 C 12.953125 -17.796875 11.953125 -17.53125 10.953125 -17 C 9.953125 -16.46875 9.035156 -15.71875 8.203125 -14.75 L 8.203125 -4.046875 C 8.203125 -3.046875 8.273438 -2.3125 8.421875 -1.84375 C 8.578125 -1.382812 8.867188 -1.0625 9.296875 -0.875 C 9.734375 -0.6875 10.398438 -0.59375 11.296875 -0.59375 C 11.398438 -0.59375 11.453125 -0.492188 11.453125 -0.296875 C 11.453125 -0.0976562 11.398438 0 11.296875 0 C 10.535156 0 9.9375 -0.015625 9.5 -0.046875 L 6.796875 -0.09375 L 4.046875 -0.046875 C 3.617188 -0.015625 3.019531 0 2.25 0 C 2.144531 0 2.09375 -0.0976562 2.09375 -0.296875 C 2.09375 -0.492188 2.144531 -0.59375 2.25 -0.59375 C 3.144531 -0.59375 3.8125 -0.6875 4.25 -0.875 C 4.6875 -1.0625 4.976562 -1.382812 5.125 -1.84375 C 5.269531 -2.3125 5.34375 -3.046875 5.34375 -4.046875 L 5.34375 -13.953125 C 5.34375 -15.085938 5.207031 -15.90625 4.9375 -16.40625 C 4.675781 -16.90625 4.226562 -17.15625 3.59375 -17.15625 C 3.0625 -17.15625 2.164062 -16.90625 0.90625 -16.40625 L 0.796875 -16.40625 C 0.660156 -16.40625 0.566406 -16.476562 0.515625 -16.625 C 0.472656 -16.769531 0.519531 -16.878906 0.65625 -16.953125 L 6.453125 -19.703125 L 6.75 -19.75 C 7.050781 -19.75 7.367188 -19.363281 7.703125 -18.59375 C 8.035156 -17.832031 8.203125 -16.851562 8.203125 -15.65625 L 8.203125 -15.59375 C 9.398438 -17.0625 10.597656 -18.128906 11.796875 -18.796875 C 12.992188 -19.460938 14.242188 -19.796875 15.546875 -19.796875 C 17.046875 -19.796875 18.257812 -19.425781 19.1875 -18.6875 C 20.125 -17.957031 20.710938 -16.863281 20.953125 -15.40625 C 22.179688 -16.90625 23.410156 -18.007812 24.640625 -18.71875 C 25.878906 -19.4375 27.164062 -19.796875 28.5 -19.796875 C 30.269531 -19.796875 31.628906 -19.285156 32.578125 -18.265625 C 33.523438 -17.253906 34 -15.75 34 -13.75 L 34 -4.046875 C 34 -3.046875 34.070312 -2.3125 34.21875 -1.84375 C 34.375 -1.382812 34.664062 -1.0625 35.09375 -0.875 C 35.53125 -0.6875 36.195312 -0.59375 37.09375 -0.59375 Z M 37.09375 -0.59375 "/></g></g></g><g fill="#ffffff" fill-opacity="1"><g transform="translate(159.794602, 218.506639)"><g><path d="M 20.75 -2.703125 C 20.882812 -2.703125 20.96875 -2.625 21 -2.46875 C 21.03125 -2.320312 20.976562 -2.21875 20.84375 -2.15625 L 15.703125 0.296875 C 15.566406 0.367188 15.429688 0.40625 15.296875 0.40625 C 14.867188 0.40625 14.488281 0.113281 14.15625 -0.46875 C 13.820312 -1.050781 13.601562 -1.84375 13.5 -2.84375 L 10.90625 -1.15625 C 10.070312 -0.613281 9.335938 -0.226562 8.703125 0 C 8.066406 0.226562 7.398438 0.34375 6.703125 0.34375 C 5.460938 0.34375 4.5 0.0195312 3.8125 -0.625 C 3.132812 -1.269531 2.796875 -2.09375 2.796875 -3.09375 C 2.796875 -4.09375 3.195312 -4.957031 4 -5.6875 C 4.800781 -6.425781 6.117188 -7.128906 7.953125 -7.796875 L 13.453125 -9.84375 L 13.453125 -13.25 C 13.453125 -16.976562 12.398438 -18.84375 10.296875 -18.84375 C 9.160156 -18.84375 8.300781 -18.46875 7.71875 -17.71875 C 7.132812 -16.96875 6.742188 -16.113281 6.546875 -15.15625 C 6.453125 -14.550781 6.269531 -14.054688 6 -13.671875 C 5.726562 -13.285156 5.28125 -13.09375 4.65625 -13.09375 C 4.113281 -13.09375 3.703125 -13.242188 3.421875 -13.546875 C 3.140625 -13.847656 3 -14.195312 3 -14.59375 C 3 -15.394531 3.515625 -16.195312 4.546875 -17 C 5.578125 -17.800781 6.8125 -18.46875 8.25 -19 C 9.6875 -19.53125 10.96875 -19.796875 12.09375 -19.796875 C 13.46875 -19.796875 14.503906 -19.363281 15.203125 -18.5 C 15.898438 -17.632812 16.25 -16.382812 16.25 -14.75 L 16.25 -5.40625 C 16.25 -4.238281 16.398438 -3.382812 16.703125 -2.84375 C 17.003906 -2.3125 17.503906 -2.046875 18.203125 -2.046875 C 18.835938 -2.046875 19.65625 -2.265625 20.65625 -2.703125 Z M 13.453125 -3.546875 L 13.453125 -9.15625 L 8.796875 -7.34375 C 7.867188 -6.976562 7.195312 -6.550781 6.78125 -6.0625 C 6.363281 -5.582031 6.15625 -5.007812 6.15625 -4.34375 C 6.15625 -3.550781 6.410156 -2.878906 6.921875 -2.328125 C 7.441406 -1.773438 8.117188 -1.5 8.953125 -1.5 C 9.617188 -1.5 10.414062 -1.765625 11.34375 -2.296875 Z M 13.453125 -3.546875 "/></g></g></g><g fill="#ffffff" fill-opacity="1"><g transform="translate(180.741363, 218.506639)"><g><path d="M 5.046875 -16.25 C 5.046875 -15.082031 5.425781 -14.15625 6.1875 -13.46875 C 6.957031 -12.789062 8.078125 -12.066406 9.546875 -11.296875 C 10.710938 -10.703125 11.617188 -10.1875 12.265625 -9.75 C 12.921875 -9.3125 13.484375 -8.742188 13.953125 -8.046875 C 14.421875 -7.347656 14.65625 -6.5 14.65625 -5.5 C 14.65625 -3.800781 14.019531 -2.367188 12.75 -1.203125 C 11.476562 -0.0351562 9.757812 0.546875 7.59375 0.546875 C 5.832031 0.546875 4.234375 0.046875 2.796875 -0.953125 C 2.597656 -1.085938 2.5 -1.285156 2.5 -1.546875 L 2.40625 -5.453125 C 2.40625 -5.546875 2.492188 -5.601562 2.671875 -5.625 C 2.859375 -5.644531 2.96875 -5.601562 3 -5.5 C 3.632812 -3.832031 4.457031 -2.566406 5.46875 -1.703125 C 6.488281 -0.835938 7.664062 -0.40625 9 -0.40625 C 10.101562 -0.40625 10.9375 -0.671875 11.5 -1.203125 C 12.0625 -1.734375 12.3125 -2.515625 12.25 -3.546875 C 12.21875 -4.816406 11.828125 -5.789062 11.078125 -6.46875 C 10.328125 -7.15625 9.203125 -7.863281 7.703125 -8.59375 C 6.597656 -9.132812 5.71875 -9.617188 5.0625 -10.046875 C 4.414062 -10.484375 3.867188 -11.050781 3.421875 -11.75 C 2.972656 -12.445312 2.75 -13.3125 2.75 -14.34375 C 2.75 -16.144531 3.421875 -17.519531 4.765625 -18.46875 C 6.117188 -19.425781 7.710938 -19.90625 9.546875 -19.90625 C 10.878906 -19.90625 12.097656 -19.65625 13.203125 -19.15625 C 13.398438 -19.082031 13.523438 -19.003906 13.578125 -18.921875 C 13.628906 -18.835938 13.65625 -18.726562 13.65625 -18.59375 C 13.65625 -17.925781 13.632812 -17.410156 13.59375 -17.046875 L 13.546875 -14.953125 C 13.546875 -14.878906 13.445312 -14.84375 13.25 -14.84375 C 13.050781 -14.84375 12.953125 -14.878906 12.953125 -14.953125 C 12.953125 -15.648438 12.679688 -16.304688 12.140625 -16.921875 C 11.609375 -17.535156 10.941406 -18.023438 10.140625 -18.390625 C 9.347656 -18.765625 8.550781 -18.953125 7.75 -18.953125 C 6.914062 -18.953125 6.253906 -18.722656 5.765625 -18.265625 C 5.285156 -17.816406 5.046875 -17.144531 5.046875 -16.25 Z M 5.046875 -16.25 "/></g></g></g><g fill="#ffffff" fill-opacity="1"><g transform="translate(197.638746, 218.506639)"><g><path d="M 24.15625 -0.59375 C 24.25 -0.59375 24.296875 -0.492188 24.296875 -0.296875 C 24.296875 -0.0976562 24.25 0 24.15625 0 C 23.382812 0 22.765625 -0.015625 22.296875 -0.046875 L 19.59375 -0.09375 L 16 -0.046875 C 15.46875 -0.015625 14.75 0 13.84375 0 C 13.78125 0 13.75 -0.0976562 13.75 -0.296875 C 13.75 -0.492188 13.78125 -0.59375 13.84375 -0.59375 C 15.507812 -0.59375 16.34375 -0.910156 16.34375 -1.546875 C 16.34375 -1.847656 16.195312 -2.21875 15.90625 -2.65625 L 9.75 -11 L 7.25 -9.046875 L 7.25 -4.046875 C 7.25 -3.078125 7.332031 -2.351562 7.5 -1.875 C 7.664062 -1.394531 7.960938 -1.0625 8.390625 -0.875 C 8.828125 -0.6875 9.5 -0.59375 10.40625 -0.59375 C 10.5 -0.59375 10.546875 -0.492188 10.546875 -0.296875 C 10.546875 -0.0976562 10.5 0 10.40625 0 C 9.632812 0 9.015625 -0.015625 8.546875 -0.046875 L 5.84375 -0.09375 L 3.15625 -0.046875 C 2.6875 -0.015625 2.066406 0 1.296875 0 C 1.203125 0 1.15625 -0.0976562 1.15625 -0.296875 C 1.15625 -0.492188 1.203125 -0.59375 1.296875 -0.59375 C 2.203125 -0.59375 2.867188 -0.6875 3.296875 -0.875 C 3.734375 -1.0625 4.035156 -1.394531 4.203125 -1.875 C 4.367188 -2.351562 4.453125 -3.078125 4.453125 -4.046875 L 4.453125 -29.90625 C 4.453125 -31.101562 4.332031 -31.96875 4.09375 -32.5 C 3.863281 -33.03125 3.445312 -33.296875 2.84375 -33.296875 C 2.34375 -33.296875 1.578125 -33.0625 0.546875 -32.59375 L 0.453125 -32.59375 C 0.347656 -32.59375 0.257812 -32.675781 0.1875 -32.84375 C 0.125 -33.007812 0.160156 -33.113281 0.296875 -33.15625 L 6.546875 -36.203125 L 6.796875 -36.25 C 6.898438 -36.25 7 -36.207031 7.09375 -36.125 C 7.195312 -36.039062 7.25 -35.945312 7.25 -35.84375 L 7.25 -9.84375 L 13.953125 -15.25 C 15.015625 -16.082031 15.546875 -16.816406 15.546875 -17.453125 C 15.546875 -18.285156 14.597656 -18.703125 12.703125 -18.703125 C 12.597656 -18.703125 12.546875 -18.800781 12.546875 -19 C 12.546875 -19.195312 12.597656 -19.296875 12.703125 -19.296875 C 13.597656 -19.296875 14.28125 -19.28125 14.75 -19.25 L 18.40625 -19.203125 L 21.75 -19.25 C 22.1875 -19.28125 22.785156 -19.296875 23.546875 -19.296875 C 23.648438 -19.296875 23.703125 -19.195312 23.703125 -19 C 23.703125 -18.800781 23.648438 -18.703125 23.546875 -18.703125 C 22.316406 -18.703125 20.953125 -18.398438 19.453125 -17.796875 C 17.953125 -17.203125 16.453125 -16.300781 14.953125 -15.09375 L 12.046875 -12.796875 L 18.40625 -4.046875 C 20.070312 -1.742188 21.988281 -0.59375 24.15625 -0.59375 Z M 24.15625 -0.59375 "/></g></g></g><g fill="#ffffff" fill-opacity="1"><g transform="translate(222.184947, 218.506639)"><g><path d="M 20.75 -2.703125 C 20.882812 -2.703125 20.96875 -2.625 21 -2.46875 C 21.03125 -2.320312 20.976562 -2.21875 20.84375 -2.15625 L 15.703125 0.296875 C 15.566406 0.367188 15.429688 0.40625 15.296875 0.40625 C 14.867188 0.40625 14.488281 0.113281 14.15625 -0.46875 C 13.820312 -1.050781 13.601562 -1.84375 13.5 -2.84375 L 10.90625 -1.15625 C 10.070312 -0.613281 9.335938 -0.226562 8.703125 0 C 8.066406 0.226562 7.398438 0.34375 6.703125 0.34375 C 5.460938 0.34375 4.5 0.0195312 3.8125 -0.625 C 3.132812 -1.269531 2.796875 -2.09375 2.796875 -3.09375 C 2.796875 -4.09375 3.195312 -4.957031 4 -5.6875 C 4.800781 -6.425781 6.117188 -7.128906 7.953125 -7.796875 L 13.453125 -9.84375 L 13.453125 -13.25 C 13.453125 -16.976562 12.398438 -18.84375 10.296875 -18.84375 C 9.160156 -18.84375 8.300781 -18.46875 7.71875 -17.71875 C 7.132812 -16.96875 6.742188 -16.113281 6.546875 -15.15625 C 6.453125 -14.550781 6.269531 -14.054688 6 -13.671875 C 5.726562 -13.285156 5.28125 -13.09375 4.65625 -13.09375 C 4.113281 -13.09375 3.703125 -13.242188 3.421875 -13.546875 C 3.140625 -13.847656 3 -14.195312 3 -14.59375 C 3 -15.394531 3.515625 -16.195312 4.546875 -17 C 5.578125 -17.800781 6.8125 -18.46875 8.25 -19 C 9.6875 -19.53125 10.96875 -19.796875 12.09375 -19.796875 C 13.46875 -19.796875 14.503906 -19.363281 15.203125 -18.5 C 15.898438 -17.632812 16.25 -16.382812 16.25 -14.75 L 16.25 -5.40625 C 16.25 -4.238281 16.398438 -3.382812 16.703125 -2.84375 C 17.003906 -2.3125 17.503906 -2.046875 18.203125 -2.046875 C 18.835938 -2.046875 19.65625 -2.265625 20.65625 -2.703125 Z M 13.453125 -3.546875 L 13.453125 -9.15625 L 8.796875 -7.34375 C 7.867188 -6.976562 7.195312 -6.550781 6.78125 -6.0625 C 6.363281 -5.582031 6.15625 -5.007812 6.15625 -4.34375 C 6.15625 -3.550781 6.410156 -2.878906 6.921875 -2.328125 C 7.441406 -1.773438 8.117188 -1.5 8.953125 -1.5 C 9.617188 -1.5 10.414062 -1.765625 11.34375 -2.296875 Z M 13.453125 -3.546875 "/></g></g></g><g fill="#ffffff" fill-opacity="1"><g transform="translate(243.131708, 218.506639)"><g><path d="M 13.75 -19.75 C 14.476562 -19.75 15.175781 -19.546875 15.84375 -19.140625 C 16.507812 -18.742188 16.84375 -18.265625 16.84375 -17.703125 C 16.84375 -17.265625 16.703125 -16.894531 16.421875 -16.59375 C 16.140625 -16.300781 15.734375 -16.15625 15.203125 -16.15625 C 14.898438 -16.15625 14.640625 -16.210938 14.421875 -16.328125 C 14.203125 -16.441406 13.945312 -16.613281 13.65625 -16.84375 C 13.351562 -17.113281 13.066406 -17.316406 12.796875 -17.453125 C 12.535156 -17.585938 12.21875 -17.65625 11.84375 -17.65625 C 11.414062 -17.65625 10.957031 -17.46875 10.46875 -17.09375 C 9.988281 -16.726562 9.234375 -15.945312 8.203125 -14.75 L 8.203125 -4.046875 C 8.203125 -3.046875 8.328125 -2.3125 8.578125 -1.84375 C 8.828125 -1.382812 9.285156 -1.0625 9.953125 -0.875 C 10.617188 -0.6875 11.648438 -0.59375 13.046875 -0.59375 C 13.179688 -0.59375 13.25 -0.492188 13.25 -0.296875 C 13.25 -0.0976562 13.179688 0 13.046875 0 C 11.984375 0 11.132812 -0.015625 10.5 -0.046875 L 6.796875 -0.09375 L 4.046875 -0.046875 C 3.617188 -0.015625 3.019531 0 2.25 0 C 2.144531 0 2.09375 -0.0976562 2.09375 -0.296875 C 2.09375 -0.492188 2.144531 -0.59375 2.25 -0.59375 C 3.144531 -0.59375 3.8125 -0.6875 4.25 -0.875 C 4.6875 -1.0625 4.976562 -1.382812 5.125 -1.84375 C 5.269531 -2.3125 5.34375 -3.046875 5.34375 -4.046875 L 5.34375 -13.953125 C 5.34375 -15.085938 5.207031 -15.90625 4.9375 -16.40625 C 4.675781 -16.90625 4.226562 -17.15625 3.59375 -17.15625 C 3.0625 -17.15625 2.164062 -16.90625 0.90625 -16.40625 L 0.796875 -16.40625 C 0.660156 -16.40625 0.566406 -16.476562 0.515625 -16.625 C 0.472656 -16.769531 0.519531 -16.878906 0.65625 -16.953125 L 6.453125 -19.703125 L 6.75 -19.75 C 7.050781 -19.75 7.367188 -19.363281 7.703125 -18.59375 C 8.035156 -17.832031 8.203125 -16.851562 8.203125 -15.65625 L 8.203125 -15.59375 C 9.566406 -17.195312 10.648438 -18.289062 11.453125 -18.875 C 12.253906 -19.457031 13.019531 -19.75 13.75 -19.75 Z M 13.75 -19.75 "/></g></g></g><g fill="#ffffff" fill-opacity="1"><g transform="translate(260.528969, 218.506639)"><g><path d="M 20.75 -2.703125 C 20.882812 -2.703125 20.96875 -2.625 21 -2.46875 C 21.03125 -2.320312 20.976562 -2.21875 20.84375 -2.15625 L 15.703125 0.296875 C 15.566406 0.367188 15.429688 0.40625 15.296875 0.40625 C 14.867188 0.40625 14.488281 0.113281 14.15625 -0.46875 C 13.820312 -1.050781 13.601562 -1.84375 13.5 -2.84375 L 10.90625 -1.15625 C 10.070312 -0.613281 9.335938 -0.226562 8.703125 0 C 8.066406 0.226562 7.398438 0.34375 6.703125 0.34375 C 5.460938 0.34375 4.5 0.0195312 3.8125 -0.625 C 3.132812 -1.269531 2.796875 -2.09375 2.796875 -3.09375 C 2.796875 -4.09375 3.195312 -4.957031 4 -5.6875 C 4.800781 -6.425781 6.117188 -7.128906 7.953125 -7.796875 L 13.453125 -9.84375 L 13.453125 -13.25 C 13.453125 -16.976562 12.398438 -18.84375 10.296875 -18.84375 C 9.160156 -18.84375 8.300781 -18.46875 7.71875 -17.71875 C 7.132812 -16.96875 6.742188 -16.113281 6.546875 -15.15625 C 6.453125 -14.550781 6.269531 -14.054688 6 -13.671875 C 5.726562 -13.285156 5.28125 -13.09375 4.65625 -13.09375 C 4.113281 -13.09375 3.703125 -13.242188 3.421875 -13.546875 C 3.140625 -13.847656 3 -14.195312 3 -14.59375 C 3 -15.394531 3.515625 -16.195312 4.546875 -17 C 5.578125 -17.800781 6.8125 -18.46875 8.25 -19 C 9.6875 -19.53125 10.96875 -19.796875 12.09375 -19.796875 C 13.46875 -19.796875 14.503906 -19.363281 15.203125 -18.5 C 15.898438 -17.632812 16.25 -16.382812 16.25 -14.75 L 16.25 -5.40625 C 16.25 -4.238281 16.398438 -3.382812 16.703125 -2.84375 C 17.003906 -2.3125 17.503906 -2.046875 18.203125 -2.046875 C 18.835938 -2.046875 19.65625 -2.265625 20.65625 -2.703125 Z M 13.453125 -3.546875 L 13.453125 -9.15625 L 8.796875 -7.34375 C 7.867188 -6.976562 7.195312 -6.550781 6.78125 -6.0625 C 6.363281 -5.582031 6.15625 -5.007812 6.15625 -4.34375 C 6.15625 -3.550781 6.410156 -2.878906 6.921875 -2.328125 C 7.441406 -1.773438 8.117188 -1.5 8.953125 -1.5 C 9.617188 -1.5 10.414062 -1.765625 11.34375 -2.296875 Z M 13.453125 -3.546875 "/></g></g></g><g fill="#ffffff" fill-opacity="1"><g transform="translate(281.475729, 218.506639)"><g><path d="M 37.09375 -0.59375 C 37.226562 -0.59375 37.296875 -0.492188 37.296875 -0.296875 C 37.296875 -0.0976562 37.226562 0 37.09375 0 C 36.332031 0 35.71875 -0.015625 35.25 -0.046875 L 32.546875 -0.09375 L 29.84375 -0.046875 C 29.382812 -0.015625 28.769531 0 28 0 C 27.894531 0 27.84375 -0.0976562 27.84375 -0.296875 C 27.84375 -0.492188 27.894531 -0.59375 28 -0.59375 C 28.894531 -0.59375 29.5625 -0.6875 30 -0.875 C 30.4375 -1.0625 30.738281 -1.394531 30.90625 -1.875 C 31.070312 -2.351562 31.15625 -3.078125 31.15625 -4.046875 L 31.15625 -12 C 31.15625 -13.96875 30.800781 -15.425781 30.09375 -16.375 C 29.394531 -17.320312 28.3125 -17.796875 26.84375 -17.796875 C 25.84375 -17.796875 24.832031 -17.519531 23.8125 -16.96875 C 22.800781 -16.425781 21.863281 -15.65625 21 -14.65625 C 21.03125 -14.488281 21.046875 -14.21875 21.046875 -13.84375 L 21.046875 -4.046875 C 21.046875 -3.046875 21.128906 -2.3125 21.296875 -1.84375 C 21.460938 -1.382812 21.757812 -1.0625 22.1875 -0.875 C 22.625 -0.6875 23.296875 -0.59375 24.203125 -0.59375 C 24.296875 -0.59375 24.34375 -0.492188 24.34375 -0.296875 C 24.34375 -0.0976562 24.296875 0 24.203125 0 C 23.429688 0 22.8125 -0.015625 22.34375 -0.046875 L 19.65625 -0.09375 L 16.90625 -0.046875 C 16.46875 -0.015625 15.863281 0 15.09375 0 C 15 0 14.953125 -0.0976562 14.953125 -0.296875 C 14.953125 -0.492188 15 -0.59375 15.09375 -0.59375 C 16 -0.59375 16.664062 -0.6875 17.09375 -0.875 C 17.53125 -1.0625 17.820312 -1.382812 17.96875 -1.84375 C 18.125 -2.3125 18.203125 -3.046875 18.203125 -4.046875 L 18.203125 -12 C 18.203125 -13.96875 17.847656 -15.425781 17.140625 -16.375 C 16.441406 -17.320312 15.378906 -17.796875 13.953125 -17.796875 C 12.953125 -17.796875 11.953125 -17.53125 10.953125 -17 C 9.953125 -16.46875 9.035156 -15.71875 8.203125 -14.75 L 8.203125 -4.046875 C 8.203125 -3.046875 8.273438 -2.3125 8.421875 -1.84375 C 8.578125 -1.382812 8.867188 -1.0625 9.296875 -0.875 C 9.734375 -0.6875 10.398438 -0.59375 11.296875 -0.59375 C 11.398438 -0.59375 11.453125 -0.492188 11.453125 -0.296875 C 11.453125 -0.0976562 11.398438 0 11.296875 0 C 10.535156 0 9.9375 -0.015625 9.5 -0.046875 L 6.796875 -0.09375 L 4.046875 -0.046875 C 3.617188 -0.015625 3.019531 0 2.25 0 C 2.144531 0 2.09375 -0.0976562 2.09375 -0.296875 C 2.09375 -0.492188 2.144531 -0.59375 2.25 -0.59375 C 3.144531 -0.59375 3.8125 -0.6875 4.25 -0.875 C 4.6875 -1.0625 4.976562 -1.382812 5.125 -1.84375 C 5.269531 -2.3125 5.34375 -3.046875 5.34375 -4.046875 L 5.34375 -13.953125 C 5.34375 -15.085938 5.207031 -15.90625 4.9375 -16.40625 C 4.675781 -16.90625 4.226562 -17.15625 3.59375 -17.15625 C 3.0625 -17.15625 2.164062 -16.90625 0.90625 -16.40625 L 0.796875 -16.40625 C 0.660156 -16.40625 0.566406 -16.476562 0.515625 -16.625 C 0.472656 -16.769531 0.519531 -16.878906 0.65625 -16.953125 L 6.453125 -19.703125 L 6.75 -19.75 C 7.050781 -19.75 7.367188 -19.363281 7.703125 -18.59375 C 8.035156 -17.832031 8.203125 -16.851562 8.203125 -15.65625 L 8.203125 -15.59375 C 9.398438 -17.0625 10.597656 -18.128906 11.796875 -18.796875 C 12.992188 -19.460938 14.242188 -19.796875 15.546875 -19.796875 C 17.046875 -19.796875 18.257812 -19.425781 19.1875 -18.6875 C 20.125 -17.957031 20.710938 -16.863281 20.953125 -15.40625 C 22.179688 -16.90625 23.410156 -18.007812 24.640625 -18.71875 C 25.878906 -19.4375 27.164062 -19.796875 28.5 -19.796875 C 30.269531 -19.796875 31.628906 -19.285156 32.578125 -18.265625 C 33.523438 -17.253906 34 -15.75 34 -13.75 L 34 -4.046875 C 34 -3.046875 34.070312 -2.3125 34.21875 -1.84375 C 34.375 -1.382812 34.664062 -1.0625 35.09375 -0.875 C 35.53125 -0.6875 36.195312 -0.59375 37.09375 -0.59375 Z M 37.09375 -0.59375 "/></g></g></g></svg>