<svg xmlns="http://www.w3.org/2000/svg" xmlns:xlink="http://www.w3.org/1999/xlink" width="512" zoomAndPan="magnify" viewBox="0 0 384 383.999986" height="512" preserveAspectRatio="xMidYMid meet" version="1.0"><defs><g/></defs><g fill="#ffffff" fill-opacity="1"><g transform="translate(139.400387, 218.506639)"><g><path d="M 14.546875 0.25 C 11.847656 0.25 9.796875 -0.046875 8.390625 -0.640625 C 6.992188 -1.242188 6.03125 -2.175781 5.5 -3.4375 C 4.96875 -4.707031 4.664062 -6.34375 4.59375 -8.34375 L 3.59375 -35.703125 L 7.703125 -35.703125 L 8.703125 -9.953125 C 8.765625 -8.316406 8.921875 -7.054688 9.171875 -6.171875 C 9.421875 -5.285156 9.988281 -4.675781 10.875 -4.34375 C 11.757812 -4.007812 13.148438 -3.84375 15.046875 -3.84375 C 15.742188 -3.84375 16.25 -3.648438 16.5625 -3.265625 C 16.882812 -2.890625 17.046875 -2.4375 17.046875 -1.90625 C 17.046875 -1.363281 16.8125 -0.867188 16.34375 -0.421875 C 15.882812 0.0234375 15.285156 0.25 14.546875 0.25 Z M 14.546875 0.25 "/></g></g></g><g fill="#ffffff" fill-opacity="1"><g transform="translate(155.148016, 227.205773)"><g><path d="M 2 -35.34375 L 2 -38.15625 L 13.203125 -41.453125 L 13.203125 -38.59375 Z M 2 -30.09375 L 2 -32.90625 L 13.203125 -36.203125 L 13.203125 -33.34375 Z M 2 -30.09375 "/></g></g></g><g fill="#ffffff" fill-opacity="1"><g transform="translate(153.948137, 218.506639)"><g><path d="M 0 0.25 L 0.5 -3.84375 C 1.894531 -3.84375 2.992188 -3.96875 3.796875 -4.21875 C 4.597656 -4.46875 5.207031 -4.953125 5.625 -5.671875 C 6.039062 -6.390625 6.398438 -7.429688 6.703125 -8.796875 C 7.003906 -10.160156 7.367188 -11.945312 7.796875 -14.15625 L 11.703125 -13.40625 C 11.503906 -12.5 11.28125 -11.460938 11.03125 -10.296875 C 10.78125 -9.128906 10.65625 -8.144531 10.65625 -7.34375 C 10.65625 -6.675781 10.800781 -6.078125 11.09375 -5.546875 C 11.394531 -5.015625 12.035156 -4.597656 13.015625 -4.296875 C 14.003906 -3.992188 15.550781 -3.84375 17.65625 -3.84375 C 18.351562 -3.84375 18.859375 -3.648438 19.171875 -3.265625 C 19.492188 -2.890625 19.65625 -2.4375 19.65625 -1.90625 C 19.65625 -1.363281 19.421875 -0.867188 18.953125 -0.421875 C 18.484375 0.0234375 17.882812 0.25 17.15625 0.25 C 14.519531 0.25 12.566406 -0.03125 11.296875 -0.59375 C 10.035156 -1.164062 9.171875 -2.019531 8.703125 -3.15625 C 7.703125 -1.75 6.550781 -0.828125 5.25 -0.390625 C 3.945312 0.0351562 2.195312 0.25 0 0.25 Z M 8.5 9.5625 C 7.800781 9.5625 7.207031 9.316406 6.71875 8.828125 C 6.238281 8.347656 6 7.773438 6 7.109375 C 6 6.441406 6.238281 5.859375 6.71875 5.359375 C 7.207031 4.859375 7.800781 4.609375 8.5 4.609375 C 9.164062 4.609375 9.738281 4.859375 10.21875 5.359375 C 10.707031 5.859375 10.953125 6.441406 10.953125 7.109375 C 10.953125 7.773438 10.707031 8.347656 10.21875 8.828125 C 9.738281 9.316406 9.164062 9.5625 8.5 9.5625 Z M 8.5 9.5625 "/></g></g></g><g fill="#ffffff" fill-opacity="1"><g transform="translate(171.095483, 218.506639)"><g><path d="M 0 0.25 L 0.453125 -3.84375 C 3.878906 -3.84375 7.207031 -4.351562 10.4375 -5.375 C 13.675781 -6.394531 16.628906 -7.835938 19.296875 -9.703125 C 17.992188 -10.835938 16.398438 -11.753906 14.515625 -12.453125 C 12.640625 -13.148438 10.566406 -13.5 8.296875 -13.5 C 7.460938 -13.5 6.726562 -13.457031 6.09375 -13.375 C 5.46875 -13.289062 4.703125 -13.148438 3.796875 -12.953125 L 3 -16.75 C 4.863281 -17.3125 6.628906 -17.59375 8.296875 -17.59375 C 10.035156 -17.59375 11.601562 -17.382812 13 -16.96875 C 14.394531 -16.550781 15.664062 -16.039062 16.8125 -15.4375 C 17.96875 -14.84375 19.050781 -14.242188 20.0625 -13.640625 C 21.082031 -13.046875 22.078125 -12.539062 23.046875 -12.125 C 24.015625 -11.707031 25.015625 -11.5 26.046875 -11.5 L 27.09375 -11.5 L 27.453125 -7.90625 C 25.753906 -7.90625 24.203125 -7.628906 22.796875 -7.078125 C 21.398438 -6.523438 19.992188 -5.835938 18.578125 -5.015625 C 17.160156 -4.203125 15.609375 -3.394531 13.921875 -2.59375 C 12.242188 -1.800781 10.285156 -1.128906 8.046875 -0.578125 C 5.816406 -0.0234375 3.132812 0.25 0 0.25 Z M 0 0.25 "/></g></g></g><g fill="#ffffff" fill-opacity="1"><g transform="translate(198.541125, 218.506639)"><g><path d="M 0.203125 11.59375 L -1.25 7.796875 C 1.976562 6.734375 4.5 5.46875 6.3125 4 C 8.132812 2.53125 9.421875 0.988281 10.171875 -0.625 C 10.921875 -2.238281 11.296875 -3.8125 11.296875 -5.34375 C 11.296875 -6.976562 10.9375 -8.632812 10.21875 -10.3125 C 9.507812 -12 8.71875 -13.59375 7.84375 -15.09375 L 11.5 -16.953125 C 12.4375 -15.179688 13.226562 -13.476562 13.875 -11.84375 C 14.519531 -10.21875 15.03125 -8.785156 15.40625 -7.546875 C 15.863281 -6.117188 16.46875 -5.144531 17.21875 -4.625 C 17.96875 -4.101562 18.992188 -3.84375 20.296875 -3.84375 C 20.992188 -3.84375 21.5 -3.648438 21.8125 -3.265625 C 22.132812 -2.890625 22.296875 -2.4375 22.296875 -1.90625 C 22.296875 -1.363281 22.0625 -0.867188 21.59375 -0.421875 C 21.132812 0.0234375 20.535156 0.25 19.796875 0.25 C 18.535156 0.25 17.476562 0.0507812 16.625 -0.34375 C 15.769531 -0.75 15.078125 -1.285156 14.546875 -1.953125 C 14.210938 -0.0859375 13.507812 1.609375 12.4375 3.140625 C 11.375 4.679688 10.125 6.023438 8.6875 7.171875 C 7.257812 8.328125 5.796875 9.269531 4.296875 10 C 2.796875 10.726562 1.429688 11.257812 0.203125 11.59375 Z M 0.203125 11.59375 "/></g></g></g><g fill="#ffffff" fill-opacity="1"><g transform="translate(218.338064, 218.506639)"><g><path d="M 0 0.25 L 0.5 -3.84375 C 1.4375 -3.84375 2.21875 -4.039062 2.84375 -4.4375 C 3.476562 -4.84375 4.09375 -5.503906 4.6875 -6.421875 C 5.289062 -7.335938 5.945312 -8.597656 6.65625 -10.203125 C 7.613281 -12.335938 8.566406 -13.953125 9.515625 -15.046875 C 10.472656 -16.148438 11.425781 -16.898438 12.375 -17.296875 C 13.320312 -17.703125 14.265625 -17.90625 15.203125 -17.90625 C 16.335938 -17.90625 17.382812 -17.613281 18.34375 -17.03125 C 19.3125 -16.445312 20.160156 -15.671875 20.890625 -14.703125 C 21.628906 -13.734375 22.207031 -12.671875 22.625 -11.515625 C 23.039062 -10.367188 23.25 -9.226562 23.25 -8.09375 C 23.25 -6.09375 22.898438 -4.5 22.203125 -3.3125 C 21.503906 -2.132812 20.613281 -1.285156 19.53125 -0.765625 C 18.445312 -0.253906 17.320312 0 16.15625 0 C 15.1875 0 13.957031 -0.164062 12.46875 -0.5 C 10.988281 -0.832031 9.132812 -1.695312 6.90625 -3.09375 C 5.832031 -1.5625 4.757812 -0.617188 3.6875 -0.265625 C 2.625 0.078125 1.394531 0.25 0 0.25 Z M 9.34375 -7.546875 C 9.144531 -7.117188 8.960938 -6.703125 8.796875 -6.296875 C 10.234375 -5.460938 11.539062 -4.882812 12.71875 -4.5625 C 13.90625 -4.25 14.898438 -4.09375 15.703125 -4.09375 C 17.128906 -4.09375 18.144531 -4.410156 18.75 -5.046875 C 19.351562 -5.679688 19.65625 -6.515625 19.65625 -7.546875 C 19.65625 -8.515625 19.421875 -9.484375 18.953125 -10.453125 C 18.484375 -11.421875 17.890625 -12.21875 17.171875 -12.84375 C 16.453125 -13.476562 15.695312 -13.796875 14.90625 -13.796875 C 14.300781 -13.796875 13.710938 -13.628906 13.140625 -13.296875 C 12.578125 -12.960938 11.992188 -12.34375 11.390625 -11.4375 C 10.796875 -10.539062 10.113281 -9.242188 9.34375 -7.546875 Z M 9.34375 -7.546875 "/></g></g></g></svg>