<svg xmlns="http://www.w3.org/2000/svg" xmlns:xlink="http://www.w3.org/1999/xlink" width="512" zoomAndPan="magnify" viewBox="0 0 384 383.999986" height="512" preserveAspectRatio="xMidYMid meet" version="1.0"><defs><g/></defs><g fill="#ffffff" fill-opacity="1"><g transform="translate(143.578121, 218.50674)"><g><path d="M 34.953125 -0.59375 C 35.085938 -0.59375 35.15625 -0.492188 35.15625 -0.296875 C 35.15625 -0.0976562 35.085938 0 34.953125 0 C 34.316406 0 33.332031 -0.03125 32 -0.09375 C 30.664062 -0.164062 29.695312 -0.203125 29.09375 -0.203125 C 28.363281 -0.203125 27.429688 -0.164062 26.296875 -0.09375 C 25.234375 -0.03125 24.414062 0 23.84375 0 C 23.71875 0 23.65625 -0.0976562 23.65625 -0.296875 C 23.65625 -0.492188 23.71875 -0.59375 23.84375 -0.59375 C 25.082031 -0.59375 25.984375 -0.707031 26.546875 -0.9375 C 27.117188 -1.175781 27.40625 -1.582031 27.40625 -2.15625 C 27.40625 -2.613281 27.1875 -3.328125 26.75 -4.296875 L 22.296875 -13.75 L 10.40625 -13.75 L 7.25 -6.34375 C 6.78125 -5.21875 6.546875 -4.300781 6.546875 -3.59375 C 6.546875 -2.5625 6.953125 -1.800781 7.765625 -1.3125 C 8.585938 -0.832031 9.816406 -0.59375 11.453125 -0.59375 C 11.617188 -0.59375 11.703125 -0.492188 11.703125 -0.296875 C 11.703125 -0.0976562 11.617188 0 11.453125 0 C 10.847656 0 9.976562 -0.03125 8.84375 -0.09375 C 7.582031 -0.164062 6.484375 -0.203125 5.546875 -0.203125 C 4.679688 -0.203125 3.679688 -0.164062 2.546875 -0.09375 C 1.546875 -0.03125 0.710938 0 0.046875 0 C -0.117188 0 -0.203125 -0.0976562 -0.203125 -0.296875 C -0.203125 -0.492188 -0.117188 -0.59375 0.046875 -0.59375 C 0.984375 -0.59375 1.773438 -0.769531 2.421875 -1.125 C 3.078125 -1.476562 3.695312 -2.09375 4.28125 -2.96875 C 4.863281 -3.851562 5.503906 -5.128906 6.203125 -6.796875 L 16.75 -31.703125 C 16.8125 -31.796875 16.925781 -31.84375 17.09375 -31.84375 C 17.257812 -31.84375 17.363281 -31.796875 17.40625 -31.703125 L 29.203125 -6.84375 C 30.335938 -4.382812 31.300781 -2.726562 32.09375 -1.875 C 32.894531 -1.019531 33.847656 -0.59375 34.953125 -0.59375 Z M 10.796875 -14.75 L 21.84375 -14.75 L 16 -27.09375 Z M 10.796875 -14.75 "/></g></g></g><g fill="#ffffff" fill-opacity="1"><g transform="translate(178.672685, 218.50674)"><g><path d="M 23.84375 -0.59375 C 23.945312 -0.59375 24 -0.492188 24 -0.296875 C 24 -0.0976562 23.945312 0 23.84375 0 C 23.082031 0 22.46875 -0.015625 22 -0.046875 L 19.296875 -0.09375 L 16.59375 -0.046875 C 16.132812 -0.015625 15.519531 0 14.75 0 C 14.644531 0 14.59375 -0.0976562 14.59375 -0.296875 C 14.59375 -0.492188 14.644531 -0.59375 14.75 -0.59375 C 15.644531 -0.59375 16.3125 -0.6875 16.75 -0.875 C 17.1875 -1.0625 17.488281 -1.394531 17.65625 -1.875 C 17.820312 -2.351562 17.90625 -3.078125 17.90625 -4.046875 L 17.90625 -12 C 17.90625 -13.96875 17.53125 -15.425781 16.78125 -16.375 C 16.03125 -17.320312 14.867188 -17.796875 13.296875 -17.796875 C 12.265625 -17.796875 11.210938 -17.519531 10.140625 -16.96875 C 9.078125 -16.425781 8.113281 -15.671875 7.25 -14.703125 L 7.25 -4.046875 C 7.25 -3.078125 7.332031 -2.351562 7.5 -1.875 C 7.664062 -1.394531 7.960938 -1.0625 8.390625 -0.875 C 8.828125 -0.6875 9.5 -0.59375 10.40625 -0.59375 C 10.5 -0.59375 10.546875 -0.492188 10.546875 -0.296875 C 10.546875 -0.0976562 10.5 0 10.40625 0 C 9.632812 0 9.015625 -0.015625 8.546875 -0.046875 L 5.84375 -0.09375 L 3.15625 -0.046875 C 2.6875 -0.015625 2.066406 0 1.296875 0 C 1.203125 0 1.15625 -0.0976562 1.15625 -0.296875 C 1.15625 -0.492188 1.203125 -0.59375 1.296875 -0.59375 C 2.203125 -0.59375 2.867188 -0.6875 3.296875 -0.875 C 3.734375 -1.0625 4.035156 -1.394531 4.203125 -1.875 C 4.367188 -2.351562 4.453125 -3.078125 4.453125 -4.046875 L 4.453125 -29.90625 C 4.453125 -31.101562 4.332031 -31.96875 4.09375 -32.5 C 3.863281 -33.03125 3.445312 -33.296875 2.84375 -33.296875 C 2.34375 -33.296875 1.578125 -33.0625 0.546875 -32.59375 L 0.453125 -32.59375 C 0.347656 -32.59375 0.257812 -32.675781 0.1875 -32.84375 C 0.125 -33.007812 0.160156 -33.113281 0.296875 -33.15625 L 6.65625 -36.25 L 6.796875 -36.25 C 6.929688 -36.25 7.039062 -36.207031 7.125 -36.125 C 7.207031 -36.039062 7.25 -35.945312 7.25 -35.84375 L 7.25 -15.546875 C 8.519531 -17.015625 9.78125 -18.085938 11.03125 -18.765625 C 12.28125 -19.453125 13.585938 -19.796875 14.953125 -19.796875 C 16.785156 -19.796875 18.203125 -19.28125 19.203125 -18.25 C 20.203125 -17.21875 20.703125 -15.71875 20.703125 -13.75 L 20.703125 -4.046875 C 20.703125 -3.078125 20.785156 -2.351562 20.953125 -1.875 C 21.117188 -1.394531 21.414062 -1.0625 21.84375 -0.875 C 22.28125 -0.6875 22.945312 -0.59375 23.84375 -0.59375 Z M 23.84375 -0.59375 "/></g></g></g><g fill="#ffffff" fill-opacity="1"><g transform="translate(203.618823, 218.50674)"><g><path d="M 11.546875 0.65625 C 9.617188 0.65625 7.910156 0.179688 6.421875 -0.765625 C 4.941406 -1.722656 3.800781 -3.007812 3 -4.625 C 2.195312 -6.238281 1.796875 -8 1.796875 -9.90625 C 1.796875 -12.070312 2.320312 -13.910156 3.375 -15.421875 C 4.425781 -16.941406 5.773438 -18.078125 7.421875 -18.828125 C 9.078125 -19.578125 10.753906 -19.953125 12.453125 -19.953125 C 14.421875 -19.953125 16.132812 -19.46875 17.59375 -18.5 C 19.0625 -17.53125 20.1875 -16.253906 20.96875 -14.671875 C 21.757812 -13.085938 22.15625 -11.414062 22.15625 -9.65625 C 22.15625 -7.582031 21.671875 -5.769531 20.703125 -4.21875 C 19.734375 -2.675781 18.441406 -1.476562 16.828125 -0.625 C 15.210938 0.226562 13.453125 0.65625 11.546875 0.65625 Z M 13 -0.296875 C 14.832031 -0.296875 16.25 -0.945312 17.25 -2.25 C 18.25 -3.550781 18.75 -5.550781 18.75 -8.25 C 18.75 -10.3125 18.40625 -12.160156 17.71875 -13.796875 C 17.039062 -15.429688 16.097656 -16.707031 14.890625 -17.625 C 13.691406 -18.539062 12.328125 -19 10.796875 -19 C 8.992188 -19 7.601562 -18.347656 6.625 -17.046875 C 5.644531 -15.742188 5.15625 -13.878906 5.15625 -11.453125 C 5.15625 -9.421875 5.488281 -7.550781 6.15625 -5.84375 C 6.820312 -4.144531 7.753906 -2.796875 8.953125 -1.796875 C 10.148438 -0.796875 11.5 -0.296875 13 -0.296875 Z M 13 -0.296875 "/></g></g></g><g fill="#ffffff" fill-opacity="1"><g transform="translate(227.565114, 218.50674)"><g><path d="M 6.40625 -25.59375 C 5.695312 -25.59375 5.148438 -25.773438 4.765625 -26.140625 C 4.390625 -26.515625 4.203125 -27.035156 4.203125 -27.703125 C 4.203125 -28.367188 4.390625 -28.882812 4.765625 -29.25 C 5.148438 -29.613281 5.695312 -29.796875 6.40625 -29.796875 C 7.070312 -29.796875 7.585938 -29.613281 7.953125 -29.25 C 8.316406 -28.882812 8.5 -28.367188 8.5 -27.703125 C 8.5 -27.035156 8.316406 -26.515625 7.953125 -26.140625 C 7.585938 -25.773438 7.070312 -25.59375 6.40625 -25.59375 Z M 8.34375 -19.34375 C 8.34375 -19.113281 8.328125 -18.445312 8.296875 -17.34375 C 8.265625 -16.25 8.25 -14.953125 8.25 -13.453125 L 8.25 2.40625 C 8.25 4.664062 8.023438 6.519531 7.578125 7.96875 C 7.128906 9.425781 6.40625 10.632812 5.40625 11.59375 C 4.40625 12.5625 3.003906 13.394531 1.203125 14.09375 C 1.128906 14.132812 1.050781 14.0625 0.96875 13.875 C 0.882812 13.6875 0.878906 13.578125 0.953125 13.546875 C 2.585938 12.847656 3.738281 11.734375 4.40625 10.203125 C 5.070312 8.671875 5.40625 6.453125 5.40625 3.546875 L 5.40625 -13.40625 C 5.40625 -14.601562 5.285156 -15.46875 5.046875 -16 C 4.816406 -16.53125 4.414062 -16.796875 3.84375 -16.796875 C 3.25 -16.796875 2.484375 -16.5625 1.546875 -16.09375 L 1.5 -16.09375 C 1.332031 -16.09375 1.210938 -16.175781 1.140625 -16.34375 C 1.078125 -16.507812 1.113281 -16.628906 1.25 -16.703125 L 7.75 -19.703125 L 7.90625 -19.75 C 8.03125 -19.75 8.132812 -19.707031 8.21875 -19.625 C 8.300781 -19.539062 8.34375 -19.445312 8.34375 -19.34375 Z M 8.34375 -19.34375 "/></g></g></g></svg>