<svg xmlns="http://www.w3.org/2000/svg" xmlns:xlink="http://www.w3.org/1999/xlink" width="512" zoomAndPan="magnify" viewBox="0 0 384 383.999986" height="512" preserveAspectRatio="xMidYMid meet" version="1.0"><defs><g/></defs><g fill="#ffffff" fill-opacity="1"><g transform="translate(139.201167, 218.506624)"><g><path d="M 0 -31.09375 L 28.453125 -31.09375 L 28.453125 -27.546875 L 23.296875 -27.546875 L 23.296875 0 L 19.25 0 L 19.25 -14.90625 L 10.203125 -14.90625 L 10.203125 -12.203125 C 10.203125 -11.265625 9.96875 -10.5625 9.5 -10.09375 C 9.03125 -9.632812 8.414062 -9.40625 7.65625 -9.40625 C 6.820312 -9.40625 5.960938 -9.753906 5.078125 -10.453125 C 4.191406 -11.148438 3.429688 -12 2.796875 -13 C 2.160156 -14 1.84375 -14.96875 1.84375 -15.90625 C 1.84375 -16.632812 2.066406 -17.238281 2.515625 -17.71875 C 2.972656 -18.207031 3.769531 -18.453125 4.90625 -18.453125 L 19.25 -18.453125 L 19.25 -27.546875 L 0 -27.546875 Z M 0 -31.09375 "/></g></g></g><g fill="#ffffff" fill-opacity="1"><g transform="translate(166.946874, 218.506624)"><g><path d="M 25.453125 -27.546875 L 25.453125 0 L 21.40625 0 L 21.40625 -12.5 L 10.34375 -12.5 L 10.34375 -10.65625 C 10.34375 -9.550781 10.101562 -8.753906 9.625 -8.265625 C 9.144531 -7.785156 8.585938 -7.546875 7.953125 -7.546875 C 7.316406 -7.546875 6.648438 -7.753906 5.953125 -8.171875 C 5.253906 -8.585938 4.601562 -9.117188 4 -9.765625 C 3.394531 -10.421875 2.898438 -11.113281 2.515625 -11.84375 C 2.140625 -12.582031 1.953125 -13.269531 1.953125 -13.90625 C 1.953125 -14.5 2.175781 -15.003906 2.625 -15.421875 C 3.070312 -15.835938 3.863281 -16.046875 5 -16.046875 L 6.296875 -16.046875 L 6.296875 -27.546875 L 0 -27.546875 L 0 -31.09375 L 30.59375 -31.09375 L 30.59375 -27.546875 Z M 21.40625 -27.546875 L 10.34375 -27.546875 L 10.34375 -16.046875 L 21.40625 -16.046875 Z M 21.40625 -27.546875 "/></g></g></g><g fill="#ffffff" fill-opacity="1"><g transform="translate(196.842249, 218.506624)"><g><path d="M 18.453125 -16.09375 C 19.484375 -16.09375 20.414062 -16.132812 21.25 -16.21875 C 22.082031 -16.300781 22.96875 -16.425781 23.90625 -16.59375 L 24.296875 -13 C 23.429688 -12.832031 22.566406 -12.710938 21.703125 -12.640625 C 20.835938 -12.578125 19.9375 -12.546875 19 -12.546875 C 17.601562 -12.546875 16.128906 -12.671875 14.578125 -12.921875 C 13.023438 -13.171875 11.695312 -13.476562 10.59375 -13.84375 C 9.925781 -13.414062 9.175781 -13.019531 8.34375 -12.65625 C 9.71875 -10.914062 11.328125 -9.128906 13.171875 -7.296875 C 15.023438 -5.460938 16.96875 -3.726562 19 -2.09375 L 16.296875 0.59375 C 14.429688 -1.03125 12.671875 -2.675781 11.015625 -4.34375 C 9.367188 -6.007812 7.910156 -7.566406 6.640625 -9.015625 C 5.378906 -10.472656 4.382812 -11.734375 3.65625 -12.796875 C 2.914062 -13.828125 2.453125 -14.644531 2.265625 -15.25 C 2.085938 -15.851562 2 -16.4375 2 -17 C 2 -17.632812 2.25 -18.234375 2.75 -18.796875 C 3.25 -19.367188 4.066406 -19.65625 5.203125 -19.65625 C 6.035156 -19.65625 6.757812 -19.460938 7.375 -19.078125 C 7.988281 -18.691406 8.546875 -18.164062 9.046875 -17.5 C 9.742188 -18.132812 10.21875 -18.941406 10.46875 -19.921875 C 10.71875 -20.910156 10.84375 -21.90625 10.84375 -22.90625 C 10.84375 -23.90625 10.769531 -24.800781 10.625 -25.59375 C 10.476562 -26.394531 10.285156 -27.046875 10.046875 -27.546875 L 0 -27.546875 L 0 -31.09375 L 20.15625 -31.09375 L 20.15625 -27.546875 L 14.046875 -27.546875 C 14.285156 -26.984375 14.488281 -26.316406 14.65625 -25.546875 C 14.820312 -24.785156 14.90625 -23.90625 14.90625 -22.90625 C 14.90625 -21.5 14.742188 -20.28125 14.421875 -19.25 C 14.109375 -18.21875 13.664062 -17.351562 13.09375 -16.65625 C 14.832031 -16.28125 16.617188 -16.09375 18.453125 -16.09375 Z M 18.453125 -16.09375 "/></g></g></g><g fill="#ffffff" fill-opacity="1"><g transform="translate(216.289239, 218.506624)"><g><path d="M 24.046875 -27.546875 L 24.046875 0 L 20 0 L 20 -16.40625 L 14.546875 -16.40625 C 12.515625 -16.40625 10.988281 -16.300781 9.96875 -16.09375 C 8.957031 -15.894531 8.132812 -15.515625 7.5 -14.953125 C 6.695312 -14.316406 6.296875 -13.28125 6.296875 -11.84375 C 6.296875 -10.21875 6.910156 -8.644531 8.140625 -7.125 C 9.378906 -5.601562 11.179688 -3.894531 13.546875 -2 L 10.84375 0.59375 C 9.28125 -0.738281 7.847656 -2.070312 6.546875 -3.40625 C 5.242188 -4.738281 4.203125 -6.117188 3.421875 -7.546875 C 2.640625 -8.984375 2.25 -10.5 2.25 -12.09375 C 2.25 -13.226562 2.472656 -14.269531 2.921875 -15.21875 C 3.367188 -16.175781 3.945312 -16.953125 4.65625 -17.546875 C 5.613281 -18.378906 6.773438 -18.988281 8.140625 -19.375 C 9.515625 -19.757812 11.332031 -19.953125 13.59375 -19.953125 L 20 -19.953125 L 20 -27.546875 L 0 -27.546875 L 0 -31.09375 L 29.203125 -31.09375 L 29.203125 -27.546875 Z M 24.046875 -27.546875 "/></g></g></g><g fill="#ffffff" fill-opacity="1"><g transform="translate(244.78483, 218.506624)"><g><path d="M -8.453125 -30.75 C -9.148438 -33.382812 -9.835938 -35.457031 -10.515625 -36.96875 C -11.203125 -38.488281 -11.960938 -39.566406 -12.796875 -40.203125 C -13.628906 -40.835938 -14.613281 -41.15625 -15.75 -41.15625 C -16.519531 -41.15625 -17.175781 -41.078125 -17.71875 -40.921875 C -18.269531 -40.773438 -18.78125 -40.617188 -19.25 -40.453125 L -20.453125 -44.09375 C -19.148438 -44.5625 -17.632812 -44.796875 -15.90625 -44.796875 C -14.101562 -44.796875 -12.539062 -44.367188 -11.21875 -43.515625 C -9.90625 -42.671875 -8.722656 -41.222656 -7.671875 -39.171875 C -6.617188 -37.117188 -5.628906 -34.3125 -4.703125 -30.75 Z M -8.453125 -30.75 "/></g></g></g></svg>