<svg xmlns="http://www.w3.org/2000/svg" xmlns:xlink="http://www.w3.org/1999/xlink" width="512" zoomAndPan="magnify" viewBox="0 0 384 383.999986" height="512" preserveAspectRatio="xMidYMid meet" version="1.0"><defs><g/></defs><g fill="#ffffff" fill-opacity="1"><g transform="translate(67.007815, 218.506624)"><g><path d="M 11.847656 -30.945312 C 15.796875 -30.597656 19.996094 -30.398438 24.949219 -30.398438 C 29.496094 -30.398438 34.945312 -30.746094 38.296875 -30.996094 L 38.296875 -35.097656 C 34.746094 -34.746094 29.695312 -34.398438 24.949219 -34.398438 C 19.996094 -34.398438 15.449219 -34.597656 11.847656 -35.046875 Z M 9.800781 -15.449219 C 9.347656 -13.398438 8.800781 -11.097656 8.800781 -8.5 C 8.800781 -2.300781 14.648438 1 24.699219 1 C 31.746094 1 38.046875 0.25 41.597656 -0.699219 L 41.546875 -5 C 37.796875 -3.851562 31.445312 -3.101562 24.597656 -3.101562 C 16.699219 -3.101562 12.898438 -5.699219 12.898438 -9.398438 C 12.898438 -11.25 13.296875 -13.046875 13.898438 -15.046875 Z M 9.800781 -15.449219 "/></g></g></g><g fill="#ffffff" fill-opacity="1"><g transform="translate(117.000078, 218.506624)"><g><path d="M 27.695312 -37.597656 L 23.246094 -39.394531 C 22.648438 -37.945312 21.996094 -36.746094 21.449219 -35.546875 C 18.75 -30.796875 7.597656 -9.847656 3.949219 0.148438 L 8.300781 1.601562 C 8.949219 -0.851562 11.050781 -6.699219 12.546875 -9.648438 C 14.5 -13.546875 18.148438 -17.546875 22.148438 -17.546875 C 24.398438 -17.546875 25.648438 -16.296875 25.746094 -14.097656 C 25.898438 -11.449219 25.796875 -7.597656 25.996094 -4.699219 C 26.148438 -1.800781 27.898438 1.601562 33.148438 1.601562 C 40.347656 1.601562 44.546875 -3.949219 47.144531 -11.949219 L 43.84375 -14.597656 C 42.546875 -9.347656 39.296875 -2.550781 33.796875 -2.550781 C 31.648438 -2.550781 29.996094 -3.601562 29.847656 -6.050781 C 29.648438 -8.449219 29.746094 -12.25 29.648438 -15.199219 C 29.496094 -19.097656 27.097656 -21.246094 23.796875 -21.246094 C 21.449219 -21.246094 18.949219 -20.398438 16.546875 -18.25 C 19.097656 -23.046875 23.898438 -31.796875 26.097656 -35.195312 C 26.648438 -36.144531 27.246094 -37.046875 27.695312 -37.597656 Z M 27.695312 -37.597656 "/></g></g></g><g fill="#ffffff" fill-opacity="1"><g transform="translate(166.992342, 218.506624)"><g><path d="M 8.949219 -37.847656 C 8.949219 -36.796875 8.75 -35.496094 8.597656 -34.347656 C 8 -30.296875 6.398438 -21.796875 6.398438 -14.5 C 6.398438 -7.800781 7.199219 -2.101562 8.199219 1.398438 L 11.796875 1.148438 L 11.648438 -0.601562 C 11.648438 -1.148438 11.75 -2.101562 11.898438 -2.800781 C 12.347656 -5.148438 14.148438 -10.398438 15.398438 -13.898438 L 13.25 -15.5 C 12.449219 -13.546875 11.347656 -10.648438 10.5 -8.398438 C 10.199219 -10.800781 10.097656 -12.796875 10.097656 -15.199219 C 10.097656 -20.746094 11.550781 -29.597656 12.5 -34.148438 C 12.699219 -35.046875 13.148438 -36.644531 13.449219 -37.496094 Z M 21.148438 -13.847656 C 20.699219 -11.75 20.347656 -9.800781 20.347656 -8 C 20.347656 -3.351562 24.046875 -0.601562 32.347656 -0.601562 C 37.496094 -0.601562 41.644531 -1 44.695312 -1.601562 L 44.644531 -5.800781 C 40.644531 -4.898438 36.847656 -4.5 32.398438 -4.5 C 25.597656 -4.5 24.097656 -6.699219 24.097656 -8.949219 C 24.097656 -10.300781 24.296875 -11.699219 24.746094 -13.5 Z M 22.847656 -29.597656 C 28.246094 -29.046875 37.847656 -29.046875 43.144531 -29.597656 L 43.144531 -33.695312 C 38.195312 -32.996094 28.195312 -32.796875 22.796875 -33.695312 Z M 22.847656 -29.597656 "/></g></g></g><g fill="#ffffff" fill-opacity="1"><g transform="translate(216.984606, 218.506624)"><g><path d="M 39.046875 -34.398438 C 32.996094 -33.046875 25.699219 -32.246094 19.746094 -31.996094 C 19.996094 -33.097656 20.148438 -34.097656 20.296875 -34.847656 C 20.546875 -36.144531 20.847656 -37.695312 21.199219 -38.996094 L 16.75 -39.246094 C 16.796875 -37.894531 16.75 -36.746094 16.5 -35.148438 C 16.398438 -34.296875 16.25 -33.195312 16 -31.898438 L 15.199219 -31.898438 C 12.199219 -31.898438 8.398438 -32.296875 5.800781 -32.746094 L 5.847656 -28.796875 C 8.699219 -28.546875 11.898438 -28.347656 15.25 -28.347656 L 15.296875 -28.347656 C 14.046875 -22.746094 12.046875 -15.648438 9.550781 -10.75 L 13.25 -9.398438 C 13.699219 -10.300781 14.148438 -10.949219 14.796875 -11.699219 C 18.046875 -15.648438 23.496094 -17.597656 29.398438 -17.597656 C 35.195312 -17.597656 38.195312 -14.796875 38.195312 -11.097656 C 38.195312 -3 27.097656 -1 15.699219 -2.601562 L 16.796875 1.351562 C 31.796875 3 42.296875 -0.898438 42.296875 -11.199219 C 42.296875 -17 37.695312 -21.046875 29.796875 -21.046875 C 24.296875 -21.046875 20.246094 -19.796875 15.949219 -16.75 C 17 -19.597656 18.148438 -24.296875 19.046875 -28.445312 C 25.398438 -28.695312 33.296875 -29.496094 39.097656 -30.546875 Z M 39.046875 -34.398438 "/></g></g></g><g fill="#ffffff" fill-opacity="1"><g transform="translate(266.97687, 218.506624)"><g><path d="M 8.5 -38.394531 C 8.5 -37.347656 8.347656 -36.046875 8.148438 -34.898438 C 7.550781 -30.796875 5.898438 -21.347656 5.898438 -14.097656 C 5.898438 -7.398438 6.800781 -1.949219 7.800781 1.601562 L 11.347656 1.300781 C 11.300781 0.800781 11.199219 0.101562 11.199219 -0.398438 C 11.148438 -1 11.300781 -1.949219 11.449219 -2.601562 C 11.949219 -5.050781 13.699219 -10.097656 14.949219 -13.546875 L 12.847656 -15.199219 C 12 -13.199219 10.847656 -10.25 10.050781 -8 C 9.699219 -10.398438 9.597656 -12.347656 9.597656 -14.75 C 9.597656 -20.296875 11.050781 -30.097656 12.046875 -34.695312 C 12.199219 -35.597656 12.597656 -37.246094 12.898438 -38.046875 Z M 33.746094 -7.699219 C 33.746094 -4.398438 32.546875 -2.351562 28.347656 -2.351562 C 24.796875 -2.351562 22.398438 -3.75 22.398438 -6.199219 C 22.398438 -8.5 24.949219 -10.148438 28.648438 -10.148438 C 30.398438 -10.148438 32.097656 -9.898438 33.695312 -9.347656 C 33.746094 -8.75 33.746094 -8.148438 33.746094 -7.699219 Z M 47.246094 -5.25 C 44.644531 -7.550781 41.496094 -10.097656 37.496094 -11.699219 C 37.296875 -15.847656 36.945312 -20.796875 36.894531 -25.746094 C 39.847656 -25.949219 42.746094 -26.246094 45.445312 -26.699219 L 45.445312 -30.597656 C 42.796875 -30.046875 39.894531 -29.648438 36.894531 -29.445312 C 36.945312 -31.746094 36.996094 -34.046875 37.046875 -35.394531 C 37.097656 -36.394531 37.195312 -37.394531 37.347656 -38.347656 L 32.796875 -38.347656 C 32.945312 -37.496094 33.046875 -36.195312 33.046875 -35.347656 L 33.046875 -29.195312 C 31.496094 -29.148438 29.945312 -29.097656 28.398438 -29.097656 C 25.496094 -29.097656 22.796875 -29.246094 19.996094 -29.546875 L 19.996094 -25.746094 C 22.898438 -25.597656 25.496094 -25.449219 28.296875 -25.449219 C 29.898438 -25.449219 31.445312 -25.496094 33.046875 -25.546875 C 33.097656 -21.449219 33.398438 -16.699219 33.546875 -12.898438 C 32.148438 -13.199219 30.597656 -13.347656 28.945312 -13.347656 C 22.449219 -13.347656 18.75 -9.949219 18.75 -5.800781 C 18.75 -1.398438 22.398438 1.351562 29.046875 1.351562 C 35.746094 1.351562 37.644531 -2.648438 37.644531 -6.75 L 37.644531 -7.648438 C 40.195312 -6.25 42.644531 -4.300781 45.09375 -2 Z M 47.246094 -5.25 "/></g></g></g></svg>