<svg xmlns="http://www.w3.org/2000/svg" xmlns:xlink="http://www.w3.org/1999/xlink" width="512" zoomAndPan="magnify" viewBox="0 0 384 383.999986" height="512" preserveAspectRatio="xMidYMid meet" version="1.0"><defs><g/></defs><g fill="#ffffff" fill-opacity="1"><g transform="translate(95.742187, 218.506624)"><g><path d="M 8.078125 -0.859375 L 4.203125 0.6875 C 3.367188 -0.4375 2.710938 -1.695312 2.234375 -3.09375 C 1.765625 -4.5 1.53125 -5.882812 1.53125 -7.25 C 1.53125 -9.53125 2.25 -11.4375 3.6875 -12.96875 C 5.132812 -14.5 6.914062 -15.265625 9.03125 -15.265625 C 10.789062 -15.265625 12.285156 -14.882812 13.515625 -14.125 C 14.742188 -13.363281 16.054688 -11.769531 17.453125 -9.34375 C 18.484375 -7.570312 19.296875 -6.320312 19.890625 -5.59375 C 20.484375 -4.863281 21.148438 -4.3125 21.890625 -3.9375 C 22.640625 -3.5625 23.535156 -3.375 24.578125 -3.375 C 26.128906 -3.375 27.316406 -3.910156 28.140625 -4.984375 C 28.960938 -6.066406 29.375 -7.578125 29.375 -9.515625 C 29.375 -12.859375 28.347656 -15.867188 26.296875 -18.546875 C 24.242188 -21.234375 21.585938 -22.953125 18.328125 -23.703125 L 1.640625 -23.703125 L 1.640625 -27.59375 L 22.90625 -27.59375 C 24.644531 -27.59375 25.953125 -27.6875 26.828125 -27.875 C 27.710938 -28.0625 28.363281 -28.410156 28.78125 -28.921875 C 29.207031 -29.429688 29.421875 -30.109375 29.421875 -30.953125 C 29.421875 -33.085938 28.335938 -35.210938 26.171875 -37.328125 L 29.421875 -39.5 C 30.785156 -37.96875 31.800781 -36.507812 32.46875 -35.125 C 33.132812 -33.75 33.46875 -32.242188 33.46875 -30.609375 C 33.46875 -28.785156 32.859375 -27.242188 31.640625 -25.984375 C 30.421875 -24.722656 28.523438 -23.988281 25.953125 -23.78125 C 28.378906 -22.101562 30.238281 -20.078125 31.53125 -17.703125 C 32.820312 -15.328125 33.46875 -12.722656 33.46875 -9.890625 C 33.46875 -6.597656 32.644531 -4.023438 31 -2.171875 C 29.363281 -0.328125 27.085938 0.59375 24.171875 0.59375 C 22.722656 0.59375 21.445312 0.34375 20.34375 -0.15625 C 19.25 -0.65625 18.285156 -1.363281 17.453125 -2.28125 C 16.628906 -3.195312 15.710938 -4.519531 14.703125 -6.25 C 13.847656 -7.6875 13.140625 -8.757812 12.578125 -9.46875 C 12.023438 -10.1875 11.484375 -10.691406 10.953125 -10.984375 C 10.421875 -11.273438 9.796875 -11.421875 9.078125 -11.421875 C 7.992188 -11.421875 7.132812 -11.0625 6.5 -10.34375 C 5.875 -9.632812 5.5625 -8.648438 5.5625 -7.390625 C 5.5625 -5.359375 6.398438 -3.179688 8.078125 -0.859375 Z M 15.84375 -40.4375 Z M 13.28125 0 Z M 13.28125 0 "/></g></g></g><g fill="#ffffff" fill-opacity="1"><g transform="translate(131.283505, 218.506624)"><g><path d="M 36.0625 -3.421875 C 35.257812 -2.097656 34.234375 -1.097656 32.984375 -0.421875 C 31.734375 0.253906 30.359375 0.59375 28.859375 0.59375 C 26.921875 0.59375 25.320312 0.285156 24.0625 -0.328125 C 22.8125 -0.953125 21.628906 -2.144531 20.515625 -3.90625 C 19.535156 -2.40625 18.363281 -1.28125 17 -0.53125 C 15.644531 0.21875 13.738281 0.59375 11.28125 0.59375 C 8.414062 0.59375 6.070312 -0.226562 4.25 -1.875 C 2.4375 -3.519531 1.53125 -5.671875 1.53125 -8.328125 C 1.53125 -10.640625 2.226562 -12.53125 3.625 -14 C 5.03125 -15.476562 6.863281 -16.21875 9.125 -16.21875 C 10.90625 -16.21875 12.332031 -15.789062 13.40625 -14.9375 C 14.476562 -14.09375 15.015625 -12.960938 15.015625 -11.546875 C 15.015625 -10.304688 14.796875 -9.320312 14.359375 -8.59375 L 10.9375 -8.90625 C 11.144531 -9.507812 11.25 -10.046875 11.25 -10.515625 C 11.25 -11.234375 11.046875 -11.773438 10.640625 -12.140625 C 10.234375 -12.515625 9.679688 -12.703125 8.984375 -12.703125 C 7.859375 -12.703125 6.96875 -12.320312 6.3125 -11.5625 C 5.664062 -10.800781 5.34375 -9.785156 5.34375 -8.515625 C 5.34375 -6.921875 5.890625 -5.664062 6.984375 -4.75 C 8.085938 -3.832031 9.664062 -3.375 11.71875 -3.375 C 15.914062 -3.375 18.203125 -5.492188 18.578125 -9.734375 L 22.40625 -9.734375 C 22.550781 -7.703125 23.160156 -6.132812 24.234375 -5.03125 C 25.316406 -3.925781 26.734375 -3.375 28.484375 -3.375 C 30.117188 -3.375 31.363281 -3.910156 32.21875 -4.984375 C 33.082031 -6.066406 33.515625 -7.597656 33.515625 -9.578125 C 33.515625 -12.910156 32.46875 -15.921875 30.375 -18.609375 C 28.289062 -21.304688 25.691406 -23.003906 22.578125 -23.703125 L 1.53125 -23.703125 L 1.53125 -27.59375 L 27.046875 -27.59375 C 28.773438 -27.59375 30.078125 -27.679688 30.953125 -27.859375 C 31.835938 -28.035156 32.492188 -28.378906 32.921875 -28.890625 C 33.347656 -29.398438 33.5625 -30.085938 33.5625 -30.953125 C 33.5625 -33.085938 32.484375 -35.210938 30.328125 -37.328125 L 33.5625 -39.5 C 34.9375 -37.96875 35.957031 -36.507812 36.625 -35.125 C 37.289062 -33.75 37.625 -32.242188 37.625 -30.609375 C 37.625 -28.753906 36.992188 -27.195312 35.734375 -25.9375 C 34.472656 -24.675781 32.597656 -23.957031 30.109375 -23.78125 C 32.546875 -22.082031 34.40625 -20.046875 35.6875 -17.671875 C 36.976562 -15.296875 37.625 -12.703125 37.625 -9.890625 C 37.625 -8.992188 37.554688 -8.160156 37.421875 -7.390625 C 38.660156 -6.046875 39.929688 -5.039062 41.234375 -4.375 C 42.535156 -3.707031 43.976562 -3.375 45.5625 -3.375 C 47.53125 -3.375 49.070312 -4.015625 50.1875 -5.296875 C 51.300781 -6.585938 51.859375 -8.328125 51.859375 -10.515625 C 51.859375 -13.691406 51.039062 -16.4375 49.40625 -18.75 C 47.769531 -21.0625 45.316406 -22.941406 42.046875 -24.390625 L 44.1875 -28.265625 C 48.007812 -26.367188 50.925781 -23.910156 52.9375 -20.890625 C 54.945312 -17.878906 55.953125 -14.5 55.953125 -10.75 C 55.953125 -7.25 55.019531 -4.484375 53.15625 -2.453125 C 51.289062 -0.421875 48.703125 0.59375 45.390625 0.59375 C 41.984375 0.59375 38.875 -0.742188 36.0625 -3.421875 Z M 16.015625 -40.4375 Z M 16.015625 -40.4375 "/></g></g></g><g fill="#ffffff" fill-opacity="1"><g transform="translate(189.062557, 218.506624)"><g><path d="M 1.53125 -23.703125 L 1.53125 -27.59375 L 27.984375 -27.59375 L 27.984375 -23.703125 Z M 8.078125 -0.859375 L 4.203125 0.6875 C 3.367188 -0.425781 2.710938 -1.6875 2.234375 -3.09375 C 1.765625 -4.5 1.53125 -5.894531 1.53125 -7.28125 C 1.53125 -9.550781 2.253906 -11.445312 3.703125 -12.96875 C 5.160156 -14.5 6.9375 -15.265625 9.03125 -15.265625 C 10.363281 -15.265625 11.503906 -15.066406 12.453125 -14.671875 C 13.398438 -14.285156 14.242188 -13.703125 14.984375 -12.921875 C 15.722656 -12.140625 16.546875 -10.945312 17.453125 -9.34375 C 18.460938 -7.59375 19.273438 -6.347656 19.890625 -5.609375 C 20.515625 -4.867188 21.1875 -4.3125 21.90625 -3.9375 C 22.632812 -3.5625 23.503906 -3.375 24.515625 -3.375 C 26.054688 -3.375 27.253906 -3.9375 28.109375 -5.0625 C 28.960938 -6.195312 29.390625 -7.75 29.390625 -9.71875 C 29.390625 -11.457031 29.039062 -13.101562 28.34375 -14.65625 C 27.65625 -16.21875 26.613281 -17.785156 25.21875 -19.359375 L 28.59375 -21.734375 C 31.863281 -18.234375 33.5 -14.363281 33.5 -10.125 C 33.5 -6.738281 32.679688 -4.101562 31.046875 -2.21875 C 29.410156 -0.34375 27.117188 0.59375 24.171875 0.59375 C 22.722656 0.59375 21.445312 0.34375 20.34375 -0.15625 C 19.25 -0.65625 18.285156 -1.363281 17.453125 -2.28125 C 16.628906 -3.195312 15.710938 -4.519531 14.703125 -6.25 C 13.847656 -7.6875 13.140625 -8.757812 12.578125 -9.46875 C 12.023438 -10.1875 11.484375 -10.691406 10.953125 -10.984375 C 10.421875 -11.273438 9.796875 -11.421875 9.078125 -11.421875 C 7.992188 -11.421875 7.132812 -11.0625 6.5 -10.34375 C 5.875 -9.632812 5.5625 -8.648438 5.5625 -7.390625 C 5.5625 -5.347656 6.398438 -3.171875 8.078125 -0.859375 Z M 17.0625 -21.625 C 17.875 -21.625 18.554688 -21.332031 19.109375 -20.75 C 19.671875 -20.175781 19.953125 -19.484375 19.953125 -18.671875 C 19.953125 -17.878906 19.671875 -17.191406 19.109375 -16.609375 C 18.554688 -16.035156 17.875 -15.75 17.0625 -15.75 C 16.25 -15.75 15.5625 -16.03125 15 -16.59375 C 14.4375 -17.164062 14.15625 -17.859375 14.15625 -18.671875 C 14.15625 -19.484375 14.4375 -20.175781 15 -20.75 C 15.5625 -21.332031 16.25 -21.625 17.0625 -21.625 Z M 12.921875 0 Z M 12.921875 0 "/></g></g></g><g fill="#ffffff" fill-opacity="1"><g transform="translate(224.506234, 218.506624)"><g><path d="M 5.046875 -9.578125 C 4.890625 -9.117188 4.8125 -8.515625 4.8125 -7.765625 C 4.8125 -6.347656 5.238281 -5.210938 6.09375 -4.359375 C 6.945312 -3.503906 8.179688 -3.078125 9.796875 -3.078125 C 11.859375 -3.078125 13.445312 -3.84375 14.5625 -5.375 C 15.675781 -6.90625 16.234375 -9.125 16.234375 -12.03125 C 16.234375 -14.882812 15.710938 -17.160156 14.671875 -18.859375 C 13.628906 -20.554688 12.285156 -21.785156 10.640625 -22.546875 C 8.992188 -23.316406 6.445312 -23.703125 3 -23.703125 L -8.6875 -23.703125 L -9.1875 -27.59375 L 3.953125 -27.59375 C 7.960938 -27.59375 11.078125 -27.015625 13.296875 -25.859375 C 15.515625 -24.703125 17.242188 -23.003906 18.484375 -20.765625 C 19.734375 -18.523438 20.359375 -15.613281 20.359375 -12.03125 C 20.359375 -8 19.429688 -4.882812 17.578125 -2.6875 C 15.734375 -0.5 13.128906 0.59375 9.765625 0.59375 C 7.140625 0.59375 5.054688 -0.148438 3.515625 -1.640625 C 1.972656 -3.128906 1.203125 -5.046875 1.203125 -7.390625 C 1.203125 -9.441406 1.710938 -11.050781 2.734375 -12.21875 C 3.753906 -13.394531 5.085938 -13.984375 6.734375 -13.984375 C 7.953125 -13.984375 8.910156 -13.679688 9.609375 -13.078125 C 10.316406 -12.484375 10.671875 -11.65625 10.671875 -10.59375 C 10.671875 -9.65625 10.40625 -8.894531 9.875 -8.3125 C 9.34375 -7.738281 8.6875 -7.453125 7.90625 -7.453125 C 7.113281 -7.453125 6.460938 -7.632812 5.953125 -8 C 5.453125 -8.363281 5.148438 -8.890625 5.046875 -9.578125 Z M 5.046875 -9.578125 "/></g></g></g><g fill="#ffffff" fill-opacity="1"><g transform="translate(246.93925, 218.506624)"><g><path d="M 7.453125 8.40625 C 8.960938 9.3125 9.71875 10.707031 9.71875 12.59375 C 9.71875 14.46875 9.046875 15.90625 7.703125 16.90625 C 6.359375 17.90625 4.414062 18.40625 1.875 18.40625 C -0.507812 18.40625 -2.367188 17.894531 -3.703125 16.875 C -5.046875 15.863281 -5.71875 14.460938 -5.71875 12.671875 C -5.71875 10.816406 -4.941406 9.394531 -3.390625 8.40625 L -6.640625 8.5 L -6.640625 5.28125 L 0.859375 5.28125 C 1.828125 4.125 2.3125 2.785156 2.3125 1.265625 C 2.3125 -0.296875 1.816406 -1.976562 0.828125 -3.78125 L 4.546875 -4.828125 C 5.597656 -2.890625 6.125 -0.960938 6.125 0.953125 C 6.125 2.378906 5.644531 3.820312 4.6875 5.28125 L 10.890625 5.28125 L 10.890625 8.5 Z M 2 8.5 C 0.632812 8.5 -0.40625 8.804688 -1.125 9.421875 C -1.84375 10.046875 -2.203125 10.878906 -2.203125 11.921875 C -2.203125 12.960938 -1.835938 13.765625 -1.109375 14.328125 C -0.390625 14.898438 0.644531 15.1875 2 15.1875 C 3.351562 15.1875 4.394531 14.894531 5.125 14.3125 C 5.851562 13.738281 6.21875 12.941406 6.21875 11.921875 C 6.21875 10.835938 5.847656 9.992188 5.109375 9.390625 C 4.367188 8.796875 3.332031 8.5 2 8.5 Z M -2.4375 0 Z M -2.125 2.765625 Z M -2.125 2.765625 "/></g></g></g><g fill="#ffffff" fill-opacity="1"><g transform="translate(255.678118, 218.506624)"><g><path d="M 24.90625 -24.046875 C 26.84375 -22.710938 28.257812 -21.125 29.15625 -19.28125 C 30.050781 -17.445312 30.5 -15.253906 30.5 -12.703125 C 30.5 -10.128906 29.925781 -7.832031 28.78125 -5.8125 C 27.644531 -3.789062 25.992188 -2.21875 23.828125 -1.09375 C 21.660156 0.03125 19.15625 0.59375 16.3125 0.59375 C 13.53125 0.59375 11.050781 0.0625 8.875 -1 C 6.695312 -2.070312 5.019531 -3.617188 3.84375 -5.640625 C 2.664062 -7.660156 2.078125 -10.015625 2.078125 -12.703125 C 2.078125 -17.597656 3.859375 -21.265625 7.421875 -23.703125 L 2.078125 -23.703125 L 2.078125 -27.59375 L 19.921875 -27.59375 C 21.648438 -27.59375 22.953125 -27.679688 23.828125 -27.859375 C 24.703125 -28.035156 25.351562 -28.378906 25.78125 -28.890625 C 26.21875 -29.398438 26.4375 -30.085938 26.4375 -30.953125 C 26.4375 -33.085938 25.351562 -35.210938 23.1875 -37.328125 L 26.4375 -39.5 C 27.800781 -37.96875 28.816406 -36.507812 29.484375 -35.125 C 30.160156 -33.75 30.5 -32.242188 30.5 -30.609375 C 30.5 -28.984375 30.015625 -27.582031 29.046875 -26.40625 C 28.078125 -25.226562 26.695312 -24.441406 24.90625 -24.046875 Z M 16.375 -23.703125 C 13.320312 -23.703125 10.859375 -22.773438 8.984375 -20.921875 C 7.109375 -19.066406 6.171875 -16.609375 6.171875 -13.546875 C 6.171875 -10.410156 7.078125 -7.945312 8.890625 -6.15625 C 10.710938 -4.363281 13.191406 -3.46875 16.328125 -3.46875 C 19.472656 -3.46875 21.9375 -4.390625 23.71875 -6.234375 C 25.5 -8.085938 26.390625 -10.523438 26.390625 -13.546875 C 26.390625 -16.609375 25.457031 -19.066406 23.59375 -20.921875 C 21.726562 -22.773438 19.320312 -23.703125 16.375 -23.703125 Z M 15.5 -40.4375 Z M 15.5 -40.4375 "/></g></g></g></svg>