<svg xmlns="http://www.w3.org/2000/svg" xmlns:xlink="http://www.w3.org/1999/xlink" width="512" zoomAndPan="magnify" viewBox="0 0 384 383.999986" height="512" preserveAspectRatio="xMidYMid meet" version="1.0"><defs><g/></defs><g fill="#ffffff" fill-opacity="1"><g transform="translate(145.324215, 218.506624)"><g><path d="M 3.703125 19.65625 C 3.097656 17.488281 2.59375 15.34375 2.1875 13.21875 C 1.789062 11.101562 1.492188 9.160156 1.296875 7.390625 C 1.097656 5.628906 1 4.179688 1 3.046875 C 1 1.015625 1.363281 -0.671875 2.09375 -2.015625 C 2.832031 -3.367188 3.816406 -4.421875 5.046875 -5.171875 C 6.285156 -5.921875 7.660156 -6.425781 9.171875 -6.6875 C 10.691406 -6.957031 12.257812 -7.050781 13.875 -6.96875 C 15.488281 -6.882812 17.015625 -6.675781 18.453125 -6.34375 C 18.546875 -7.84375 18.394531 -9.257812 18 -10.59375 C 17.601562 -11.925781 16.96875 -13 16.09375 -13.8125 C 15.226562 -14.632812 14.164062 -15.046875 12.90625 -15.046875 C 10.46875 -15.046875 8.363281 -13.378906 6.59375 -10.046875 L 3.5 -11.75 C 4.769531 -14.445312 6.257812 -16.34375 7.96875 -17.4375 C 9.6875 -18.539062 11.414062 -19.09375 13.15625 -19.09375 C 14.851562 -19.09375 16.285156 -18.734375 17.453125 -18.015625 C 18.617188 -17.304688 19.539062 -16.375 20.21875 -15.21875 C 20.90625 -14.070312 21.40625 -12.835938 21.71875 -11.515625 C 22.039062 -10.203125 22.203125 -8.945312 22.203125 -7.75 C 22.203125 -6.519531 21.984375 -5.296875 21.546875 -4.078125 C 21.117188 -2.859375 20.71875 -1.984375 20.34375 -1.453125 C 17.3125 -2.347656 14.65625 -2.820312 12.375 -2.875 C 10.09375 -2.925781 8.304688 -2.457031 7.015625 -1.46875 C 5.734375 -0.488281 5.09375 1.097656 5.09375 3.296875 C 5.09375 4.566406 5.191406 6.039062 5.390625 7.71875 C 5.597656 9.40625 5.882812 11.191406 6.25 13.078125 C 6.613281 14.960938 7.046875 16.820312 7.546875 18.65625 Z M 3.703125 19.65625 "/></g></g></g><g fill="#ffffff" fill-opacity="1"><g transform="translate(169.520468, 218.506624)"><g><path d="M 7.09375 0.25 C 6.195312 0.25 5.289062 0.171875 4.375 0.015625 C 3.457031 -0.128906 2.816406 -0.234375 2.453125 -0.296875 L 3 -4.25 C 6 -3.851562 8.738281 -3.894531 11.21875 -4.375 C 13.707031 -4.851562 15.6875 -6.0625 17.15625 -8 C 15.851562 -10.132812 13.898438 -12.722656 11.296875 -15.765625 C 8.703125 -18.816406 5.601562 -21.960938 2 -25.203125 L 4.703125 -28.046875 C 8.234375 -24.710938 11.148438 -21.695312 13.453125 -19 C 15.753906 -16.300781 17.601562 -13.953125 19 -11.953125 C 19.394531 -13.378906 19.628906 -15.007812 19.703125 -16.84375 L 19 -35.703125 L 23.09375 -35.703125 L 24.09375 -9.953125 C 24.164062 -8.316406 24.328125 -7.054688 24.578125 -6.171875 C 24.828125 -5.285156 25.390625 -4.675781 26.265625 -4.34375 C 27.148438 -4.007812 28.546875 -3.84375 30.453125 -3.84375 C 31.148438 -3.84375 31.65625 -3.648438 31.96875 -3.265625 C 32.289062 -2.890625 32.453125 -2.4375 32.453125 -1.90625 C 32.453125 -1.363281 32.21875 -0.867188 31.75 -0.421875 C 31.28125 0.0234375 30.679688 0.25 29.953125 0.25 C 27.617188 0.25 25.765625 0.0234375 24.390625 -0.421875 C 23.023438 -0.867188 22.023438 -1.566406 21.390625 -2.515625 C 20.765625 -3.472656 20.351562 -4.703125 20.15625 -6.203125 C 19.113281 -4.367188 17.84375 -2.984375 16.34375 -2.046875 C 14.84375 -1.117188 13.285156 -0.503906 11.671875 -0.203125 C 10.054688 0.0976562 8.53125 0.25 7.09375 0.25 Z M 7.09375 0.25 "/></g></g></g><g fill="#ffffff" fill-opacity="1"><g transform="translate(199.465832, 218.506624)"><g><path d="M 0 0.25 L 0.5 -3.84375 C 1.5625 -3.84375 2.425781 -3.914062 3.09375 -4.0625 C 3.757812 -4.21875 4.316406 -4.601562 4.765625 -5.21875 C 5.222656 -5.84375 5.648438 -6.820312 6.046875 -8.15625 C 6.453125 -9.488281 6.921875 -11.351562 7.453125 -13.75 L 11.203125 -12.703125 C 11.003906 -11.835938 10.769531 -10.820312 10.5 -9.65625 C 10.226562 -8.488281 10.09375 -7.4375 10.09375 -6.5 C 10.09375 -5.664062 10.410156 -5.015625 11.046875 -4.546875 C 11.679688 -4.078125 12.832031 -3.84375 14.5 -3.84375 C 15.5 -3.84375 16.316406 -3.925781 16.953125 -4.09375 C 17.585938 -4.257812 18.113281 -4.660156 18.53125 -5.296875 C 18.945312 -5.929688 19.320312 -6.941406 19.65625 -8.328125 C 19.988281 -9.710938 20.335938 -11.632812 20.703125 -14.09375 L 24.5 -13.40625 C 24.394531 -12.800781 24.269531 -12.066406 24.125 -11.203125 C 23.976562 -10.335938 23.851562 -9.476562 23.75 -8.625 C 23.644531 -7.769531 23.59375 -7.0625 23.59375 -6.5 C 23.59375 -6.03125 23.703125 -5.585938 23.921875 -5.171875 C 24.140625 -4.753906 24.570312 -4.425781 25.21875 -4.1875 C 25.875 -3.957031 26.851562 -3.84375 28.15625 -3.84375 C 29.582031 -3.84375 30.726562 -4.125 31.59375 -4.6875 C 32.46875 -5.257812 32.90625 -6.414062 32.90625 -8.15625 C 32.90625 -9.382812 32.613281 -10.960938 32.03125 -12.890625 C 31.445312 -14.828125 30.785156 -16.75 30.046875 -18.65625 L 34.09375 -20.15625 C 34.5 -19.050781 34.898438 -17.820312 35.296875 -16.46875 C 35.703125 -15.125 36.035156 -13.785156 36.296875 -12.453125 C 36.566406 -11.117188 36.703125 -9.953125 36.703125 -8.953125 C 36.703125 -5.847656 35.929688 -3.535156 34.390625 -2.015625 C 32.859375 -0.503906 30.757812 0.25 28.09375 0.25 C 26.257812 0.25 24.816406 0.0078125 23.765625 -0.46875 C 22.722656 -0.957031 21.96875 -1.71875 21.5 -2.75 C 20.695312 -1.519531 19.738281 -0.710938 18.625 -0.328125 C 17.507812 0.0546875 15.9375 0.25 13.90625 0.25 C 13.195312 0.25 12.453125 0.164062 11.671875 0 C 10.890625 -0.164062 10.164062 -0.488281 9.5 -0.96875 C 8.832031 -1.457031 8.316406 -2.1875 7.953125 -3.15625 C 7.085938 -1.6875 6.007812 -0.75 4.71875 -0.34375 C 3.4375 0.0507812 1.863281 0.25 0 0.25 Z M 0 0.25 "/></g></g></g></svg>