<svg xmlns="http://www.w3.org/2000/svg" xmlns:xlink="http://www.w3.org/1999/xlink" width="512" zoomAndPan="magnify" viewBox="0 0 384 383.999986" height="512" preserveAspectRatio="xMidYMid meet" version="1.0"><defs><g/></defs><g fill="#ffffff" fill-opacity="1"><g transform="translate(144.128902, 218.50674)"><g><path d="M 36.09375 -0.59375 C 36.195312 -0.59375 36.25 -0.492188 36.25 -0.296875 C 36.25 -0.0976562 36.195312 0 36.09375 0 C 35.0625 0 34.25 -0.015625 33.65625 -0.046875 L 30.203125 -0.09375 L 26.5 -0.046875 C 25.9375 -0.015625 25.15625 0 24.15625 0 C 24.050781 0 24 -0.0976562 24 -0.296875 C 24 -0.492188 24.050781 -0.59375 24.15625 -0.59375 C 25.445312 -0.59375 26.394531 -0.675781 27 -0.84375 C 27.601562 -1.007812 28.007812 -1.332031 28.21875 -1.8125 C 28.4375 -2.300781 28.546875 -3.046875 28.546875 -4.046875 L 28.546875 -15.75 L 9.34375 -15.75 L 9.34375 -4.046875 C 9.34375 -3.046875 9.453125 -2.300781 9.671875 -1.8125 C 9.890625 -1.332031 10.296875 -1.007812 10.890625 -0.84375 C 11.492188 -0.675781 12.445312 -0.59375 13.75 -0.59375 C 13.8125 -0.59375 13.84375 -0.492188 13.84375 -0.296875 C 13.84375 -0.0976562 13.8125 0 13.75 0 C 12.71875 0 11.898438 -0.015625 11.296875 -0.046875 L 7.703125 -0.09375 L 4.25 -0.046875 C 3.644531 -0.015625 2.8125 0 1.75 0 C 1.6875 0 1.65625 -0.0976562 1.65625 -0.296875 C 1.65625 -0.492188 1.6875 -0.59375 1.75 -0.59375 C 3.019531 -0.59375 3.960938 -0.675781 4.578125 -0.84375 C 5.191406 -1.007812 5.609375 -1.332031 5.828125 -1.8125 C 6.046875 -2.300781 6.15625 -3.046875 6.15625 -4.046875 L 6.15625 -27.203125 C 6.15625 -28.203125 6.046875 -28.929688 5.828125 -29.390625 C 5.609375 -29.859375 5.195312 -30.1875 4.59375 -30.375 C 4 -30.5625 3.066406 -30.65625 1.796875 -30.65625 C 1.734375 -30.65625 1.703125 -30.753906 1.703125 -30.953125 C 1.703125 -31.148438 1.734375 -31.25 1.796875 -31.25 L 4.34375 -31.203125 C 5.75 -31.128906 6.867188 -31.09375 7.703125 -31.09375 C 8.671875 -31.09375 9.882812 -31.128906 11.34375 -31.203125 L 13.75 -31.25 C 13.8125 -31.25 13.84375 -31.148438 13.84375 -30.953125 C 13.84375 -30.753906 13.8125 -30.65625 13.75 -30.65625 C 12.476562 -30.65625 11.535156 -30.550781 10.921875 -30.34375 C 10.304688 -30.144531 9.890625 -29.800781 9.671875 -29.3125 C 9.453125 -28.832031 9.34375 -28.09375 9.34375 -27.09375 L 9.34375 -16.796875 L 28.546875 -16.796875 L 28.546875 -27.09375 C 28.546875 -28.09375 28.4375 -28.832031 28.21875 -29.3125 C 28.007812 -29.800781 27.601562 -30.144531 27 -30.34375 C 26.394531 -30.550781 25.445312 -30.65625 24.15625 -30.65625 C 24.050781 -30.65625 24 -30.753906 24 -30.953125 C 24 -31.148438 24.050781 -31.25 24.15625 -31.25 L 26.5 -31.203125 C 27.96875 -31.128906 29.203125 -31.09375 30.203125 -31.09375 C 31.097656 -31.09375 32.25 -31.128906 33.65625 -31.203125 L 36.09375 -31.25 C 36.195312 -31.25 36.25 -31.148438 36.25 -30.953125 C 36.25 -30.753906 36.195312 -30.65625 36.09375 -30.65625 C 34.832031 -30.65625 33.898438 -30.5625 33.296875 -30.375 C 32.703125 -30.1875 32.296875 -29.859375 32.078125 -29.390625 C 31.859375 -28.929688 31.75 -28.203125 31.75 -27.203125 L 31.75 -4.046875 C 31.75 -3.046875 31.859375 -2.300781 32.078125 -1.8125 C 32.296875 -1.332031 32.703125 -1.007812 33.296875 -0.84375 C 33.898438 -0.675781 34.832031 -0.59375 36.09375 -0.59375 Z M 36.09375 -0.59375 "/></g></g></g><g fill="#ffffff" fill-opacity="1"><g transform="translate(182.073021, 218.50674)"><g><path d="M 11.546875 0.65625 C 9.617188 0.65625 7.910156 0.179688 6.421875 -0.765625 C 4.941406 -1.722656 3.800781 -3.007812 3 -4.625 C 2.195312 -6.238281 1.796875 -8 1.796875 -9.90625 C 1.796875 -12.070312 2.320312 -13.910156 3.375 -15.421875 C 4.425781 -16.941406 5.773438 -18.078125 7.421875 -18.828125 C 9.078125 -19.578125 10.753906 -19.953125 12.453125 -19.953125 C 14.421875 -19.953125 16.132812 -19.46875 17.59375 -18.5 C 19.0625 -17.53125 20.1875 -16.253906 20.96875 -14.671875 C 21.757812 -13.085938 22.15625 -11.414062 22.15625 -9.65625 C 22.15625 -7.582031 21.671875 -5.769531 20.703125 -4.21875 C 19.734375 -2.675781 18.441406 -1.476562 16.828125 -0.625 C 15.210938 0.226562 13.453125 0.65625 11.546875 0.65625 Z M 13 -0.296875 C 14.832031 -0.296875 16.25 -0.945312 17.25 -2.25 C 18.25 -3.550781 18.75 -5.550781 18.75 -8.25 C 18.75 -10.3125 18.40625 -12.160156 17.71875 -13.796875 C 17.039062 -15.429688 16.097656 -16.707031 14.890625 -17.625 C 13.691406 -18.539062 12.328125 -19 10.796875 -19 C 8.992188 -19 7.601562 -18.347656 6.625 -17.046875 C 5.644531 -15.742188 5.15625 -13.878906 5.15625 -11.453125 C 5.15625 -9.421875 5.488281 -7.550781 6.15625 -5.84375 C 6.820312 -4.144531 7.753906 -2.796875 8.953125 -1.796875 C 10.148438 -0.796875 11.5 -0.296875 13 -0.296875 Z M 13 -0.296875 "/></g></g></g><g fill="#ffffff" fill-opacity="1"><g transform="translate(206.019313, 218.50674)"><g><path d="M 2 0 C 1.894531 0 1.84375 -0.0976562 1.84375 -0.296875 C 1.84375 -0.492188 1.894531 -0.59375 2 -0.59375 C 2.894531 -0.59375 3.5625 -0.6875 4 -0.875 C 4.4375 -1.0625 4.738281 -1.394531 4.90625 -1.875 C 5.070312 -2.351562 5.15625 -3.078125 5.15625 -4.046875 L 5.15625 -29.90625 C 5.15625 -31.101562 5.035156 -31.96875 4.796875 -32.5 C 4.566406 -33.03125 4.148438 -33.296875 3.546875 -33.296875 C 3.046875 -33.296875 2.28125 -33.0625 1.25 -32.59375 L 1.15625 -32.59375 C 1.050781 -32.59375 0.972656 -32.675781 0.921875 -32.84375 C 0.867188 -33.007812 0.894531 -33.113281 1 -33.15625 L 7.40625 -36.203125 C 7.46875 -36.234375 7.550781 -36.25 7.65625 -36.25 C 7.71875 -36.25 7.804688 -36.207031 7.921875 -36.125 C 8.035156 -36.039062 8.09375 -35.945312 8.09375 -35.84375 L 8.09375 -4.046875 C 8.09375 -3.078125 8.164062 -2.359375 8.3125 -1.890625 C 8.46875 -1.429688 8.757812 -1.097656 9.1875 -0.890625 C 9.625 -0.691406 10.296875 -0.59375 11.203125 -0.59375 C 11.296875 -0.59375 11.34375 -0.492188 11.34375 -0.296875 C 11.34375 -0.0976562 11.296875 0 11.203125 0 C 10.460938 0 9.863281 -0.015625 9.40625 -0.046875 L 6.59375 -0.09375 L 3.90625 -0.046875 C 3.4375 -0.015625 2.800781 0 2 0 Z M 2 0 "/></g></g></g><g fill="#ffffff" fill-opacity="1"><g transform="translate(218.917318, 218.50674)"><g><path d="M 20.75 -2.703125 C 20.882812 -2.703125 20.96875 -2.625 21 -2.46875 C 21.03125 -2.320312 20.976562 -2.21875 20.84375 -2.15625 L 15.703125 0.296875 C 15.566406 0.367188 15.429688 0.40625 15.296875 0.40625 C 14.867188 0.40625 14.488281 0.113281 14.15625 -0.46875 C 13.820312 -1.050781 13.601562 -1.84375 13.5 -2.84375 L 10.90625 -1.15625 C 10.070312 -0.613281 9.335938 -0.226562 8.703125 0 C 8.066406 0.226562 7.398438 0.34375 6.703125 0.34375 C 5.460938 0.34375 4.5 0.0195312 3.8125 -0.625 C 3.132812 -1.269531 2.796875 -2.09375 2.796875 -3.09375 C 2.796875 -4.09375 3.195312 -4.957031 4 -5.6875 C 4.800781 -6.425781 6.117188 -7.128906 7.953125 -7.796875 L 13.453125 -9.84375 L 13.453125 -13.25 C 13.453125 -16.976562 12.398438 -18.84375 10.296875 -18.84375 C 9.160156 -18.84375 8.300781 -18.46875 7.71875 -17.71875 C 7.132812 -16.96875 6.742188 -16.113281 6.546875 -15.15625 C 6.453125 -14.550781 6.269531 -14.054688 6 -13.671875 C 5.726562 -13.285156 5.28125 -13.09375 4.65625 -13.09375 C 4.113281 -13.09375 3.703125 -13.242188 3.421875 -13.546875 C 3.140625 -13.847656 3 -14.195312 3 -14.59375 C 3 -15.394531 3.515625 -16.195312 4.546875 -17 C 5.578125 -17.800781 6.8125 -18.46875 8.25 -19 C 9.6875 -19.53125 10.96875 -19.796875 12.09375 -19.796875 C 13.46875 -19.796875 14.503906 -19.363281 15.203125 -18.5 C 15.898438 -17.632812 16.25 -16.382812 16.25 -14.75 L 16.25 -5.40625 C 16.25 -4.238281 16.398438 -3.382812 16.703125 -2.84375 C 17.003906 -2.3125 17.503906 -2.046875 18.203125 -2.046875 C 18.835938 -2.046875 19.65625 -2.265625 20.65625 -2.703125 Z M 13.453125 -3.546875 L 13.453125 -9.15625 L 8.796875 -7.34375 C 7.867188 -6.976562 7.195312 -6.550781 6.78125 -6.0625 C 6.363281 -5.582031 6.15625 -5.007812 6.15625 -4.34375 C 6.15625 -3.550781 6.410156 -2.878906 6.921875 -2.328125 C 7.441406 -1.773438 8.117188 -1.5 8.953125 -1.5 C 9.617188 -1.5 10.414062 -1.765625 11.34375 -2.296875 Z M 13.453125 -3.546875 "/></g></g></g></svg>