<svg xmlns="http://www.w3.org/2000/svg" xmlns:xlink="http://www.w3.org/1999/xlink" width="512" zoomAndPan="magnify" viewBox="0 0 384 383.999986" height="512" preserveAspectRatio="xMidYMid meet" version="1.0"><defs><g/></defs><g fill="#ffffff" fill-opacity="1"><g transform="translate(83.121094, 218.50674)"><g><path d="M 7.9375 -0.703125 L 3.875 0.65625 C 3.03125 -0.707031 2.414062 -2.007812 2.03125 -3.25 C 1.65625 -4.488281 1.46875 -5.78125 1.46875 -7.125 C 1.46875 -9.175781 2.101562 -10.882812 3.375 -12.25 C 4.65625 -13.625 6.273438 -14.3125 8.234375 -14.3125 C 9.367188 -14.3125 10.347656 -14.128906 11.171875 -13.765625 C 12.003906 -13.410156 12.753906 -12.914062 13.421875 -12.28125 C 14.085938 -11.644531 15.070312 -10.460938 16.375 -8.734375 C 18.164062 -6.359375 19.550781 -4.859375 20.53125 -4.234375 C 21.507812 -3.609375 22.625 -3.296875 23.875 -3.296875 C 25.550781 -3.296875 26.847656 -3.835938 27.765625 -4.921875 C 28.691406 -6.003906 29.15625 -7.578125 29.15625 -9.640625 C 29.15625 -11.984375 28.53125 -14.03125 27.28125 -15.78125 C 26.039062 -17.53125 24.265625 -18.875 21.953125 -19.8125 C 19.648438 -20.75 17.035156 -21.21875 14.109375 -21.21875 L 12.15625 -21.21875 L 15.796875 -24.96875 C 21.316406 -24.632812 25.613281 -23.070312 28.6875 -20.28125 C 31.757812 -17.5 33.296875 -13.96875 33.296875 -9.6875 C 33.296875 -6.445312 32.445312 -3.914062 30.75 -2.09375 C 29.050781 -0.269531 26.660156 0.640625 23.578125 0.640625 C 21.535156 0.640625 19.765625 0.15625 18.265625 -0.8125 C 16.765625 -1.78125 14.941406 -3.722656 12.796875 -6.640625 C 11.609375 -8.234375 10.734375 -9.269531 10.171875 -9.75 C 9.609375 -10.226562 8.953125 -10.46875 8.203125 -10.46875 C 7.441406 -10.46875 6.8125 -10.160156 6.3125 -9.546875 C 5.8125 -8.929688 5.5625 -8.132812 5.5625 -7.15625 C 5.5625 -6.0625 5.742188 -5.003906 6.109375 -3.984375 C 6.484375 -2.972656 7.09375 -1.878906 7.9375 -0.703125 Z M 17.53125 1.21875 Z M 35.078125 1.21875 Z M 12.203125 0 Z M 8.859375 -29.5625 C 9.191406 -28.3125 9.507812 -27.359375 9.8125 -26.703125 C 10.125 -26.054688 10.453125 -25.601562 10.796875 -25.34375 C 11.148438 -25.09375 11.585938 -24.96875 12.109375 -24.96875 C 12.765625 -24.96875 13.382812 -25.171875 13.96875 -25.578125 C 14.550781 -25.992188 15.378906 -26.890625 16.453125 -28.265625 L 18 -30.28125 C 19.71875 -32.539062 21.285156 -34.097656 22.703125 -34.953125 C 24.117188 -35.804688 25.878906 -36.238281 27.984375 -36.25 L 28.25 -32.390625 C 27.09375 -32.328125 26.15625 -32.15625 25.4375 -31.875 C 24.726562 -31.601562 24.066406 -31.203125 23.453125 -30.671875 C 22.835938 -30.148438 21.992188 -29.195312 20.921875 -27.8125 L 19.78125 -26.3125 C 18.414062 -24.539062 17.125 -23.25 15.90625 -22.4375 C 14.695312 -21.625 13.335938 -21.21875 11.828125 -21.21875 C 9.921875 -21.21875 8.410156 -21.832031 7.296875 -23.0625 C 6.179688 -24.289062 5.320312 -26.007812 4.71875 -28.21875 Z M 15.65625 -43.453125 Z M 15.65625 -43.453125 "/></g></g></g><g fill="#ffffff" fill-opacity="1"><g transform="translate(118.198618, 218.50674)"><g><path d="M 16.0625 -3.546875 C 14.90625 -1.960938 13.773438 -0.867188 12.671875 -0.265625 C 11.566406 0.335938 10.265625 0.640625 8.765625 0.640625 C 6.472656 0.640625 4.679688 -0.046875 3.390625 -1.421875 C 2.109375 -2.796875 1.46875 -4.601562 1.46875 -6.84375 C 1.46875 -8.957031 2.132812 -10.6875 3.46875 -12.03125 C 4.800781 -13.382812 6.484375 -14.0625 8.515625 -14.0625 C 10.015625 -14.0625 11.367188 -13.695312 12.578125 -12.96875 C 13.796875 -12.25 15.40625 -10.597656 17.40625 -8.015625 C 18.875 -6.085938 20.082031 -4.816406 21.03125 -4.203125 C 21.988281 -3.597656 23.097656 -3.296875 24.359375 -3.296875 C 26.066406 -3.296875 27.375 -3.835938 28.28125 -4.921875 C 29.1875 -6.015625 29.640625 -7.582031 29.640625 -9.625 C 29.640625 -11.96875 29.015625 -14.015625 27.765625 -15.765625 C 26.523438 -17.515625 24.753906 -18.859375 22.453125 -19.796875 C 20.148438 -20.742188 17.53125 -21.21875 14.59375 -21.21875 L 12.640625 -21.21875 L 16.28125 -24.96875 C 21.800781 -24.632812 26.097656 -23.070312 29.171875 -20.28125 C 32.253906 -17.5 33.796875 -13.96875 33.796875 -9.6875 C 33.796875 -9.070312 33.753906 -8.472656 33.671875 -7.890625 C 34.972656 -6.296875 36.257812 -5.128906 37.53125 -4.390625 C 38.8125 -3.660156 40.203125 -3.296875 41.703125 -3.296875 C 43.410156 -3.296875 44.710938 -3.835938 45.609375 -4.921875 C 46.503906 -6.003906 46.953125 -7.570312 46.953125 -9.625 C 46.953125 -12.09375 46.238281 -14.28125 44.8125 -16.1875 C 43.382812 -18.09375 41.175781 -19.738281 38.1875 -21.125 L 40.046875 -24.96875 C 43.472656 -23.476562 46.171875 -21.394531 48.140625 -18.71875 C 50.109375 -16.050781 51.09375 -13.109375 51.09375 -9.890625 C 51.09375 -6.535156 50.253906 -3.941406 48.578125 -2.109375 C 46.898438 -0.273438 44.5 0.640625 41.375 0.640625 C 37.976562 0.640625 34.992188 -0.828125 32.421875 -3.765625 C 31.578125 -2.296875 30.457031 -1.191406 29.0625 -0.453125 C 27.675781 0.273438 26.015625 0.640625 24.078125 0.640625 C 22.523438 0.640625 21.125 0.316406 19.875 -0.328125 C 18.625 -0.984375 17.351562 -2.054688 16.0625 -3.546875 Z M 13.578125 -6.640625 C 12.398438 -8.179688 11.484375 -9.179688 10.828125 -9.640625 C 10.179688 -10.097656 9.445312 -10.328125 8.625 -10.328125 C 7.644531 -10.328125 6.859375 -10.003906 6.265625 -9.359375 C 5.671875 -8.722656 5.375 -7.859375 5.375 -6.765625 C 5.375 -5.691406 5.695312 -4.8125 6.34375 -4.125 C 7 -3.4375 7.878906 -3.09375 8.984375 -3.09375 C 10.054688 -3.09375 10.960938 -3.398438 11.703125 -4.015625 C 12.441406 -4.628906 13.066406 -5.503906 13.578125 -6.640625 Z M 26.4375 1.21875 Z M 52.875 1.21875 Z M 8.984375 -29.5625 C 9.316406 -28.3125 9.632812 -27.359375 9.9375 -26.703125 C 10.25 -26.054688 10.578125 -25.601562 10.921875 -25.34375 C 11.273438 -25.09375 11.710938 -24.96875 12.234375 -24.96875 C 12.890625 -24.96875 13.507812 -25.171875 14.09375 -25.578125 C 14.675781 -25.992188 15.503906 -26.890625 16.578125 -28.265625 L 18.125 -30.28125 C 19.84375 -32.539062 21.410156 -34.097656 22.828125 -34.953125 C 24.242188 -35.804688 26.003906 -36.238281 28.109375 -36.25 L 28.375 -32.390625 C 27.21875 -32.328125 26.28125 -32.15625 25.5625 -31.875 C 24.851562 -31.601562 24.191406 -31.203125 23.578125 -30.671875 C 22.960938 -30.148438 22.117188 -29.195312 21.046875 -27.8125 L 19.90625 -26.3125 C 18.539062 -24.539062 17.25 -23.25 16.03125 -22.4375 C 14.820312 -21.625 13.460938 -21.21875 11.953125 -21.21875 C 10.046875 -21.21875 8.535156 -21.832031 7.421875 -23.0625 C 6.304688 -24.289062 5.445312 -26.007812 4.84375 -28.21875 Z M 15.78125 -43.453125 Z M 15.78125 -43.453125 "/></g></g></g><g fill="#ffffff" fill-opacity="1"><g transform="translate(171.071211, 218.50674)"><g><path d="M 24.359375 -22.234375 L 23.953125 -23.4375 C 20.460938 -27.019531 16.34375 -29.742188 11.59375 -31.609375 L 13.53125 -35.625 C 16.550781 -34.332031 19.367188 -32.671875 21.984375 -30.640625 C 24.609375 -28.617188 26.8125 -26.421875 28.59375 -24.046875 L 29.15625 -22.75 C 31.914062 -18.875 33.296875 -14.585938 33.296875 -9.890625 C 33.296875 -6.566406 32.453125 -3.976562 30.765625 -2.125 C 29.085938 -0.28125 26.691406 0.640625 23.578125 0.640625 C 21.535156 0.640625 19.765625 0.15625 18.265625 -0.8125 C 16.765625 -1.78125 14.941406 -3.722656 12.796875 -6.640625 C 11.609375 -8.234375 10.734375 -9.269531 10.171875 -9.75 C 9.609375 -10.226562 8.953125 -10.46875 8.203125 -10.46875 C 7.441406 -10.46875 6.8125 -10.160156 6.3125 -9.546875 C 5.8125 -8.929688 5.5625 -8.132812 5.5625 -7.15625 C 5.5625 -6.0625 5.742188 -5.003906 6.109375 -3.984375 C 6.484375 -2.972656 7.09375 -1.878906 7.9375 -0.703125 L 3.875 0.65625 C 3.03125 -0.707031 2.414062 -2.007812 2.03125 -3.25 C 1.65625 -4.488281 1.46875 -5.78125 1.46875 -7.125 C 1.46875 -9.175781 2.101562 -10.882812 3.375 -12.25 C 4.65625 -13.625 6.273438 -14.3125 8.234375 -14.3125 C 9.367188 -14.3125 10.351562 -14.128906 11.1875 -13.765625 C 12.03125 -13.410156 12.785156 -12.914062 13.453125 -12.28125 C 14.117188 -11.644531 15.09375 -10.460938 16.375 -8.734375 C 17.550781 -7.140625 18.488281 -6 19.1875 -5.3125 C 19.882812 -4.632812 20.601562 -4.128906 21.34375 -3.796875 C 22.09375 -3.460938 22.9375 -3.296875 23.875 -3.296875 C 25.632812 -3.296875 26.953125 -3.835938 27.828125 -4.921875 C 28.710938 -6.015625 29.15625 -7.660156 29.15625 -9.859375 C 29.15625 -14.203125 27.554688 -18.328125 24.359375 -22.234375 Z M 17.53125 1.21875 Z M 35.078125 1.21875 Z M 14.890625 -43.453125 Z M 10.515625 -24.96875 Z M 10.109375 -31.6875 Z M 12.203125 0 Z M 40.921875 -24.96875 C 42.828125 -24.96875 44.351562 -24.863281 45.5 -24.65625 C 46.644531 -24.457031 47.679688 -24.054688 48.609375 -23.453125 C 49.535156 -22.859375 50.25 -22.078125 50.75 -21.109375 C 51.257812 -20.140625 51.515625 -18.9375 51.515625 -17.5 C 51.515625 -15.5 50.875 -13.90625 49.59375 -12.71875 C 48.320312 -11.53125 46.609375 -10.9375 44.453125 -10.9375 C 42.328125 -10.9375 40.648438 -11.535156 39.421875 -12.734375 C 38.203125 -13.929688 37.59375 -15.414062 37.59375 -17.1875 C 37.59375 -18.632812 37.953125 -19.976562 38.671875 -21.21875 L 4.859375 -21.21875 L 4.859375 -24.96875 Z M 42.53125 -21.21875 C 41.6875 -20.09375 41.265625 -18.878906 41.265625 -17.578125 C 41.265625 -16.566406 41.566406 -15.753906 42.171875 -15.140625 C 42.785156 -14.535156 43.601562 -14.234375 44.625 -14.234375 C 45.632812 -14.234375 46.425781 -14.523438 47 -15.109375 C 47.570312 -15.691406 47.859375 -16.472656 47.859375 -17.453125 C 47.859375 -18.722656 47.484375 -19.664062 46.734375 -20.28125 C 45.984375 -20.90625 44.800781 -21.21875 43.1875 -21.21875 Z M 42.53125 -21.21875 "/></g></g></g><g fill="#ffffff" fill-opacity="1"><g transform="translate(222.94296, 218.50674)"><g><path d="M 14.796875 0 C 15.742188 0.976562 16.476562 2.140625 17 3.484375 C 17.53125 4.835938 17.796875 6.132812 17.796875 7.375 C 17.796875 10.332031 16.910156 12.648438 15.140625 14.328125 C 13.378906 16.003906 10.984375 16.84375 7.953125 16.84375 C 4.796875 16.84375 2.363281 15.960938 0.65625 14.203125 C -1.050781 12.453125 -1.90625 10.09375 -1.90625 7.125 C -1.90625 6 -1.773438 4.882812 -1.515625 3.78125 C -1.253906 2.675781 -0.898438 1.613281 -0.453125 0.59375 C -0.015625 -0.414062 0.679688 -1.796875 1.640625 -3.546875 C 2.660156 -5.441406 3.375 -6.832031 3.78125 -7.71875 C 4.1875 -8.613281 4.515625 -9.546875 4.765625 -10.515625 C 5.023438 -11.484375 5.15625 -12.429688 5.15625 -13.359375 C 5.15625 -15.359375 4.765625 -16.984375 3.984375 -18.234375 C 3.210938 -19.492188 2.070312 -20.691406 0.5625 -21.828125 L 3.203125 -24.96875 C 5.054688 -23.507812 6.515625 -21.890625 7.578125 -20.109375 C 8.648438 -18.328125 9.1875 -16.148438 9.1875 -13.578125 C 9.1875 -12.359375 8.984375 -11.007812 8.578125 -9.53125 C 8.179688 -8.0625 7.191406 -5.878906 5.609375 -2.984375 C 4.617188 -1.128906 3.90625 0.273438 3.46875 1.234375 C 3.03125 2.203125 2.679688 3.175781 2.421875 4.15625 C 2.171875 5.144531 2.046875 6.09375 2.046875 7 C 2.046875 9.007812 2.554688 10.554688 3.578125 11.640625 C 4.609375 12.734375 6.066406 13.28125 7.953125 13.28125 C 9.859375 13.28125 11.316406 12.765625 12.328125 11.734375 C 13.335938 10.703125 13.84375 9.273438 13.84375 7.453125 C 13.84375 5.984375 13.460938 4.546875 12.703125 3.140625 C 11.953125 1.734375 10.890625 0.554688 9.515625 -0.390625 L 9.515625 -3.65625 L 23.703125 -3.65625 L 23.703125 0 Z M 12.96875 -21.21875 Z M 12.96875 -21.21875 "/></g></g></g><g fill="#ffffff" fill-opacity="1"><g transform="translate(245.864112, 218.50674)"><g><path d="M 14.8125 -24.96875 C 17.375 -24.96875 19.65625 -24.425781 21.65625 -23.34375 C 23.65625 -22.269531 25.191406 -20.726562 26.265625 -18.71875 C 27.335938 -16.71875 27.875 -14.429688 27.875 -11.859375 C 27.875 -9.398438 27.335938 -7.222656 26.265625 -5.328125 C 25.191406 -3.429688 23.664062 -1.960938 21.6875 -0.921875 C 19.707031 0.117188 17.414062 0.640625 14.8125 0.640625 C 10.84375 0.640625 7.675781 -0.5 5.3125 -2.78125 C 2.945312 -5.0625 1.765625 -8.066406 1.765625 -11.796875 C 1.765625 -14.367188 2.316406 -16.664062 3.421875 -18.6875 C 4.523438 -20.71875 6.066406 -22.269531 8.046875 -23.34375 C 10.035156 -24.425781 12.289062 -24.96875 14.8125 -24.96875 Z M 14.796875 -3.296875 C 17.609375 -3.296875 19.800781 -4.085938 21.375 -5.671875 C 22.957031 -7.265625 23.75 -9.394531 23.75 -12.0625 C 23.75 -14.8125 22.957031 -17.023438 21.375 -18.703125 C 19.789062 -20.378906 17.597656 -21.21875 14.796875 -21.21875 C 12.015625 -21.21875 9.828125 -20.390625 8.234375 -18.734375 C 6.648438 -17.085938 5.859375 -14.953125 5.859375 -12.328125 C 5.859375 -9.554688 6.644531 -7.359375 8.21875 -5.734375 C 9.789062 -4.109375 11.984375 -3.296875 14.796875 -3.296875 Z M 14.8125 1.21875 Z M 29.65625 1.21875 Z M 10.265625 -29.5625 C 10.597656 -28.3125 10.914062 -27.359375 11.21875 -26.703125 C 11.53125 -26.054688 11.859375 -25.601562 12.203125 -25.34375 C 12.554688 -25.09375 12.992188 -24.96875 13.515625 -24.96875 C 14.171875 -24.96875 14.789062 -25.171875 15.375 -25.578125 C 15.957031 -25.992188 16.785156 -26.890625 17.859375 -28.265625 L 19.40625 -30.28125 C 21.125 -32.539062 22.691406 -34.097656 24.109375 -34.953125 C 25.523438 -35.804688 27.285156 -36.238281 29.390625 -36.25 L 29.65625 -32.390625 C 28.5 -32.328125 27.5625 -32.15625 26.84375 -31.875 C 26.132812 -31.601562 25.472656 -31.203125 24.859375 -30.671875 C 24.242188 -30.148438 23.398438 -29.195312 22.328125 -27.8125 L 21.1875 -26.3125 C 19.820312 -24.539062 18.53125 -23.25 17.3125 -22.4375 C 16.101562 -21.625 14.742188 -21.21875 13.234375 -21.21875 C 11.328125 -21.21875 9.816406 -21.832031 8.703125 -23.0625 C 7.585938 -24.289062 6.726562 -26.007812 6.125 -28.21875 Z M 17.0625 -43.453125 Z M 17.0625 -43.453125 "/></g></g></g><g fill="#ffffff" fill-opacity="1"><g transform="translate(275.522561, 218.50674)"><g><path d="M 12.640625 -21.390625 C 14.742188 -21.390625 16.640625 -20.914062 18.328125 -19.96875 C 20.023438 -19.03125 21.34375 -17.707031 22.28125 -16 C 23.21875 -14.300781 23.6875 -12.421875 23.6875 -10.359375 C 23.6875 -7.128906 22.660156 -4.488281 20.609375 -2.4375 C 18.566406 -0.382812 15.910156 0.640625 12.640625 0.640625 C 10.554688 0.640625 8.671875 0.1875 6.984375 -0.71875 C 5.304688 -1.632812 3.992188 -2.945312 3.046875 -4.65625 C 2.109375 -6.375 1.640625 -8.273438 1.640625 -10.359375 C 1.640625 -12.421875 2.109375 -14.296875 3.046875 -15.984375 C 3.992188 -17.679688 5.304688 -19.003906 6.984375 -19.953125 C 8.660156 -20.910156 10.546875 -21.390625 12.640625 -21.390625 Z M 12.640625 -3.296875 C 14.804688 -3.296875 16.503906 -3.945312 17.734375 -5.25 C 18.960938 -6.550781 19.578125 -8.257812 19.578125 -10.375 C 19.578125 -12.457031 18.945312 -14.15625 17.6875 -15.46875 C 16.425781 -16.789062 14.742188 -17.453125 12.640625 -17.453125 C 10.554688 -17.453125 8.890625 -16.796875 7.640625 -15.484375 C 6.390625 -14.179688 5.765625 -12.476562 5.765625 -10.375 C 5.765625 -8.28125 6.375 -6.578125 7.59375 -5.265625 C 8.8125 -3.953125 10.492188 -3.296875 12.640625 -3.296875 Z M 13.0625 -24.96875 Z M 13.0625 -24.96875 "/></g></g></g></svg>