<svg xmlns="http://www.w3.org/2000/svg" xmlns:xlink="http://www.w3.org/1999/xlink" width="512" zoomAndPan="magnify" viewBox="0 0 384 383.999986" height="512" preserveAspectRatio="xMidYMid meet" version="1.0"><defs><g/></defs><g fill="#ffffff" fill-opacity="1"><g transform="translate(104.90625, 218.506624)"><g><path d="M 31.75 -0.59375 C 31.8125 -0.59375 31.84375 -0.492188 31.84375 -0.296875 C 31.84375 -0.0976562 31.8125 0 31.75 0 C 30.882812 0 30.203125 -0.015625 29.703125 -0.046875 L 26.953125 -0.09375 L 23.09375 -0.046875 C 22.5 -0.015625 21.6875 0 20.65625 0 C 20.582031 0 20.546875 -0.0976562 20.546875 -0.296875 C 20.546875 -0.492188 20.582031 -0.59375 20.65625 -0.59375 C 21.550781 -0.59375 22.195312 -0.660156 22.59375 -0.796875 C 23 -0.929688 23.203125 -1.148438 23.203125 -1.453125 C 23.203125 -1.753906 23.050781 -2.117188 22.75 -2.546875 L 15.15625 -14.046875 L 8.796875 -5.09375 C 7.992188 -3.96875 7.59375 -3.050781 7.59375 -2.34375 C 7.59375 -1.175781 8.578125 -0.59375 10.546875 -0.59375 C 10.648438 -0.59375 10.703125 -0.492188 10.703125 -0.296875 C 10.703125 -0.0976562 10.648438 0 10.546875 0 C 9.546875 0 8.78125 -0.015625 8.25 -0.046875 L 4.796875 -0.09375 L 2.703125 -0.046875 C 2.335938 -0.015625 1.71875 0 0.84375 0 C 0.75 0 0.703125 -0.0976562 0.703125 -0.296875 C 0.703125 -0.492188 0.75 -0.59375 0.84375 -0.59375 C 1.945312 -0.59375 3.082031 -0.976562 4.25 -1.75 C 5.414062 -2.519531 6.550781 -3.65625 7.65625 -5.15625 L 14.703125 -14.796875 L 6.65625 -27 C 5.75 -28.332031 4.867188 -29.273438 4.015625 -29.828125 C 3.171875 -30.378906 2.179688 -30.65625 1.046875 -30.65625 C 0.984375 -30.65625 0.953125 -30.753906 0.953125 -30.953125 C 0.953125 -31.148438 0.984375 -31.25 1.046875 -31.25 L 2.953125 -31.203125 C 3.816406 -31.128906 4.445312 -31.09375 4.84375 -31.09375 C 5.976562 -31.09375 7.347656 -31.128906 8.953125 -31.203125 L 11.546875 -31.25 C 11.648438 -31.25 11.703125 -31.148438 11.703125 -30.953125 C 11.703125 -30.753906 11.648438 -30.65625 11.546875 -30.65625 C 10.679688 -30.65625 10.039062 -30.585938 9.625 -30.453125 C 9.207031 -30.316406 9 -30.082031 9 -29.75 C 9 -29.476562 9.148438 -29.113281 9.453125 -28.65625 L 16.84375 -17.5 L 22.703125 -25.796875 C 23.597656 -27.066406 24.046875 -28.101562 24.046875 -28.90625 C 24.046875 -30.070312 23.113281 -30.65625 21.25 -30.65625 C 21.144531 -30.65625 21.09375 -30.753906 21.09375 -30.953125 C 21.09375 -31.148438 21.144531 -31.25 21.25 -31.25 L 23.5 -31.203125 C 24.769531 -31.128906 25.921875 -31.09375 26.953125 -31.09375 C 27.546875 -31.09375 28.242188 -31.128906 29.046875 -31.203125 L 30.90625 -31.25 C 31 -31.25 31.046875 -31.148438 31.046875 -30.953125 C 31.046875 -30.753906 31 -30.65625 30.90625 -30.65625 C 29.800781 -30.65625 28.648438 -30.238281 27.453125 -29.40625 C 26.253906 -28.570312 25.050781 -27.335938 23.84375 -25.703125 L 17.296875 -16.75 L 25.65625 -4.15625 C 26.519531 -2.851562 27.410156 -1.929688 28.328125 -1.390625 C 29.242188 -0.859375 30.382812 -0.59375 31.75 -0.59375 Z M 31.75 -0.59375 "/></g></g></g><g fill="#ffffff" fill-opacity="1"><g transform="translate(137.501207, 218.506624)"><g><path d="M 6.84375 -25.59375 C 6.144531 -25.59375 5.601562 -25.773438 5.21875 -26.140625 C 4.84375 -26.515625 4.65625 -27.035156 4.65625 -27.703125 C 4.65625 -28.367188 4.84375 -28.882812 5.21875 -29.25 C 5.601562 -29.613281 6.144531 -29.796875 6.84375 -29.796875 C 7.507812 -29.796875 8.023438 -29.613281 8.390625 -29.25 C 8.765625 -28.882812 8.953125 -28.367188 8.953125 -27.703125 C 8.953125 -27.035156 8.765625 -26.515625 8.390625 -26.140625 C 8.023438 -25.773438 7.507812 -25.59375 6.84375 -25.59375 Z M 2.65625 0 C 2.582031 0 2.546875 -0.0976562 2.546875 -0.296875 C 2.546875 -0.492188 2.582031 -0.59375 2.65625 -0.59375 C 3.550781 -0.59375 4.222656 -0.6875 4.671875 -0.875 C 5.117188 -1.0625 5.425781 -1.394531 5.59375 -1.875 C 5.757812 -2.351562 5.84375 -3.078125 5.84375 -4.046875 L 5.84375 -13.40625 C 5.84375 -14.601562 5.71875 -15.46875 5.46875 -16 C 5.21875 -16.53125 4.796875 -16.796875 4.203125 -16.796875 C 3.597656 -16.796875 2.847656 -16.5625 1.953125 -16.09375 L 1.90625 -16.09375 C 1.769531 -16.09375 1.664062 -16.175781 1.59375 -16.34375 C 1.53125 -16.507812 1.550781 -16.628906 1.65625 -16.703125 L 8.15625 -19.703125 L 8.34375 -19.75 C 8.414062 -19.75 8.5 -19.707031 8.59375 -19.625 C 8.695312 -19.539062 8.75 -19.445312 8.75 -19.34375 C 8.75 -19.113281 8.734375 -18.445312 8.703125 -17.34375 C 8.671875 -16.25 8.65625 -14.953125 8.65625 -13.453125 L 8.65625 -4.046875 C 8.65625 -3.046875 8.738281 -2.3125 8.90625 -1.84375 C 9.070312 -1.382812 9.367188 -1.0625 9.796875 -0.875 C 10.234375 -0.6875 10.898438 -0.59375 11.796875 -0.59375 C 11.898438 -0.59375 11.953125 -0.492188 11.953125 -0.296875 C 11.953125 -0.0976562 11.898438 0 11.796875 0 C 11.035156 0 10.421875 -0.015625 9.953125 -0.046875 L 7.25 -0.09375 L 4.546875 -0.046875 C 4.078125 -0.015625 3.445312 0 2.65625 0 Z M 2.65625 0 "/></g></g></g><g fill="#ffffff" fill-opacity="1"><g transform="translate(151.149098, 218.506624)"><g><path d="M 24.75 -0.59375 C 24.851562 -0.59375 24.90625 -0.492188 24.90625 -0.296875 C 24.90625 -0.0976562 24.851562 0 24.75 0 C 23.976562 0 23.378906 -0.015625 22.953125 -0.046875 L 20.25 -0.09375 L 17.5 -0.046875 C 17.0625 -0.015625 16.460938 0 15.703125 0 C 15.597656 0 15.546875 -0.0976562 15.546875 -0.296875 C 15.546875 -0.492188 15.597656 -0.59375 15.703125 -0.59375 C 16.597656 -0.59375 17.257812 -0.6875 17.6875 -0.875 C 18.125 -1.0625 18.414062 -1.382812 18.5625 -1.84375 C 18.71875 -2.3125 18.796875 -3.046875 18.796875 -4.046875 L 18.796875 -12.15625 C 18.796875 -14.113281 18.421875 -15.5625 17.671875 -16.5 C 16.921875 -17.4375 15.765625 -17.90625 14.203125 -17.90625 C 13.171875 -17.90625 12.128906 -17.628906 11.078125 -17.078125 C 10.023438 -16.523438 9.066406 -15.765625 8.203125 -14.796875 L 8.203125 -4.046875 C 8.203125 -3.046875 8.273438 -2.3125 8.421875 -1.84375 C 8.578125 -1.382812 8.867188 -1.0625 9.296875 -0.875 C 9.734375 -0.6875 10.398438 -0.59375 11.296875 -0.59375 C 11.398438 -0.59375 11.453125 -0.492188 11.453125 -0.296875 C 11.453125 -0.0976562 11.398438 0 11.296875 0 C 10.535156 0 9.9375 -0.015625 9.5 -0.046875 L 6.796875 -0.09375 L 4.046875 -0.046875 C 3.617188 -0.015625 3.019531 0 2.25 0 C 2.144531 0 2.09375 -0.0976562 2.09375 -0.296875 C 2.09375 -0.492188 2.144531 -0.59375 2.25 -0.59375 C 3.144531 -0.59375 3.8125 -0.6875 4.25 -0.875 C 4.6875 -1.0625 4.976562 -1.382812 5.125 -1.84375 C 5.269531 -2.3125 5.34375 -3.046875 5.34375 -4.046875 L 5.34375 -13.953125 C 5.34375 -15.085938 5.207031 -15.90625 4.9375 -16.40625 C 4.675781 -16.90625 4.226562 -17.15625 3.59375 -17.15625 C 3.0625 -17.15625 2.164062 -16.90625 0.90625 -16.40625 L 0.796875 -16.40625 C 0.660156 -16.40625 0.566406 -16.476562 0.515625 -16.625 C 0.472656 -16.769531 0.519531 -16.878906 0.65625 -16.953125 L 6.453125 -19.703125 L 6.75 -19.75 C 7.050781 -19.75 7.367188 -19.363281 7.703125 -18.59375 C 8.035156 -17.832031 8.203125 -16.851562 8.203125 -15.65625 C 9.460938 -17.113281 10.71875 -18.191406 11.96875 -18.890625 C 13.21875 -19.597656 14.507812 -19.953125 15.84375 -19.953125 C 17.71875 -19.953125 19.15625 -19.429688 20.15625 -18.390625 C 21.15625 -17.359375 21.65625 -15.84375 21.65625 -13.84375 L 21.65625 -4.046875 C 21.65625 -3.046875 21.726562 -2.3125 21.875 -1.84375 C 22.019531 -1.382812 22.3125 -1.0625 22.75 -0.875 C 23.1875 -0.6875 23.851562 -0.59375 24.75 -0.59375 Z M 24.75 -0.59375 "/></g></g></g><g fill="#ffffff" fill-opacity="1"><g transform="translate(176.995096, 218.506624)"><g/></g></g><g fill="#ffffff" fill-opacity="1"><g transform="translate(188.69328, 218.506624)"><g><path d="M 11.546875 0.59375 C 9.378906 0.59375 7.5625 0.117188 6.09375 -0.828125 C 4.632812 -1.773438 3.550781 -3 2.84375 -4.5 C 2.144531 -6 1.796875 -7.582031 1.796875 -9.25 C 1.796875 -11.382812 2.328125 -13.242188 3.390625 -14.828125 C 4.460938 -16.410156 5.835938 -17.625 7.515625 -18.46875 C 9.203125 -19.320312 10.929688 -19.75 12.703125 -19.75 C 14.171875 -19.75 15.507812 -19.457031 16.71875 -18.875 C 17.9375 -18.289062 18.546875 -17.566406 18.546875 -16.703125 C 18.546875 -16.265625 18.382812 -15.882812 18.0625 -15.5625 C 17.75 -15.25 17.328125 -15.09375 16.796875 -15.09375 C 15.898438 -15.09375 15.164062 -15.644531 14.59375 -16.75 C 14.164062 -17.414062 13.703125 -17.914062 13.203125 -18.25 C 12.703125 -18.582031 11.984375 -18.75 11.046875 -18.75 C 9.179688 -18.75 7.722656 -18.023438 6.671875 -16.578125 C 5.617188 -15.128906 5.09375 -13.1875 5.09375 -10.75 C 5.09375 -7.945312 5.789062 -5.644531 7.1875 -3.84375 C 8.59375 -2.050781 10.695312 -1.15625 13.5 -1.15625 C 15.53125 -1.15625 17.226562 -1.703125 18.59375 -2.796875 L 18.65625 -2.796875 C 18.75 -2.796875 18.835938 -2.742188 18.921875 -2.640625 C 19.003906 -2.546875 19.015625 -2.46875 18.953125 -2.40625 C 17.785156 -1.363281 16.609375 -0.601562 15.421875 -0.125 C 14.242188 0.351562 12.953125 0.59375 11.546875 0.59375 Z M 11.546875 0.59375 "/></g></g></g><g fill="#ffffff" fill-opacity="1"><g transform="translate(209.240104, 218.506624)"><g><path d="M 23.84375 -0.59375 C 23.945312 -0.59375 24 -0.492188 24 -0.296875 C 24 -0.0976562 23.945312 0 23.84375 0 C 23.082031 0 22.46875 -0.015625 22 -0.046875 L 19.296875 -0.09375 L 16.59375 -0.046875 C 16.132812 -0.015625 15.519531 0 14.75 0 C 14.644531 0 14.59375 -0.0976562 14.59375 -0.296875 C 14.59375 -0.492188 14.644531 -0.59375 14.75 -0.59375 C 15.644531 -0.59375 16.3125 -0.6875 16.75 -0.875 C 17.1875 -1.0625 17.488281 -1.394531 17.65625 -1.875 C 17.820312 -2.351562 17.90625 -3.078125 17.90625 -4.046875 L 17.90625 -12 C 17.90625 -13.96875 17.53125 -15.425781 16.78125 -16.375 C 16.03125 -17.320312 14.867188 -17.796875 13.296875 -17.796875 C 12.265625 -17.796875 11.210938 -17.519531 10.140625 -16.96875 C 9.078125 -16.425781 8.113281 -15.671875 7.25 -14.703125 L 7.25 -4.046875 C 7.25 -3.078125 7.332031 -2.351562 7.5 -1.875 C 7.664062 -1.394531 7.960938 -1.0625 8.390625 -0.875 C 8.828125 -0.6875 9.5 -0.59375 10.40625 -0.59375 C 10.5 -0.59375 10.546875 -0.492188 10.546875 -0.296875 C 10.546875 -0.0976562 10.5 0 10.40625 0 C 9.632812 0 9.015625 -0.015625 8.546875 -0.046875 L 5.84375 -0.09375 L 3.15625 -0.046875 C 2.6875 -0.015625 2.066406 0 1.296875 0 C 1.203125 0 1.15625 -0.0976562 1.15625 -0.296875 C 1.15625 -0.492188 1.203125 -0.59375 1.296875 -0.59375 C 2.203125 -0.59375 2.867188 -0.6875 3.296875 -0.875 C 3.734375 -1.0625 4.035156 -1.394531 4.203125 -1.875 C 4.367188 -2.351562 4.453125 -3.078125 4.453125 -4.046875 L 4.453125 -29.90625 C 4.453125 -31.101562 4.332031 -31.96875 4.09375 -32.5 C 3.863281 -33.03125 3.445312 -33.296875 2.84375 -33.296875 C 2.34375 -33.296875 1.578125 -33.0625 0.546875 -32.59375 L 0.453125 -32.59375 C 0.347656 -32.59375 0.257812 -32.675781 0.1875 -32.84375 C 0.125 -33.007812 0.160156 -33.113281 0.296875 -33.15625 L 6.65625 -36.25 L 6.796875 -36.25 C 6.929688 -36.25 7.039062 -36.207031 7.125 -36.125 C 7.207031 -36.039062 7.25 -35.945312 7.25 -35.84375 L 7.25 -15.546875 C 8.519531 -17.015625 9.78125 -18.085938 11.03125 -18.765625 C 12.28125 -19.453125 13.585938 -19.796875 14.953125 -19.796875 C 16.785156 -19.796875 18.203125 -19.28125 19.203125 -18.25 C 20.203125 -17.21875 20.703125 -15.71875 20.703125 -13.75 L 20.703125 -4.046875 C 20.703125 -3.078125 20.785156 -2.351562 20.953125 -1.875 C 21.117188 -1.394531 21.414062 -1.0625 21.84375 -0.875 C 22.28125 -0.6875 22.945312 -0.59375 23.84375 -0.59375 Z M 23.84375 -0.59375 "/></g></g></g><g fill="#ffffff" fill-opacity="1"><g transform="translate(234.186242, 218.506624)"><g><path d="M 5.796875 -36.34375 C 5.765625 -36.476562 5.898438 -36.546875 6.203125 -36.546875 C 6.628906 -36.546875 7.164062 -36.453125 7.8125 -36.265625 C 8.46875 -36.085938 8.8125 -35.929688 8.84375 -35.796875 L 11.40625 -23.796875 C 11.46875 -23.734375 11.40625 -23.675781 11.21875 -23.625 C 11.039062 -23.570312 10.9375 -23.597656 10.90625 -23.703125 Z M 20.75 -2.703125 C 20.882812 -2.703125 20.96875 -2.625 21 -2.46875 C 21.03125 -2.320312 20.976562 -2.21875 20.84375 -2.15625 L 15.703125 0.296875 C 15.566406 0.367188 15.429688 0.40625 15.296875 0.40625 C 14.867188 0.40625 14.488281 0.113281 14.15625 -0.46875 C 13.820312 -1.050781 13.601562 -1.84375 13.5 -2.84375 L 10.90625 -1.15625 C 10.070312 -0.613281 9.335938 -0.226562 8.703125 0 C 8.066406 0.226562 7.398438 0.34375 6.703125 0.34375 C 5.460938 0.34375 4.5 0.0195312 3.8125 -0.625 C 3.132812 -1.269531 2.796875 -2.09375 2.796875 -3.09375 C 2.796875 -4.09375 3.195312 -4.957031 4 -5.6875 C 4.800781 -6.425781 6.117188 -7.128906 7.953125 -7.796875 L 13.453125 -9.84375 L 13.453125 -13.25 C 13.453125 -16.976562 12.398438 -18.84375 10.296875 -18.84375 C 9.160156 -18.84375 8.300781 -18.46875 7.71875 -17.71875 C 7.132812 -16.96875 6.742188 -16.113281 6.546875 -15.15625 C 6.453125 -14.550781 6.269531 -14.054688 6 -13.671875 C 5.726562 -13.285156 5.28125 -13.09375 4.65625 -13.09375 C 4.113281 -13.09375 3.703125 -13.242188 3.421875 -13.546875 C 3.140625 -13.847656 3 -14.195312 3 -14.59375 C 3 -15.394531 3.515625 -16.195312 4.546875 -17 C 5.578125 -17.800781 6.8125 -18.46875 8.25 -19 C 9.6875 -19.53125 10.96875 -19.796875 12.09375 -19.796875 C 13.46875 -19.796875 14.503906 -19.363281 15.203125 -18.5 C 15.898438 -17.632812 16.25 -16.382812 16.25 -14.75 L 16.25 -5.40625 C 16.25 -4.238281 16.398438 -3.382812 16.703125 -2.84375 C 17.003906 -2.3125 17.503906 -2.046875 18.203125 -2.046875 C 18.835938 -2.046875 19.65625 -2.265625 20.65625 -2.703125 Z M 13.453125 -3.546875 L 13.453125 -9.15625 L 8.796875 -7.34375 C 7.867188 -6.976562 7.195312 -6.550781 6.78125 -6.0625 C 6.363281 -5.582031 6.15625 -5.007812 6.15625 -4.34375 C 6.15625 -3.550781 6.410156 -2.878906 6.921875 -2.328125 C 7.441406 -1.773438 8.117188 -1.5 8.953125 -1.5 C 9.617188 -1.5 10.414062 -1.765625 11.34375 -2.296875 Z M 13.453125 -3.546875 "/></g></g></g><g fill="#ffffff" fill-opacity="1"><g transform="translate(255.133002, 218.506624)"><g><path d="M 11.546875 0.65625 C 9.617188 0.65625 7.910156 0.179688 6.421875 -0.765625 C 4.941406 -1.722656 3.800781 -3.007812 3 -4.625 C 2.195312 -6.238281 1.796875 -8 1.796875 -9.90625 C 1.796875 -12.070312 2.320312 -13.910156 3.375 -15.421875 C 4.425781 -16.941406 5.773438 -18.078125 7.421875 -18.828125 C 9.078125 -19.578125 10.753906 -19.953125 12.453125 -19.953125 C 14.421875 -19.953125 16.132812 -19.46875 17.59375 -18.5 C 19.0625 -17.53125 20.1875 -16.253906 20.96875 -14.671875 C 21.757812 -13.085938 22.15625 -11.414062 22.15625 -9.65625 C 22.15625 -7.582031 21.671875 -5.769531 20.703125 -4.21875 C 19.734375 -2.675781 18.441406 -1.476562 16.828125 -0.625 C 15.210938 0.226562 13.453125 0.65625 11.546875 0.65625 Z M 13 -0.296875 C 14.832031 -0.296875 16.25 -0.945312 17.25 -2.25 C 18.25 -3.550781 18.75 -5.550781 18.75 -8.25 C 18.75 -10.3125 18.40625 -12.160156 17.71875 -13.796875 C 17.039062 -15.429688 16.097656 -16.707031 14.890625 -17.625 C 13.691406 -18.539062 12.328125 -19 10.796875 -19 C 8.992188 -19 7.601562 -18.347656 6.625 -17.046875 C 5.644531 -15.742188 5.15625 -13.878906 5.15625 -11.453125 C 5.15625 -9.421875 5.488281 -7.550781 6.15625 -5.84375 C 6.820312 -4.144531 7.753906 -2.796875 8.953125 -1.796875 C 10.148438 -0.796875 11.5 -0.296875 13 -0.296875 Z M 13 -0.296875 "/></g></g></g></svg>